<svg xmlns="http://www.w3.org/2000/svg" width="56" height="56" viewBox="0 0 56 56"><g transform="translate(-278 -416)"><circle cx="28" cy="28" r="28" transform="translate(278 416)" fill="transparent"/><path d="M8.079,12.454l-.7,2.615a5.318,5.318,0,0,0-.136,1.94L5.258,18.643a.51.51,0,0,1-.825-.495L5.3,13.824a.51.51,0,0,0-.451-.609L.461,12.79a.51.51,0,0,1-.234-.933L3.9,9.414a.511.511,0,0,0,.112-.75L1.21,5.258a.51.51,0,0,1,.5-.825L6.03,5.3a.511.511,0,0,0,.609-.451L7.065.461A.511.511,0,0,1,8,.228L10.441,3.9a.511.511,0,0,0,.75.112L14.6,1.21a.51.51,0,0,1,.825.495l-.639,3.168c-.153.172-.306.343-.446.53L12.523,7.826l-.6.808A5.44,5.44,0,0,0,8.079,12.454Zm27.895,7.474-.7,2.615a3.534,3.534,0,0,1-.99,1.656,3.772,3.772,0,0,1-.494.395L33,27.539a1.8,1.8,0,0,1-2.21,1.276l-1.743-.467a1.8,1.8,0,0,1-1.276-2.21l.467-1.743L14.29,20.658,13.823,22.4a1.8,1.8,0,0,1-2.21,1.276L9.87,23.21A1.8,1.8,0,0,1,8.593,21l.789-2.946a3.757,3.757,0,0,1-.231-.589,3.534,3.534,0,0,1-.029-1.929l.7-2.615A3.583,3.583,0,0,1,11.9,10.54a3.629,3.629,0,0,1,1.043-.266l1.023-1.367,1.813-2.424a6.353,6.353,0,0,1,2.14-1.825,6.193,6.193,0,0,1,.849-.366,6.261,6.261,0,0,1,1.818-.341,6.368,6.368,0,0,1,1.886.214L29.394,6.02a6.357,6.357,0,0,1,1.74.757,6.284,6.284,0,0,1,2.9,4.6l.359,3.006.2,1.695a3.637,3.637,0,0,1,1.283,1.688,3.562,3.562,0,0,1,.1,2.165ZM14.415,13.217a1.7,1.7,0,0,0-2.209,1.271,1.7,1.7,0,0,0,1.278,2.2c1.046.28,2.569.875,2.848-.168A3.471,3.471,0,0,0,14.415,13.217Zm16.391,1.589L30.447,11.8A2.707,2.707,0,0,0,28.46,9.506L21.54,7.652a2.708,2.708,0,0,0-2.869.993l-1.813,2.424,9.7,2.6,4.246,1.138Zm1.043,3.082a3.472,3.472,0,0,0-3.314,1.906c-.279,1.043,1.336,1.289,2.382,1.57a1.8,1.8,0,1,0,.931-3.475Z" transform="translate(287.452 429.562)" fill="#fff"/></g></svg>