<svg id="VW_Logo" data-name="VW Logo" xmlns="http://www.w3.org/2000/svg" width="110" height="110" viewBox="0 0 110 110">
  <circle id="Ellipse_1" data-name="Ellipse 1" cx="55" cy="55" r="55" fill="#db072c"/>
  <g id="Audi" transform="translate(66.836 58.823)">
    <g id="Group_39" data-name="Group 39" transform="translate(-53.836 -18.823)">
      <path id="Path_59" data-name="Path 59" d="M70.14,0a14.792,14.792,0,0,0-9.213,3.2A14.86,14.86,0,0,0,42.5,3.2a14.86,14.86,0,0,0-18.427,0,14.859,14.859,0,1,0,0,23.316,14.86,14.86,0,0,0,18.427,0,14.86,14.86,0,0,0,18.427,0A14.859,14.859,0,1,0,70.14,0Zm-48.5,24.09A11.455,11.455,0,1,1,14.86,3.4a11.538,11.538,0,0,1,6.782,2.225,14.86,14.86,0,0,0,0,18.461Zm2.431-2.424a11.452,11.452,0,0,1,0-13.612,11.452,11.452,0,0,1,0,13.612Zm16,2.424a11.465,11.465,0,0,1-13.565,0,14.86,14.86,0,0,0,0-18.461,11.465,11.465,0,0,1,13.565,0,14.863,14.863,0,0,0,0,18.461ZM42.5,21.665a11.452,11.452,0,0,1,0-13.612,11.452,11.452,0,0,1,0,13.612Zm16,2.424a11.465,11.465,0,0,1-13.565,0,14.86,14.86,0,0,0,0-18.461,11.465,11.465,0,0,1,13.565,0,14.86,14.86,0,0,0,0,18.461Zm2.431-2.424a11.452,11.452,0,0,1,0-13.612,11.452,11.452,0,0,1,0,13.612Zm9.213,4.649a11.533,11.533,0,0,1-6.782-2.225,14.86,14.86,0,0,0,0-18.461A11.455,11.455,0,1,1,70.14,26.314Z" fill="#fff" fill-rule="evenodd"/>
    </g>
  </g>
</svg>
