<svg xmlns="http://www.w3.org/2000/svg" xmlns:xlink="http://www.w3.org/1999/xlink" width="56" height="56" viewBox="0 0 56 56"><defs><clipPath id="a"><rect width="32.443" height="32.443" fill="#fff"/></clipPath></defs><g transform="translate(-278 -416)"><circle cx="28" cy="28" r="28" transform="translate(278 416)" fill="transparent"/><g transform="translate(289.779 428.279)"><g clip-path="url(#a)"><path d="M32.415,15.272a16.221,16.221,0,0,0-32.387,0Q0,15.743,0,16.222a16.221,16.221,0,1,0,32.443,0q0-.478-.028-.95M16.222,3.69a12.537,12.537,0,0,1,11.936,8.7H4.285a12.537,12.537,0,0,1,11.936-8.7m3.053,13.343a3.053,3.053,0,1,1-3.053-3.053,3.053,3.053,0,0,1,3.053,3.053M3.69,16.222q0-.305.015-.605A13.5,13.5,0,0,1,14.1,28.574,12.534,12.534,0,0,1,3.69,16.222M18.341,28.574a13.5,13.5,0,0,1,10.4-12.957q.015.3.015.605A12.534,12.534,0,0,1,18.341,28.574" fill="#fff"/></g></g></g></svg>