<svg id="VW_Logo" data-name="VW Logo" xmlns="http://www.w3.org/2000/svg" width="110" height="110" viewBox="0 0 110 110">
  <circle id="Ellipse_1" data-name="Ellipse 1" cx="55" cy="55" r="55" fill="#075aa7"/>
  <g id="BMW" transform="translate(54.111 54.11)">
    <g id="Group_38" data-name="Group 38" transform="translate(-34.111 -34.111)">
      <path id="Path_54" data-name="Path 54" d="M35,0A35,35,0,1,0,70,35,35,35,0,0,0,35,0ZM29.349,2.187l3.28-.364L35,8.75l2.369-6.928,3.28.364.366,9.844-2.554-.364-.242-6.561-2.309,6.561H34.09l-2.31-6.561-.242,6.561-2.554.364ZM7.255,18.391c-.265-.214-.528-.425-.793-.636a.887.887,0,0,1-.094-.078c.047-.054.091-.112.135-.166q1.019-1.277,2.044-2.552,1.187-1.484,2.377-2.97c.151-.19.3-.38.456-.569a2.37,2.37,0,0,1,3.5-.217,2.407,2.407,0,0,1,.651,1.14,2.521,2.521,0,0,1-.057,1.312c.057-.047.115-.1.178-.146a2.644,2.644,0,0,1,4.2,1.82,2.726,2.726,0,0,1-.086,1.041,5.283,5.283,0,0,1-1.084,1.677Q17.463,19.57,16.243,21.1q-1.019,1.268-2.036,2.544c-.052.063-.1.125-.151.187-.01.013-.071-.046-.078-.054-.255-.2-.5-.4-.758-.606q-1.484-1.187-2.967-2.374Q8.753,19.588,7.255,18.391ZM35,56.875A21.874,21.874,0,1,1,56.875,35,21.875,21.875,0,0,1,35,56.875ZM55.837,23.692l-1.255-2.151,4.324-5.681-6.49,2.976-1.822-1.692L56.513,9.37l1.822,1.692-3.415,4.486,5.467-2.508,1.593,1.992-3.643,4.786,5.123-2.351,1.255,2.148Z" fill="#fff" fill-rule="evenodd"/>
      <path id="Path_55" data-name="Path 55" d="M13.8,14.033a1.124,1.124,0,0,0-.25-1,1.112,1.112,0,0,0-1.231-.276,1.85,1.85,0,0,0-.693.652c-.769.955-1.534,1.916-2.3,2.871-.01.013-.171.211-.171.222l.471.378,1.233.987q.606-.754,1.214-1.512t1.211-1.513A2.427,2.427,0,0,0,13.8,14.033Z" transform="translate(0.239 0.33)" fill="#fff" fill-rule="evenodd"/>
      <path id="Path_56" data-name="Path 56" d="M13.792,20.225c.037.029.073.057.112.086.005.005.024-.027.027-.029Q15,18.942,16.076,17.6l.782-.977a1.093,1.093,0,0,0-.877-1.788,1.164,1.164,0,0,0-.889.495q-.476.589-.947,1.185L12.2,18.946c.337.271.675.539,1.011.81Z" transform="translate(0.318 0.387)" fill="#fff" fill-rule="evenodd"/>
      <path id="Path_57" data-name="Path 57" d="M13.874,34.64H34.64V13.874A21.334,21.334,0,0,0,13.874,34.64Z" transform="translate(0.362 0.362)" fill="#fff" fill-rule="evenodd"/>
      <path id="Path_58" data-name="Path 58" d="M34.112,54.877A21.335,21.335,0,0,0,54.877,34.112H34.112Z" transform="translate(0.89 0.89)" fill="#fff" fill-rule="evenodd"/>
    </g>
  </g>
</svg>
