<svg id="VW_Logo" data-name="VW Logo" xmlns="http://www.w3.org/2000/svg" width="110" height="110" viewBox="0 0 110 110">
  <circle id="Ellipse_1" data-name="Ellipse 1" cx="55" cy="55" r="55" fill="#e50002"/>
  <g id="Citroen" transform="translate(68.904 77.802)">
    <g id="Group_33" data-name="Group 33" transform="translate(-47.731 -58.093)">
      <path id="Path_27" data-name="Path 27" d="M100.5,58.554c-5.994-5.139-23.8-19.763-32.255-19.763S41.994,53.406,36,58.548c-.036-1.215-.069-1.953-.069-3.035a5.208,5.208,0,0,1,1.433-3.574,105.7,105.7,0,0,1,27.051-17.72c4.065-1.718,3.836-1.4,3.833-8.289a2.253,2.253,0,0,1,.3,0c5.724.519,21.114,15.455,30.222,25.553a7.662,7.662,0,0,1,1.8,4.254c0,1.018-.027,2.023-.06,2.817m-.245-8.43c-.967-1.074-23.759-26.231-32.01-26.231S37.2,49.051,36.237,50.123h0a9.614,9.614,0,0,0-2.319,5.613c0,2.309.152,4.632.155,4.654.005.106.058,1.088.6,1.355a.632.632,0,0,0,.282.066,1.182,1.182,0,0,0,.674-.27c.246-.217,23.464-20.726,32.614-20.726s32.37,20.508,32.6,20.716a1.2,1.2,0,0,0,.687.28.645.645,0,0,0,.282-.065c.544-.266.6-1.249.6-1.359,0-.017.154-2.34.154-4.648a9.628,9.628,0,0,0-2.318-5.616m.213-15.5C94.48,29.493,76.69,14.884,68.246,14.884S42.022,29.485,36.03,34.621c-.036-1.212-.07-1.951-.07-3.031a5.2,5.2,0,0,1,1.433-3.57,105.589,105.589,0,0,1,27.023-17.7c4.061-1.717,3.833-1.394,3.829-8.281a2.161,2.161,0,0,1,.3,0c5.718.518,21.094,15.44,30.192,25.527a7.641,7.641,0,0,1,1.8,4.25c0,1.016-.029,2.019-.062,2.812m-.245-8.421C99.255,25.133,76.487,0,68.245,0S37.235,25.133,36.269,26.2h0a9.606,9.606,0,0,0-2.318,5.609c0,2.306.154,4.626.155,4.648.005.107.059,1.087.6,1.354a.64.64,0,0,0,.282.065,1.178,1.178,0,0,0,.672-.27c.247-.217,23.442-20.7,32.583-20.7s32.338,20.488,32.57,20.695a1.2,1.2,0,0,0,.686.278.63.63,0,0,0,.282-.065c.543-.265.6-1.247.6-1.358,0-.017.154-2.337.154-4.643a9.6,9.6,0,0,0-2.316-5.609" transform="translate(-33.917)" fill="#fff" fill-rule="evenodd"/>
    </g>
  </g>
</svg>
