<svg xmlns="http://www.w3.org/2000/svg" width="56" height="56" viewBox="0 0 56 56"><g transform="translate(-278 -416)"><circle cx="28" cy="28" r="28" transform="translate(278 416)" fill="transparent"/><path d="M20.883,13.7l-1.9-1.1a8.582,8.582,0,0,0,0-3.127l1.9-1.1a.538.538,0,0,0,.245-.624,11.1,11.1,0,0,0-2.437-4.214.536.536,0,0,0-.659-.1l-1.9,1.1a8.408,8.408,0,0,0-2.709-1.564V.789a.534.534,0,0,0-.419-.521,11.2,11.2,0,0,0-4.865,0,.534.534,0,0,0-.419.521V2.98A8.673,8.673,0,0,0,5.014,4.544l-1.893-1.1a.529.529,0,0,0-.659.1A11.029,11.029,0,0,0,.025,7.765a.533.533,0,0,0,.245.624l1.9,1.1a8.582,8.582,0,0,0,0,3.127l-1.9,1.1a.538.538,0,0,0-.245.624,11.1,11.1,0,0,0,2.437,4.214.536.536,0,0,0,.659.1l1.9-1.1a8.408,8.408,0,0,0,2.709,1.564v2.192a.534.534,0,0,0,.419.521,11.2,11.2,0,0,0,4.865,0,.534.534,0,0,0,.419-.521V19.117a8.673,8.673,0,0,0,2.709-1.564l1.9,1.1a.529.529,0,0,0,.659-.1,11.029,11.029,0,0,0,2.437-4.214.55.55,0,0,0-.249-.628Zm-10.309.9a3.564,3.564,0,1,1,3.564-3.564A3.569,3.569,0,0,1,10.574,14.608Z" transform="translate(289.334 438.39) rotate(9)" fill="#fff"/><path d="M20.883,13.7l-1.9-1.1a8.582,8.582,0,0,0,0-3.127l1.9-1.1a.538.538,0,0,0,.245-.624,11.1,11.1,0,0,0-2.437-4.214.536.536,0,0,0-.659-.1l-1.9,1.1a8.408,8.408,0,0,0-2.709-1.564V.789a.534.534,0,0,0-.419-.521,11.2,11.2,0,0,0-4.865,0,.534.534,0,0,0-.419.521V2.98A8.673,8.673,0,0,0,5.014,4.544l-1.893-1.1a.529.529,0,0,0-.659.1A11.029,11.029,0,0,0,.025,7.765a.533.533,0,0,0,.245.624l1.9,1.1a8.582,8.582,0,0,0,0,3.127l-1.9,1.1a.538.538,0,0,0-.245.624,11.1,11.1,0,0,0,2.437,4.214.536.536,0,0,0,.659.1l1.9-1.1a8.408,8.408,0,0,0,2.709,1.564v2.192a.534.534,0,0,0,.419.521,11.2,11.2,0,0,0,4.865,0,.534.534,0,0,0,.419-.521V19.117a8.673,8.673,0,0,0,2.709-1.564l1.9,1.1a.529.529,0,0,0,.659-.1,11.029,11.029,0,0,0,2.437-4.214.55.55,0,0,0-.249-.628Zm-10.309.9a3.564,3.564,0,1,1,3.564-3.564A3.569,3.569,0,0,1,10.574,14.608Z" transform="translate(305.229 424.476) rotate(9)" fill="#fff"/></g></svg>