<svg id="VW_Logo" data-name="VW Logo" xmlns="http://www.w3.org/2000/svg" width="110" height="110" viewBox="0 0 110 110">
  <circle id="Ellipse_1" data-name="Ellipse 1" cx="55" cy="55" r="55" fill="#003478"/>
  <g id="Ford" transform="translate(80.471 64.367)">
    <g id="Group_34" data-name="Group 34" transform="translate(-70.904 -26.821)">
      <path id="Path_28" data-name="Path 28" d="M46.158,0C20.653,0,0,7.824,0,17.467S20.653,34.908,46.158,34.908c25.472,0,46.126-7.8,46.126-17.441S71.631,0,46.158,0Zm0,33.121c-24.462,0-44.345-6.962-44.345-15.654C1.814,8.808,21.7,1.755,46.158,1.755c24.52,0,44.371,7.053,44.371,15.712C90.529,26.159,70.679,33.121,46.158,33.121Z" fill="#fff" fill-rule="evenodd"/>
      <path id="Path_29" data-name="Path 29" d="M88.833,27.694c-.123,0-.33.272-.446.421-.57.6-2.921,3.031-4.2,3.1.266,0-.447.149-.5-.421a.111.111,0,0,1-.007-.046,2.657,2.657,0,0,1,.389-1l6.373-11.276H88.088L84.247,24.96a2.733,2.733,0,0,0-2.5-2.027c-2.915-.026-4.048,1.969-6.068,3.873a3.885,3.885,0,0,1-2.947,1.249A1.485,1.485,0,0,1,71.21,26.3c.123-.777.389-1.166.959-1.373A1.574,1.574,0,0,0,73.8,26.12a1.718,1.718,0,0,0,1.58-1.7,1.539,1.539,0,0,0-1.606-1.548c-1.108-.059-1.937.446-3.128,1.82a1.694,1.694,0,0,0-1.937-1.969,1.474,1.474,0,0,0-.713.123c-1.218.382-2.8,2.344-4.048,3.866a4.584,4.584,0,0,0,.059-.894,4,4,0,0,0-.92-2.591.442.442,0,0,0-.357-.116.755.755,0,0,0-.712.829,2.869,2.869,0,0,1,.68,1.762,6.7,6.7,0,0,1-.506,2.526c-1.133,1.937-2.558,3.186-4.281,2.914a1.98,1.98,0,0,1-1.373-2.435,6.513,6.513,0,0,1,1.011-2.5,5.657,5.657,0,0,1,3.75-2.319.55.55,0,0,0-.149-.538.61.61,0,0,0-.621-.33c-2.533.09-4.074,1.9-4.974,3.691-.323.622-.8,1.516-1.069,2.086a3.872,3.872,0,0,1-1.341,1.483c-.564.447-.744.6-.829.57a1.277,1.277,0,0,0,.447.738c.084.065.382-.116.5-.175,1.393-.8,1.548-1.192,1.548-1.192a3.138,3.138,0,0,0,3.3,2.533c2.17,0,4.165-1.969,5.324-3.692a33.779,33.779,0,0,1,2.889-3.6,3.264,3.264,0,0,1,1.755-1.043.585.585,0,0,1,.564.713,7.278,7.278,0,0,1-.771,1.969L64.636,32.61h2.533c1.457-2.74,1.515-2.83,2.947-5.447a2.331,2.331,0,0,0,2.409,2.053,4.917,4.917,0,0,0,2.617-.447A3.451,3.451,0,0,0,75.316,31a2.421,2.421,0,0,0,2.358,1.58,7.187,7.187,0,0,0,3.983-1.218c.148.862.569,1.308,1.671,1.308,2.228-.058,4.19-2.351,5.382-3.84a2.835,2.835,0,0,0,.48-.829C89.189,27.817,88.95,27.694,88.833,27.694Zm-5.867-.713a16.828,16.828,0,0,1-2.053,2.74c-1.846,1.872-3.031,1.25-3.3,1.043a2.1,2.1,0,0,1-.356-1.7,6.4,6.4,0,0,1,1.192-2.649c1.069-1.308,2.384-2.2,3.426-2.085A1.178,1.178,0,0,1,83,25.595a2.852,2.852,0,0,1-.363,1.3Z" transform="translate(-18.271 -6.451)" fill="#fff" fill-rule="evenodd"/>
      <path id="Path_30" data-name="Path 30" d="M72.907,10.688c0,.952-3.329,2.766-6.16,2.766-4.158,0-8.491-1.885-10.732-2.494a.314.314,0,0,0-.187-.09.283.283,0,0,0-.123.013.155.155,0,0,0-.059-.013,28.891,28.891,0,0,0-6.01-.985c-5.745,0-8.3,2.474-8.187,4.734a1.455,1.455,0,0,0,1.9,1.309A5.166,5.166,0,0,0,46.632,13.6a.317.317,0,0,1,.415-.175.357.357,0,0,1,.123.357c-.149,1.159-1.937,4.371-5.032,4.371a3.021,3.021,0,0,1-2.856-3.18c.033-2.947,3.038-5.92,10.447-5.92a27.747,27.747,0,0,1,4.7.415,76.131,76.131,0,0,0,11.01,1.25,34.306,34.306,0,0,0,4.941-.182,10.862,10.862,0,0,1,1.93-.323C72.907,10.216,72.907,10.455,72.907,10.688Z" transform="translate(-13.718 -3.163)" fill="#fff" fill-rule="evenodd"/>
      <path id="Path_31" data-name="Path 31" d="M54.368,16.312a1.047,1.047,0,0,0-.9-1.01c-.946-.149-1.7.621-1.781,1.9a2.969,2.969,0,0,0,.116.713,36.789,36.789,0,0,1-3.866.447A18.421,18.421,0,0,1,52.755,12.8a2.917,2.917,0,0,0,.447-.479.318.318,0,0,0-.078-.383c-.1-.032-.213-.058-.31-.077-.914.195-4.165,2.707-6.723,6.625-.687.084-3.542.324-4.494,1.4a1.022,1.022,0,0,0-.182.382c.064.239.239.356.511.149.6-.68,3.005-.952,3.569-.978-3.51,4.935-6.755,8.179-9.644,8.179a3.205,3.205,0,0,1-.92-.058,2.628,2.628,0,0,1-1.846-2.591,4.288,4.288,0,0,1,2.2-3.335c.266-.116.389-.266.389-.382,0-.182-.123-.3-.446-.3A5.242,5.242,0,0,0,31,25.748a4.7,4.7,0,0,0,4.941,4.728c3.627,0,5.473-1.574,11.4-11.159,2.351-.233,3.51-.389,4.7-.6a1.437,1.437,0,0,0,1.25.862c.149.033.116-.116.208-.447-.389-.026-.836-.292-.836-.621a5.709,5.709,0,0,0,.926-.6A2.636,2.636,0,0,0,54.368,16.312ZM52.522,17.86a1.859,1.859,0,0,1,0-1.16.942.942,0,0,1,.829-.744c.213-.033.3.174.33.356a1.568,1.568,0,0,1-.421,1.069C52.814,17.892,52.522,17.86,52.522,17.86Z" transform="translate(-10.826 -4.143)" fill="#fff" fill-rule="evenodd"/>
      <path id="Path_32" data-name="Path 32" d="M64.83,11.932c-.1-.032-.213-.058-.31-.077a.283.283,0,0,1,.123-.013A.314.314,0,0,1,64.83,11.932Z" transform="translate(-22.532 -4.135)" fill="#fff" fill-rule="evenodd"/>
      <path id="Path_33" data-name="Path 33" d="M65.181,18.507a1.568,1.568,0,0,1-.421,1.069c-.446.512-.738.48-.738.48a1.859,1.859,0,0,1,0-1.16.942.942,0,0,1,.829-.744C65.064,18.119,65.149,18.326,65.181,18.507Z" transform="translate(-22.326 -6.338)" fill="#fff" fill-rule="evenodd"/>
    </g>
  </g>
</svg>
