<svg xmlns="http://www.w3.org/2000/svg" width="56" height="56" viewBox="0 0 56 56"><g transform="translate(-278 -416)"><path d="M28,0A28,28,0,1,1,0,28,28,28,0,0,1,28,0Z" transform="translate(278 416)" fill="none"/><path d="M.986,1.305,6.5.032A1.282,1.282,0,0,1,7.963.769L10.51,6.712A1.27,1.27,0,0,1,10.144,8.2L6.928,10.829a19.664,19.664,0,0,0,9.4,9.4l2.632-3.215a1.272,1.272,0,0,1,1.486-.366L26.39,19.2a1.289,1.289,0,0,1,.743,1.464l-1.273,5.518a1.273,1.273,0,0,1-1.242.987A24.616,24.616,0,0,1,0,2.547,1.272,1.272,0,0,1,.986,1.305Z" transform="translate(292.418 430.418)" fill="#fff"/></g></svg>