<svg id="VW_Logo" data-name="VW Logo" xmlns="http://www.w3.org/2000/svg" width="110" height="110" viewBox="0 0 110 110">
  <circle id="Ellipse_1" data-name="Ellipse 1" cx="55" cy="55" r="55" fill="#3e70b4"/>
  <g id="Hyundai" transform="translate(64.765 60.084)">
    <g id="Group_28" data-name="Group 28" transform="translate(-48.352 -23.871)">
      <path id="Path_6" data-name="Path 6" d="M42.5,0C19.029,0,0,9.4,0,20.981S19.029,41.964,42.5,41.964,85,32.568,85,20.981,65.972,0,42.5,0ZM38.469,4.669c4.851-1.714,19.262,0,24.86,2.689C65.122,9.076,55.341,14.6,43.7,16.99,27.047,20.347,34.96,7.506,38.469,4.669ZM9.876,29.53C6.216,26.921-.95,19.452,10.921,11.689A39.791,39.791,0,0,1,25.03,6.314c2.091-.45,3.584.074,1.718,1.643-3.956,4.107-12.169,17.691-12.914,20.679-.6,2.018-1.793,2.538-3.957.895Zm34.191,8.662c-7.017.744-22.62-1.568-22.919-3.582.3-4.856,24.786-12.919,29.191-8.439,1.867,3.509-1.718,11.8-6.272,12.021ZM79.754,24.079c-1.793,4.107-7.84,8.737-20.529,11.874-1.943.445-2.614-.748-1.346-1.869,2.091-1.268,12.169-18.139,13.44-21.5.745-1.718,2.164-1.044,3.061-.374,4.032,2.612,7.092,6.868,5.375,11.87Z" transform="translate(-3.383 -1.67)" fill="#fff" fill-rule="evenodd"/>
    </g>
  </g>
</svg>
