<svg xmlns="http://www.w3.org/2000/svg" xmlns:xlink="http://www.w3.org/1999/xlink" width="18" height="18" viewBox="0 0 18 18">
  <defs>
    <clipPath id="clip-path">
      <rect id="Rectangle_37" data-name="Rectangle 37" width="4.032" height="10.91" fill="#fff"/>
    </clipPath>
  </defs>
  <g id="Info_Icon" data-name="Info Icon" transform="translate(-4861.481 365.519)">
    <circle id="Ellipse_2" data-name="Ellipse 2" cx="9" cy="9" r="9" transform="translate(4861.481 -365.519)" fill="#0b01f5"/>
    <g id="Group_50" data-name="Group 50" transform="translate(4868.473 -362.143)">
      <g id="Group_49" data-name="Group 49" clip-path="url(#clip-path)">
        <path id="Path_96" data-name="Path 96" d="M3.18,307.011h.853V308.6H0v-1.589H.853a.2.2,0,0,0,.2-.2v-3.693a.2.2,0,0,0-.2-.2H.027v-1.589h2.95v5.484a.2.2,0,0,0,.2.2" transform="translate(0 -297.69)" fill="#fff" fill-rule="evenodd"/>
        <path id="Path_97" data-name="Path 97" d="M38.844,0a1.331,1.331,0,1,1-1.331,1.331A1.331,1.331,0,0,1,38.844,0" transform="translate(-37.061)" fill="#fff" fill-rule="evenodd"/>
      </g>
    </g>
  </g>
</svg>
