<svg xmlns="http://www.w3.org/2000/svg" width="56" height="56" viewBox="0 0 56 56"><g transform="translate(-278 -416)"><circle cx="28" cy="28" r="28" transform="translate(278 416)" fill="none"/><path d="M29.58,3.39c-.346.066-14.862,2.884-15.171,2.943a.652.652,0,0,0-.6.589V24.587a2.029,2.029,0,0,1-.177.861,1.961,1.961,0,0,1-1.185.934c-.243.081-.574.155-.964.243-1.773.4-4.738,1.074-4.738,3.811a3.368,3.368,0,0,0,3.068,3.495,3.587,3.587,0,0,0,.522.052h0a9.081,9.081,0,0,0,3.767-.971,3.964,3.964,0,0,0,1.773-3.517V13.859a.584.584,0,0,1,.471-.574l11.183-2.259a.588.588,0,0,1,.706.574v9.631a2.109,2.109,0,0,1-.184.986,1.955,1.955,0,0,1-1.192.934c-.243.081-.647.155-1.037.243-1.773.4-4.738,1.067-4.738,3.8a3.374,3.374,0,0,0,3.075,3.554,6.08,6.08,0,0,0,1.427-.066,8.435,8.435,0,0,0,2.685-.956A3.878,3.878,0,0,0,30.3,26.183V3.956A.583.583,0,0,0,29.58,3.39Z" transform="translate(285.475 425.321)" fill="#fff"/></g></svg>