<svg xmlns="http://www.w3.org/2000/svg" width="56" height="56" viewBox="0 0 56 56"><g transform="translate(-278 -416)"><circle cx="28" cy="28" r="28" transform="translate(278 416)" fill="none"/><path d="M20.852,3.375A17.477,17.477,0,1,0,38.329,20.852,17.474,17.474,0,0,0,20.852,3.375Zm10.7,6.781a15.007,15.007,0,0,1,1.9,2.311.308.308,0,0,1,.034.294l-1.21,3.47a.334.334,0,0,1-.176.193l-4.831,2.2a.338.338,0,0,1-.353-.05l-4.756-4a.345.345,0,0,1-.118-.26v-5.3a.336.336,0,0,1,.151-.277l3.227-2.193a.331.331,0,0,1,.294-.042A15.313,15.313,0,0,1,31.548,10.156ZM25.339,35.161a.31.31,0,0,1-.218.2,15.1,15.1,0,0,1-4.268.6,15.366,15.366,0,0,1-4.268-.6.348.348,0,0,1-.218-.2l-1.378-3.613A.353.353,0,0,1,15,31.271l1.874-3.554a.34.34,0,0,1,.294-.176h7.352a.33.33,0,0,1,.294.176l1.874,3.554a.353.353,0,0,1,.017.277ZM19.676,9.03v5.3a.345.345,0,0,1-.118.26l-4.764,3.991a.338.338,0,0,1-.353.05l-4.831-2.2a.331.331,0,0,1-.176-.193l-1.21-3.462a.329.329,0,0,1,.034-.294A15.233,15.233,0,0,1,16,6.534a.331.331,0,0,1,.294.042l3.227,2.193A.278.278,0,0,1,19.676,9.03ZM5.871,21.533,8.9,18.911a.335.335,0,0,1,.361-.05l4.4,2a.337.337,0,0,1,.185.227L15.08,25.9a.4.4,0,0,1-.025.244l-1.949,3.689a.327.327,0,0,1-.3.176l-3.865-.05a.351.351,0,0,1-.269-.134A15.017,15.017,0,0,1,5.753,21.81.368.368,0,0,1,5.871,21.533Zm22.72,8.293-1.941-3.68a.308.308,0,0,1-.025-.244l1.227-4.815a.337.337,0,0,1,.185-.227l4.4-2a.353.353,0,0,1,.361.05l3.033,2.622a.34.34,0,0,1,.118.277,14.973,14.973,0,0,1-2.916,8.016.327.327,0,0,1-.269.134l-3.874.05A.369.369,0,0,1,28.591,29.826Z" transform="translate(285.148 423.148)" fill="#fff"/></g></svg>