<svg id="VW_Logo" data-name="VW Logo" xmlns="http://www.w3.org/2000/svg" width="110" height="110" viewBox="0 0 110 110">
  <circle id="Ellipse_1" data-name="Ellipse 1" cx="55" cy="55" r="55" fill="#184664"/>
  <g id="Kia" transform="translate(121.544 70.493)">
    <g id="_3lAurM" data-name="3lAurM" transform="translate(-108.741 -25.501)">
      <g id="Group_30" data-name="Group 30">
        <path id="Path_9" data-name="Path 9" d="M40.49,1.776v.583q0,7.743.011,15.486a2.385,2.385,0,0,0,.251,1.061,1.507,1.507,0,0,0,1.512.663q6.165.007,12.329,0A3.306,3.306,0,0,0,56.477,19c1.318-.876,2.654-1.727,3.981-2.589q7.5-4.871,15-9.738a2.767,2.767,0,0,1,.492-.2,3.27,3.27,0,0,1,.087.532q.008,6.239.008,12.478a2.009,2.009,0,0,0,.1.449,2.166,2.166,0,0,0,.435-.147c2.178-1.3,4.329-2.643,6.536-3.89A3.355,3.355,0,0,0,85,12.617c-.06-3.626-.019-7.254-.02-10.881A1.388,1.388,0,0,0,83.47.2C81.527.2,79.583.2,77.64.2a2.626,2.626,0,0,0-1.466.452Q70.293,4.475,64.409,8.291q-6.1,3.96-12.194,7.923c-.829.539-1.658,1.079-2.492,1.61a.467.467,0,0,1-.331.068c-.05-.013-.061-.189-.079-.293a1.046,1.046,0,0,1,0-.185q0-5.478,0-10.955c0-1.584,0-3.169,0-4.754A1.377,1.377,0,0,0,48.274.258a3.174,3.174,0,0,0-.7-.055Q41.242.2,34.91.2a2.9,2.9,0,0,0-1.549.425q-2.49,1.51-4.99,3Q24.235,6.108,20.1,8.586q-5.341,3.209-10.681,6.422a3.681,3.681,0,0,1-.45.189v-.55q0-7.019,0-14.037a2.894,2.894,0,0,0,0-.3c-.034-.331-.142-.392-.43-.219Q4.921,2.261,1.314,4.435a2.575,2.575,0,0,0-1.3,2.316q-.023,5.7-.005,11.4A1.352,1.352,0,0,0,1.071,19.5a3.338,3.338,0,0,0,.736.068q3.974.008,7.947,0a3.138,3.138,0,0,0,1.666-.417q4.526-2.73,9.062-5.444c.463-.278.471-.283.843.09q2.6,2.6,5.2,5.2a1.654,1.654,0,0,0,1.183.528c1.187.02,2.375.04,3.562.046q2.414.011,4.828-.005a2.179,2.179,0,0,0,.515-.129,2.13,2.13,0,0,0-.268-.447q-3.1-3.119-6.218-6.225-1.352-1.351-2.7-2.7c-.273-.274-.258-.355.064-.562.052-.033.106-.064.159-.1Q33.828,5.69,40.015,1.974A4.068,4.068,0,0,1,40.49,1.776Z" transform="translate(0 0)" fill="#fff"/>
        <path id="Path_10" data-name="Path 10" d="M40.49,1.776a4.068,4.068,0,0,0-.475.2Q33.827,5.688,27.643,9.407c-.053.032-.107.063-.159.1-.322.207-.337.288-.064.562q1.349,1.354,2.7,2.7,3.111,3.11,6.218,6.225a2.13,2.13,0,0,1,.268.447,2.179,2.179,0,0,1-.515.129q-2.414.016-4.828.005c-1.187-.006-2.375-.026-3.562-.046A1.654,1.654,0,0,1,26.522,19q-2.591-2.606-5.2-5.2c-.372-.372-.381-.368-.843-.09q-4.531,2.724-9.062,5.444a3.138,3.138,0,0,1-1.666.417q-3.974,0-7.947,0a3.338,3.338,0,0,1-.736-.068A1.352,1.352,0,0,1,.005,18.152q-.01-5.7.005-11.4a2.575,2.575,0,0,1,1.3-2.316Q4.92,2.26,8.532.094c.288-.173.4-.113.43.219a2.894,2.894,0,0,1,0,.3q0,7.019,0,14.037v.55a3.681,3.681,0,0,0,.45-.189Q14.759,11.8,20.1,8.586,24.232,6.1,28.371,3.627q2.5-1.5,4.99-3A2.9,2.9,0,0,1,34.91.2Q41.242.206,47.574.2a3.174,3.174,0,0,1,.7.055A1.377,1.377,0,0,1,49.309,1.7c.006,1.584,0,3.169,0,4.754q0,5.477,0,10.955a1.046,1.046,0,0,0,0,.185c.018.1.029.28.079.293a.467.467,0,0,0,.331-.068c.834-.53,1.663-1.071,2.492-1.61q6.1-3.961,12.194-7.923Q70.291,4.471,76.174.653A2.626,2.626,0,0,1,77.64.2c1.943,0,3.887,0,5.83,0a1.388,1.388,0,0,1,1.51,1.531c0,3.627-.041,7.255.02,10.881A3.355,3.355,0,0,1,83.118,15.9c-2.207,1.248-4.358,2.592-6.536,3.89a2.166,2.166,0,0,1-.435.147,2.009,2.009,0,0,1-.1-.449q-.008-6.239-.008-12.478a3.27,3.27,0,0,0-.087-.532,2.767,2.767,0,0,0-.492.2q-7.5,4.864-15,9.738c-1.328.862-2.663,1.713-3.981,2.589a3.306,3.306,0,0,1-1.883.571q-6.165,0-12.329,0a1.507,1.507,0,0,1-1.512-.663,2.385,2.385,0,0,1-.251-1.061Q40.478,10.1,40.49,2.359Z" transform="translate(0 0)" fill="#fff"/>
      </g>
    </g>
  </g>
</svg>
