<svg id="VW_Logo" data-name="VW Logo" xmlns="http://www.w3.org/2000/svg" width="110" height="110" viewBox="0 0 110 110">
  <circle id="Ellipse_1" data-name="Ellipse 1" cx="55" cy="55" r="55" fill="#005026"/>
  <g id="Land_Rover" data-name="Land Rover" transform="translate(68.424 61.633)">
    <g id="Group_32" data-name="Group 32" transform="translate(-58.424 -30.633)">
      <path id="Path_13" data-name="Path 13" d="M28.067,32.275,20.2,34.857l-.87,2.58h6.927l.844-2.413H22.615l5.114-1.771Z" transform="translate(-4.441 -7.416)" fill="#fff" fill-rule="evenodd"/>
      <path id="Path_14" data-name="Path 14" d="M33.327,21.948c-.082.243-.73.183-.73.183H29.775s2.615-6.969,2.824-7.5c.33-.822.541-.87.587-.87H29.3c.481.23.055,1.14.055,1.14s-3.12,8.694-3.338,9.127-.382.49-.382.49h6.751Z" transform="translate(-5.89 -3.163)" fill="#fff" fill-rule="evenodd"/>
      <path id="Path_15" data-name="Path 15" d="M38.518,30.786h-4.49c.325.362.07,1.123.07,1.123l-3,8.59a3.311,3.311,0,0,1-.618,1.044h3.552c-.11,0-.11-.35-.11-.35l1.275-3.382s1.587,3.114,1.695,3.334a.574.574,0,0,1,.055.4h3.8c-.36,0-.734-.688-.734-.688l-1.89-3.394A3.847,3.847,0,0,0,41.6,34.843C42.907,30.678,38.518,30.786,38.518,30.786Zm-.013,3.689a1.916,1.916,0,0,1-1.835.947h-.688l.736-2.163s.4-.006.749-.006C39.085,33.254,38.505,34.475,38.505,34.475Z" transform="translate(-7.003 -7.074)" fill="#fff" fill-rule="evenodd"/>
      <path id="Path_16" data-name="Path 16" d="M38.885,24.521a1.051,1.051,0,0,1,.079-.44c.167-.314.6-1.072.6-1.072H43.07l.006.945a.815.815,0,0,1-.24.578h3.477a.741.741,0,0,1-.306-.573l-.437-9.452s-.018-.6.27-.732H42.39s.242.3-.22.978-6.354,9.416-6.354,9.416a.879.879,0,0,1-.415.352ZM43,17.434l.026,3.149H41.067Z" transform="translate(-8.134 -3.165)" fill="#fff" fill-rule="evenodd"/>
      <path id="Path_17" data-name="Path 17" d="M52.153,30.426c-3.465,0-5.724,2.63-6.309,5.9-.536,3,1.162,5.4,3.962,5.4,3.918,0,6.253-3.843,6.253-6.6C56.058,32.232,54.869,30.426,52.153,30.426Zm.515,5.989c-.562,2.248-1.637,2.952-2.615,2.771-1.329-.249-1.1-2.31-.886-3.261.471-2.081,1.628-3.081,2.5-2.976C51.948,32.984,53.517,33.012,52.667,36.415Z" transform="translate(-10.511 -6.991)" fill="#fff" fill-rule="evenodd"/>
      <path id="Path_18" data-name="Path 18" d="M53.14,23.841c.187-.491,1.875-5.081,1.875-5.081l.734,5.756h2.879L62.4,14.28s.156-.481.364-.481l-3.059-.009a1.185,1.185,0,0,1-.022.626c-.108.27-1.845,4.916-1.845,4.916l-.679-5.543H53.874a.709.709,0,0,1,.059.572l-3.483,9.562s-.217.594-.407.594h3.178A.8.8,0,0,1,53.14,23.841Z" transform="translate(-11.499 -3.168)" fill="#fff" fill-rule="evenodd"/>
      <path id="Path_19" data-name="Path 19" d="M71.661,30.836H67.494a.424.424,0,0,1,.073.615c-.255.4-3.958,5.94-3.958,5.94l.046-5.589s-.007-.9.351-.971l-3.666,0s.27.145.27.833v9.309s-.037.51-.23.615h2.911a1.076,1.076,0,0,1,.29-.58c.29-.363,6.337-8.474,6.337-8.474S71.3,30.836,71.661,30.836Z" transform="translate(-13.864 -7.084)" fill="#fff" fill-rule="evenodd"/>
      <path id="Path_20" data-name="Path 20" d="M64.6,23.709s-.218.7-.517.84l4.347,0a7.149,7.149,0,0,0,6.9-5.345s2.066-5.459-3.912-5.4H67.8s.27.433-.083,1.437S64.6,23.709,64.6,23.709ZM70.382,16.1H71.2s2.11-.126.6,3.558c-.919,2.241-2.288,2.4-3.029,2.4-.488,0-.5,0-.5,0Z" transform="translate(-14.723 -3.17)" fill="#fff" fill-rule="evenodd"/>
      <path id="Path_21" data-name="Path 21" d="M74.448,39.169l.652-1.738H77.49s.508-.035.617.11l.97-2.727c-.035.059-.18.226-.717.226H76.041l.69-1.919h2.931a.539.539,0,0,1,.543.253l.943-2.54H74.086s.255.224-.07,1.13-3.189,8.619-3.189,8.619-.505,1.013-.651,1.013h7.279l.868-2.569c-.013.015-.152.142-.8.142Z" transform="translate(-16.124 -7.085)" fill="#fff" fill-rule="evenodd"/>
      <path id="Path_22" data-name="Path 22" d="M89.4,19.13H82.477l-.844,2.411h4.483L81,23.312l-.338.978,7.87-2.58Z" transform="translate(-18.534 -4.396)" fill="#fff" fill-rule="evenodd"/>
      <path id="Path_23" data-name="Path 23" d="M89.424,30.837H84.966c.328.363.075,1.123.075,1.123s-2.9,8-3.123,8.619a2.791,2.791,0,0,1-.635,1.011l3.7,0c-.263,0-.076-.659-.076-.659l1.136-3.072s1.531,3.116,1.639,3.334a.571.571,0,0,1,.055.4h3.932c-.363,0-.76-.688-.76-.688l-1.89-3.393a3.715,3.715,0,0,0,3.439-2.525C93.845,30.625,89.424,30.837,89.424,30.837Zm-.11,3.694c-.407,1.041-1.738.943-1.738.943h-.688l.726-2.138H88.6S89.8,33.3,89.314,34.531Z" transform="translate(-18.677 -7.085)" fill="#fff" fill-rule="evenodd"/>
      <path id="Path_24" data-name="Path 24" d="M46.038,4.693c-22.9,0-41.462,8.938-41.462,19.964S23.139,44.617,46.038,44.617,87.5,35.682,87.5,24.657,68.935,4.693,46.038,4.693Zm0,38.851c-22.306,0-40.387-8.456-40.387-18.888S23.732,5.768,46.038,5.768s40.385,8.456,40.385,18.888S68.342,43.544,46.038,43.544Z" transform="translate(-1.051 -1.078)" fill="#fff" fill-rule="evenodd"/>
      <path id="Path_25" data-name="Path 25" d="M45,0C20.148,0,0,10.564,0,23.6S20.148,47.189,45,47.189,90,36.625,90,23.6,69.851,0,45,0Zm-.015,45.246c-23.833,0-43.154-9.7-43.154-21.668S21.154,1.909,44.987,1.909s43.152,9.7,43.152,21.669S68.818,45.246,44.987,45.246Z" transform="translate(0 0)" fill="#fff" fill-rule="evenodd"/>
    </g>
  </g>
</svg>
