<svg id="VW_Logo" data-name="VW Logo" xmlns="http://www.w3.org/2000/svg" width="110" height="110" viewBox="0 0 110 110">
  <circle id="Ellipse_1" data-name="Ellipse 1" cx="55" cy="55" r="55" fill="#00a3ed"/>
  <g id="Mercedes" transform="translate(60.997 60.997)">
    <path id="Path_7" data-name="Path 7" d="M35,0A35,35,0,1,0,70,35,35,35,0,0,0,35,0ZM6.353,18.548A33.136,33.136,0,0,1,34.615,1.985l-4.527,30L6.171,51.308A32.991,32.991,0,0,1,6.353,18.548ZM35.131,68.188A33.005,33.005,0,0,1,6.594,52.049L35.008,40.288,63.547,51.866A33.072,33.072,0,0,1,35.131,68.188Zm4.648-35.809L35.465,1.987A33.135,33.135,0,0,1,63.971,51.1Z" transform="translate(-40.996 -40.996)" fill="#fff" fill-rule="evenodd"/>
  </g>
</svg>
