<svg id="VW_Logo" data-name="VW Logo" xmlns="http://www.w3.org/2000/svg" xmlns:xlink="http://www.w3.org/1999/xlink" width="110" height="110" viewBox="0 0 110 110">
  <defs>
    <clipPath id="clip-path">
      <rect id="Rectangle_36" data-name="Rectangle 36" width="93.791" height="41.126" fill="none"/>
    </clipPath>
  </defs>
  <circle id="Ellipse_1" data-name="Ellipse 1" cx="55" cy="55" r="55" fill="#8bc322"/>
  <g id="Group_27" data-name="Group 27" transform="translate(8 34)">
    <g id="Group_29" data-name="Group 29" clip-path="url(#clip-path)">
      <path id="Path_8" data-name="Path 8" d="M46.9,0A20.563,20.563,0,0,0,29.564,9.5H0l2.943,2.943H28.028a20.564,20.564,0,0,0-1.13,3.429H6.372l2.907,2.907H26.423q-.084.889-.091,1.783.008.824.082,1.646H12.708l2.907,2.907H26.861a20.573,20.573,0,0,0,1.085,3.429h-8.9l2.942,2.944H29.5a20.512,20.512,0,0,0,34.783,0H71.8l2.944-2.944h-8.9a20.571,20.571,0,0,0,1.085-3.429H78.175l2.907-2.907H67.376q.074-.822.082-1.647-.007-.893-.091-1.783H84.511l2.907-2.907H66.891a20.562,20.562,0,0,0-1.129-3.429H90.847L93.791,9.5H64.227A20.564,20.564,0,0,0,46.9,0Zm0,2.788A17.776,17.776,0,1,1,29.119,20.564h0A17.776,17.776,0,0,1,46.895,2.788ZM32.754,15.956V25.17h1.921V17.918L36.7,25.17h1.991l2.034-7.253V25.17h1.921V15.956h-3.1l-1.838,6.286L35.85,15.956Zm11.9,0V25.17h2.068V15.956Zm4.053,0V25.17H50.63V19.162l4.13,6.008h2.076V15.956H54.915V22.11l-4.194-6.154Zm10.259,0V25.17h2.069V15.956Z" fill="#fff"/>
    </g>
  </g>
</svg>
