<svg id="VW_Logo" data-name="VW Logo" xmlns="http://www.w3.org/2000/svg" width="110" height="110" viewBox="0 0 110 110">
  <circle id="Ellipse_1" data-name="Ellipse 1" cx="55" cy="55" r="55" fill="#dc0025"/>
  <g id="Nissan_-_New" data-name="Nissan - New" transform="translate(76.025 72.733)">
    <path id="Path_5" data-name="Path 5" d="M48.753,37.8a3.633,3.633,0,0,1-.448.016H39.739v1.992h8.715c.067,0,.581,0,.681-.016a2.843,2.843,0,0,0,2.59-2.938,2.8,2.8,0,0,0-2.457-2.9,6.464,6.464,0,0,0-.7-.034H42.877a2.917,2.917,0,0,1-.631-.049.835.835,0,0,1-.614-.847.851.851,0,0,1,.631-.83,2.38,2.38,0,0,1,.6-.049h8.217V30.178H42.727a5.491,5.491,0,0,0-.83.05,2.848,2.848,0,0,0-.033,5.627c.3.033.714.033.9.033H48.3a2.844,2.844,0,0,1,.4.016.915.915,0,0,1,.847.963A.929.929,0,0,1,48.753,37.8Zm-16.234,0a3.5,3.5,0,0,1-.432.016H23.5v1.992H32.22c.066,0,.581,0,.681-.016a2.842,2.842,0,0,0,2.589-2.938,2.8,2.8,0,0,0-2.457-2.9,6.476,6.476,0,0,0-.7-.034H26.642a2.911,2.911,0,0,1-.631-.049.835.835,0,0,1-.614-.847.851.851,0,0,1,.631-.83,2.389,2.389,0,0,1,.6-.049h8.217V30.178H26.493a5.491,5.491,0,0,0-.83.05,2.848,2.848,0,0,0-.033,5.627c.3.033.714.033.9.033H32.07a2.844,2.844,0,0,1,.4.016.956.956,0,0,1,.049,1.892ZM16.882,30.111H19.04v9.744H16.882Zm-14.11,0H0v9.744H2.158v-7.3l7.237,7.3h2.723V30.111H9.96v7.271ZM71.56,39.856h2.158v-7.3l7.221,7.3h2.722V30.111H81.52v7.271l-7.188-7.271H71.56ZM60.323,30.111l-6.075,9.744H56.87l1.079-1.743h7.088l1.079,1.743h2.606l-6.075-9.744Zm3.6,6.158H59.061l2.44-3.917ZM12,24.584a31.594,31.594,0,0,1,59.692,0l.033.1h9.512V23.538l-3.95-.465c-2.441-.282-2.955-1.361-3.619-2.722l-.166-.332a35.025,35.025,0,0,0-63.31.033l-.166.332c-.664,1.361-1.179,2.44-3.619,2.723l-3.951.465v1.145h9.5ZM71.726,45.3l-.033.1A31.6,31.6,0,0,1,12,45.383l-.033-.1H2.474v1.146l3.95.465c2.44.282,2.955,1.361,3.619,2.722l.166.332a35.018,35.018,0,0,0,63.31.016l.166-.332c.664-1.361,1.179-2.441,3.619-2.723l3.95-.465V45.3Z" transform="translate(-63.025 -52.733)" fill="#fff"/>
  </g>
</svg>
