<svg xmlns="http://www.w3.org/2000/svg" width="56" height="56" viewBox="0 0 56 56"><g transform="translate(-278 -416)"><circle cx="28" cy="28" r="28" transform="translate(278 416)" fill="transparent"/><path d="M20.355.181,18.174,2.726,15.084.181a.9.9,0,0,0-1.09,0L10.9,2.726,7.815.181a.9.9,0,0,0-1.09,0L3.635,2.726,1.454.181A.908.908,0,0,0,0,.908V28.169a.908.908,0,0,0,1.454.727l2.181-2.544L6.724,28.9a.9.9,0,0,0,1.09,0l3.09-2.544,3.09,2.544a.9.9,0,0,0,1.09,0l3.09-2.544L20.355,28.9a.909.909,0,0,0,1.454-.727V.908A.908.908,0,0,0,20.355.181ZM18.174,20.445a.456.456,0,0,1-.454.454H4.089a.456.456,0,0,1-.454-.454v-.909a.456.456,0,0,1,.454-.454h13.63a.456.456,0,0,1,.454.454Zm0-5.452a.456.456,0,0,1-.454.454H4.089a.456.456,0,0,1-.454-.454v-.909a.456.456,0,0,1,.454-.454h13.63a.456.456,0,0,1,.454.454Zm0-5.452a.456.456,0,0,1-.454.454H4.089a.456.456,0,0,1-.454-.454V8.632a.456.456,0,0,1,.454-.454h13.63a.456.456,0,0,1,.454.454Z" transform="translate(295.096 429.461)" fill="#fff"/></g></svg>