<svg id="VW_Logo" data-name="VW Logo" xmlns="http://www.w3.org/2000/svg" width="110" height="110" viewBox="0 0 110 110">
  <circle id="Ellipse_1" data-name="Ellipse 1" cx="55" cy="55" r="55" fill="#00b2ff"/>
  <g id="Peugeot_New" data-name="Peugeot New" transform="translate(225.27 242.029)">
    <path id="IZFgW1.tif" d="M67.9,3.438c-.013-.3-.1-.39-.382-.433-1.436-.222-2.869-.465-4.3-.7-2.534-.412-5.08-.751-7.632-1.05Q52.618.911,49.637.663C47.057.447,44.473.277,41.885.17c-1.2-.048-2.4-.085-3.6-.127A6.154,6.154,0,0,1,37.153,0H30.006c-.035.088-.113.052-.172.053-2.353.045-4.7.153-7.052.3Q19.134.575,15.5.945q-3.269.327-6.527.766c-2.374.32-4.744.692-7.105,1.1-.447.077-.893.16-1.341.22-.195.025-.258.092-.263.295C.222,4.742.163,6.159.118,7.575c-.027.85-.04,1.7-.065,2.551,0,.067.043.155-.053.2v7.432a5.107,5.107,0,0,1,.043,1.021c0,.075.012.15.013.225q.08,3.149.357,6.285a83.711,83.711,0,0,0,1.17,8.441A61.529,61.529,0,0,0,4.944,45.248,53.526,53.526,0,0,0,20.322,66.3a56.871,56.871,0,0,0,12.884,8.135,1.84,1.84,0,0,0,1.738,0A55.826,55.826,0,0,0,55.465,58.491C61.932,50.43,65.486,41.132,67.044,31q.455-2.942.7-5.909c.153-1.808.312-3.617.31-5.434C68.058,14.25,68.148,8.843,67.9,3.438Zm-1.793,13.97c-.04,2.288-.135,4.574-.322,6.853-.227,2.749-.563,5.485-1.058,8.2a62.294,62.294,0,0,1-2.669,10.046A51.657,51.657,0,0,1,45.284,65.726a53.282,53.282,0,0,1-10.962,6.748.508.508,0,0,1-.477.007,53.448,53.448,0,0,1-22.716-19.7,52.03,52.03,0,0,1-6.42-14.622,71.028,71.028,0,0,1-1.883-9.516A105.97,105.97,0,0,1,2.02,14.758c0-3.223.075-6.445.188-9.668.007-.17.058-.225.215-.248,1.613-.25,3.224-.52,4.839-.753q2.482-.36,4.971-.66c1.548-.183,3.1-.328,4.651-.485q2.552-.255,5.112-.407c1.633-.095,3.264-.19,4.9-.26q3.582-.155,7.172-.135c3.279-.017,6.558.078,9.833.253q4.544.242,9.07.708c3.073.313,6.135.708,9.19,1.161,1.185.177,2.366.382,3.551.565.2.03.228.128.233.3C66.083,9.223,66.181,13.314,66.111,17.408ZM64.9,14.027c.013-2.451-.067-5.087-.143-7.723-.012-.4-.017-.395-.413-.457-1.976-.312-3.954-.613-5.939-.875q-3.344-.442-6.7-.766-3.514-.335-7.037-.538Q39.3,3.353,33.93,3.356c-3.536,0-7.068.115-10.6.322q-3.212.187-6.417.485Q13.5,4.48,10.1,4.929q-3.244.427-6.472.951c-.2.032-.228.107-.233.285-.04,1.928-.1,3.854-.135,5.782a109.864,109.864,0,0,0,.926,17.619A66.366,66.366,0,0,0,6.41,39.612,50.321,50.321,0,0,0,18.4,60.043,52.419,52.419,0,0,0,33.894,71.152a.408.408,0,0,0,.392-.01c1.116-.528,2.214-1.091,3.291-1.7A52.374,52.374,0,0,0,52.358,57.125a50.484,50.484,0,0,0,9.468-17.784,73.71,73.71,0,0,0,2.833-16.4C64.858,20.037,64.918,17.126,64.9,14.027ZM46.689,9.549a.885.885,0,0,1,.955-.99,23.548,23.548,0,0,1,2.741.148,10.933,10.933,0,0,1,1.38.14,1.186,1.186,0,0,1,1.088,1.293c.01.662.008,1.323,0,1.985-.012.786-.313,1.093-1.108,1.1s-1.563-.1-2.346-.152c-.555-.035-1.111-.075-1.663-.147a1.066,1.066,0,0,1-1.05-1.2c-.007-.35,0-.7,0-1.05h0C46.686,10.306,46.676,9.928,46.689,9.549Zm-7.61-1.206c0-.172.037-.225.218-.217q2.634.112,5.267.207c.133,0,.195.02.2.183.008.538.018.537-.515.515-1.388-.055-2.776-.1-4.162-.165-.2-.01-.243.052-.233.232a4.321,4.321,0,0,1,0,.623c-.017.2.065.25.255.257,1.236.035,2.474.082,3.711.128.488.018.375-.022.407.422.02.272-.073.328-.327.31-.518-.04-1.038-.05-1.558-.07-.745-.028-1.491-.05-2.236-.09-.2-.012-.267.04-.252.242a5.717,5.717,0,0,1,0,.736c-.01.172.042.23.217.233.688.017,1.378.043,2.068.072.791.032,1.585.075,2.378.1.192.005.253.055.248.253-.012.463,0,.468-.475.45-.783-.03-1.568-.068-2.351-.1v-.075c-.878,0-1.756,0-2.634,0-.17,0-.225-.04-.223-.22Q39.089,10.357,39.079,8.343Zm-7.895.77a.991.991,0,0,1,1.021-1c.951-.087,1.908-.032,2.861-.04.52,0,1.04.017,1.558.015.168,0,.252.02.247.227-.01.488,0,.488-.483.488l-3.884,0c-.448,0-.572.123-.572.568,0,.643,0,1.285,0,1.928,0,.363.153.513.517.515,1.238,0,2.476,0,3.714.007.173,0,.255-.028.24-.228a5.579,5.579,0,0,1,0-.765c.012-.183-.057-.215-.223-.213-.643.008-1.285-.007-1.928,0-.178,0-.22-.053-.218-.225,0-.5-.007-.508.5-.5.8.007,1.6.022,2.408.02.173,0,.225.045.223.222-.012.736-.013,1.475,0,2.211,0,.187-.062.212-.225.21-.746-.008-1.493,0-2,0-1.076-.038-1.918.032-2.758-.05-.667-.065-.966-.338-1-1A17.692,17.692,0,0,1,31.184,9.113Zm-7.768-.778c.537-.008.537-.018.537.5q0,1.335,0,2.666c0,.408.122.532.522.517q1.73-.06,3.456-.13c.41-.017.517-.133.518-.54,0-.983.008-1.965,0-2.948,0-.215.06-.27.267-.273.523-.008.523-.018.523.5,0,.86,0,1.72,0,2.579,0,.995-.34,1.355-1.331,1.386-.6.018-1.208,0-1.811,0a8.292,8.292,0,0,1-1.813.113A.982.982,0,0,1,23.2,11.587c-.007-1,0-2-.007-3.006C23.188,8.406,23.223,8.338,23.416,8.335Zm-1.36,14.4a1.211,1.211,0,0,1,.457-.487A29.45,29.45,0,0,0,26.379,19.3a4.969,4.969,0,0,0,.888-1.235,1.068,1.068,0,0,1,.9-.528,90.025,90.025,0,0,1,9.291-.223c1.3.032,2.606.093,3.906.207a3.8,3.8,0,0,1,1.251.423c2.329,1.075,4.576,2.311,6.8,3.578a3.288,3.288,0,0,1,.658.537c.8.786,1.6,1.58,2.4,2.371a1.538,1.538,0,0,1,.1.12,2.456,2.456,0,0,1-1.166-.412c-1.255-.84-2.574-1.57-3.887-2.314a4.93,4.93,0,0,0-2.2-.538c-.435-.028-.868-.052-1.3-.073a2.588,2.588,0,0,1-1.06-.267q-1.345-.662-2.733-1.223a2.566,2.566,0,0,0-1.046-.2c-1.833.055-3.666.095-5.5.208a3.455,3.455,0,0,1-.918-.113c1.015-.238,6.688-.81,8.933-.9a2.536,2.536,0,0,0-1.2-.38c-3.318-.063-6.633-.043-9.946.172a3.394,3.394,0,0,0-1.308.417c-2.279,1.153-4.507,2.4-6.738,3.646-.14.077-.282.15-.423.225a.093.093,0,0,1-.063.025.084.084,0,0,1-.02,0l-.02.022c-.007-.013-.017-.027-.025-.042l0,0s0,0,0,0C21.992,22.771,22.025,22.756,22.057,22.74Zm15.568,5.4q.38,1.8.755,3.6c.02.1.078.2-.007.3-.027-.02-.052-.04-.077-.062a.3.3,0,0,1-.027-.022,1.5,1.5,0,0,1-.212-.227.386.386,0,0,1-.023-.032,1.3,1.3,0,0,1-.1-.155.447.447,0,0,1-.03-.055,1.422,1.422,0,0,1-.067-.133l-.035-.078c-.01-.025-.022-.052-.032-.078-.065-.17-.118-.345-.17-.522-.022-.073-.043-.147-.065-.218-.262-.856-.518-1.713-.79-2.566a.613.613,0,0,1,.122-.628c.468-.57.9-1.163,1.336-1.76a.625.625,0,0,0,.053-.751c-.2-.367-.378-.7-.851-.773a1.018,1.018,0,0,0-.548.03c-1,.388-2.018.74-3,1.175a2.426,2.426,0,0,1-1.461.052c-.185-.03-.37-.078-.557-.1-.225-.027-.252-.127-.133-.3.005-.007.008-.017.013-.025.578-.953.262-.745,1.355-.988,1.456-.325,2.921-.595,4.387-.865a1.368,1.368,0,0,1,.7.16.975.975,0,0,1,.748.935c.027.28.108.555.163.833a1.076,1.076,0,0,1-.155.838c-.393.6-.773,1.208-1.17,1.8A.763.763,0,0,0,37.625,28.14ZM22.3,24.453c.13-.2.313-.357.442-.553a3.7,3.7,0,0,1,1.7-1.348c.966-.423,1.928-.853,2.914-1.228a3.3,3.3,0,0,1,1.3-.235c.33.012.662-.007.991-.013.182-.005.258.053.153.233q-.877,1.5-1.755,3.006a.68.68,0,0,1-.395.307c-1.223.38-2.438.788-3.674,1.125a14.394,14.394,0,0,1-2.874.227c-.253.017-.507,0-.775,0a.356.356,0,0,1,.3-.258A2.9,2.9,0,0,0,22.3,24.453Zm-.926,3c-.145.037-.295.057-.437.1-.258.083-.353,0-.295-.218.1-.961-.082-.71.826-.818a.2.2,0,0,1,.2.073A.612.612,0,0,1,21.375,27.455ZM15.6,11.1c0-.662.008-1.323,0-1.985,0-.192.063-.24.235-.252q2.629-.19,5.259-.393c.13-.01.178.013.185.16.025.535.032.54-.5.582-1.395.107-2.789.215-4.184.31-.19.013-.245.073-.227.25a3.394,3.394,0,0,1,0,.368c0,.5,0,.5.515.46,1.186-.092,2.374-.177,3.561-.273.212-.018.295.02.285.258-.02.457-.007.448-.475.482-1.235.087-2.469.187-3.7.273-.15.01-.19.058-.185.2a6.888,6.888,0,0,1,0,.765c-.015.207.053.253.252.237,1.1-.092,2.2-.172,3.308-.255.387-.028.773-.05,1.16-.083.145-.013.192.023.193.178.01.537.017.525-.523.565q-2.432.177-4.862.38c-.237.02-.3-.023-.295-.268C15.61,12.4,15.6,11.749,15.6,11.1Zm-6.89,1.826c.017.3,0,.6.008.906.007.172-.035.24-.223.265-.563.075-.562.087-.562-.462V11.9c0-.662,0-1.321,0-1.983,0-.167.042-.218.213-.237,1.406-.155,2.809-.335,4.217-.485,1.108-.117,1.466.243,1.5,1.353.03,1.048-.257,1.6-1.521,1.723-1.126.107-2.249.255-3.374.373C8.768,12.669,8.7,12.727,8.708,12.922ZM14.41,34.8c-.128.59-.273,1.175-.395,1.766-.037.178-.083.222-.248.127a1.585,1.585,0,0,1-.377-.295,19.031,19.031,0,0,1-1.325-1.625.45.45,0,0,1,.025-.653c.38-.408.721-.853,1.12-1.241a3.452,3.452,0,0,0,.72-1.643c-.292.148-.528.27-.633.553a1.442,1.442,0,0,1-.58.673c-.3.21-.592.44-.891.653-.095.067-.2.223-.3.157a.655.655,0,0,1-.347-.458.987.987,0,0,1,.273-.851,33.93,33.93,0,0,1,3.622-2.946c.06-.045.12-.092.183-.132a8.207,8.207,0,0,0,2.6-2.516,2.191,2.191,0,0,1,.678-.632c.995-.652,2.018-1.253,3.051-1.84.022-.013.042-.037.063-.025l.012.008c-.007-.017,0-.03.02-.038,0,0,.015,0,.023,0l-.038.038v0c.008.037-.01.057-.045.067a.776.776,0,0,1-.283.308c-.472.36-.94.728-1.42,1.08a.648.648,0,0,0-.283.463c-.055.412-.13.821-.17,1.235a.369.369,0,0,1-.272.35c-.432.163-.855.35-1.293.49a2.639,2.639,0,0,0-1.018.785c.513-.122,1.03-.227,1.536-.368a1,1,0,0,1,.813.062.842.842,0,0,0,.633.055q.947-.23,1.9-.453a2.414,2.414,0,0,0,.9-.452c.218-.165.442-.323.667-.488.065.068.018.128-.017.17a3.28,3.28,0,0,1-1.286,1.073q-2.819,1.127-5.684,2.136a1.2,1.2,0,0,0-.628.472l1.161.1.791.065a.646.646,0,0,1,.388.15,29.2,29.2,0,0,1,2.093,2.135c-.622.112-1.2.218-1.78.318q-1.757.3-3.5.692A.559.559,0,0,0,14.41,34.8Zm8.556,2.7a.021.021,0,0,1,.01,0c.007-.012.017-.023.023-.035,0,.012,0,.025.008.037l-.032,0,0,0c.03.033,0,.057-.018.083a19.886,19.886,0,0,1-1.483,2.14.661.661,0,0,1-.285.223,18.7,18.7,0,0,1-2,.633c.515-.422,1.026-.846,1.543-1.268q1.085-.885,2.174-1.766c.008-.037.03-.053.065-.045Zm-7.327.9c-.365-.428-.692-.813-1.021-1.2-.1-.118,0-.195.057-.268a2.064,2.064,0,0,1,1.28-.735C15.851,36.915,15.751,37.616,15.64,38.391ZM18.8,45.808c-.282.073-.41,0-.482-.283-.137-.53-.273-1.06-.387-1.595a9.672,9.672,0,0,0-.645-2.016,1.8,1.8,0,0,1-.14-.963c.027-.242.04-.485.062-.776.42.357.8.677,1.18,1.006a.517.517,0,0,0,.545.108q1.232-.372,2.444-.8a1.267,1.267,0,0,0,.583-.43,21.591,21.591,0,0,0,2.126-3.2.936.936,0,0,0-.527-1.39c-1.068-.39-2.14-.775-3.233-1.17a.905.905,0,0,1,.665-.06q1.8.44,3.6.888a1.561,1.561,0,0,1,.911,1.071.639.639,0,0,1-.1.375q-1.115,2.1-2.339,4.136a1.249,1.249,0,0,1-.71.568c-1.153.38-2.3.776-3.454,1.165-.35.12-.383.18-.32.538.1.593.207,1.19.312,1.785.058.32.153.385.468.315.58-.128,1.158-.26,1.758-.36-.267.237-.45.567-.818.675C19.8,45.533,19.3,45.674,18.8,45.808Zm2.384-1.13-.017,0,0-.012Zm7.54,16.193a82.877,82.877,0,0,1-7.183-8.65c-.06-.085-.11-.178-.175-.258a3.006,3.006,0,0,1-.588-2.554c.132-.79.173-1.595.3-2.388a2.332,2.332,0,0,1,.562-1.18,97.276,97.276,0,0,0,5.947-7.72c.5-.712.95-1.453,1.426-2.178a2.638,2.638,0,0,0,.407-1.913c-.088-.588-.165-1.178-.253-1.766-.047-.315.063-.62.033-.963a.4.4,0,0,1,.122.232,31.984,31.984,0,0,1,.81,3.119,1.511,1.511,0,0,1-.088.86C29,38.1,27.845,40.634,26.6,43.13a3.41,3.41,0,0,1-.685.9c-.895.883-1.755,1.806-2.7,2.631a2.621,2.621,0,0,0-.921,1.921c-.03.472-.078.941-.133,1.41a1.8,1.8,0,0,0,.225,1.116A30.333,30.333,0,0,0,24.6,54.421c1.663,2.239,3.406,4.411,5.274,6.485a7.5,7.5,0,0,0,1.858,1.556,1.192,1.192,0,0,1,.6.7A11.784,11.784,0,0,1,28.727,60.871Zm6.2,2.463a89.831,89.831,0,0,1-4.837-9.611,2.406,2.406,0,0,1-.057-1.6,90.665,90.665,0,0,1,2.946-9.141c.278-.76.583-1.51.88-2.263A.38.38,0,0,1,34,40.489a6.121,6.121,0,0,1,.1,2.593c-.815,3.336-1.443,6.712-1.926,10.114a5.558,5.558,0,0,0,.288,3.051c.295.692.53,1.41.813,2.108q.792,1.95,1.616,3.886a7.306,7.306,0,0,1,.275,1.41A.768.768,0,0,1,34.927,63.334ZM49.229,49.7a1.749,1.749,0,0,1-.668,1.01c-3.088,2.373-6.082,4.859-9.016,7.417a5.058,5.058,0,0,0-1.085,1.4c-.332.6-.667,1.2-1.031,1.851-.255-.6-.5-1.158-.726-1.718-.213-.523-.4-1.058-.623-1.578a1.485,1.485,0,0,1-.035-1.1c.483-1.47,1.091-2.889,1.7-4.311.37-.863.758-1.72,1.171-2.654a1.109,1.109,0,0,1-.042.608c-.525,1.721-1.025,3.451-1.41,5.212a4.352,4.352,0,0,0,.092,2.151q.172.612.348,1.225c.027-.01.055-.012.06-.023a6.725,6.725,0,0,1,1.84-2.229c2.573-2.356,5.222-4.622,7.928-6.823a1.383,1.383,0,0,0,.55-.945,46.094,46.094,0,0,0,.283-6.538c-.01-.68-.042-1.36-.072-2.04a3.1,3.1,0,0,0-.557-1.64,18.406,18.406,0,0,0-2.369-2.778,2.422,2.422,0,0,1-.745-1.385c-.288-1.588-.655-3.159-1.013-4.731-.017-.072-.022-.145-.037-.247a2.064,2.064,0,0,1,.823.458,62.982,62.982,0,0,1,4.972,5.96,4.262,4.262,0,0,1,.683,2.4A35.273,35.273,0,0,1,49.229,49.7Zm6.508-14.547c-.01.255-.038.51-.047.765a3.738,3.738,0,0,1-.448,1.616,40.318,40.318,0,0,1-3.959,6.454.257.257,0,0,0-.033.072l0,0-.008-.008-.01,0s0-.007-.005-.01l.015.015.01.005c-.1-.168-.025-.348-.017-.52.018-.443.063-.886.085-1.33a.393.393,0,0,1,.185-.353,4.823,4.823,0,0,0,1.66-1.995c.5-.965.988-1.928,1.42-2.923a3.722,3.722,0,0,0,.212-1.941c-.167-1.586-.362-3.168-.668-4.736a1.563,1.563,0,0,0-1.056-1.3c-.7-.263-1.388-.585-2.086-.868a3.268,3.268,0,0,1-.868-.523c-1.116-.933-2.256-1.835-3.406-2.726a1.47,1.47,0,0,0-1.376-.29c-.535.148-1.09.233-1.616.408a4.936,4.936,0,0,1-1.85.038c-.01-.112.08-.107.127-.128,1.323-.615,2.663-1.193,4.026-1.721a1.45,1.45,0,0,1,1.175.027,46.361,46.361,0,0,1,6.075,3.373c.548.352,1.073.736,1.613,1.1a.953.953,0,0,1,.417.645A29.358,29.358,0,0,1,55.737,35.149Zm4-24.776c-.618-.075-1.238-.14-1.855-.228-.2-.028-.235.042-.233.222.007,1.076-.005,2.154.01,3.231,0,.237-.073.258-.273.227-.512-.083-.512-.075-.512-.593V11.9c0-.52-.02-1.04.007-1.558.013-.27-.092-.332-.327-.352-.668-.055-1.335-.125-2-.2-.09-.01-.248.037-.263-.093a2.306,2.306,0,0,1,.02-.615c.01-.062.137-.015.207-.008q2,.21,4,.428c.5.055,1.01.135,1.516.182.182.017.208.085.208.245C60.233,10.434,60.239,10.433,59.733,10.373ZM22.092,22.79a.093.093,0,0,1-.063.025.084.084,0,0,1-.02,0c-.015-.008-.03-.013-.045-.02l0,0,0,0,0,0c.032-.015.065-.03.1-.047Zm-.421,1.1c-.02-.022-.016-.04.01-.051.006,0,.016,0,.023.005l-.038.038Zm-.049.06c-.012-.018-.023-.037-.035-.057.022-.013.042-.037.063-.025l.012.008s0,0,0,.005v0C21.675,23.919,21.657,23.939,21.622,23.949Zm16.751,8.086L38.411,32l-.036.037ZM22.973,37.5l.026-.04.009.037-.042,0Zm-.018.084c-.017-.013-.032-.027-.048-.038.008-.037.03-.053.065-.045h0C23,37.533,22.971,37.556,22.955,37.583Zm28.3,6.472-.021-.011s0-.006,0-.009l.022.023Zm-30.064.623-.016,0,0-.012Zm.771-21.89.049.023-.019.023-.029-.047Zm30.12-11.709c0,.34,0,.68,0,1.02,0,.3-.157.457-.46.435q-1.877-.132-3.754-.285a.417.417,0,0,1-.4-.46c0-.708-.007-1.416,0-2.125,0-.317.135-.437.468-.415.9.058,1.806.128,2.711.195.328.025.658.052.986.083a.44.44,0,0,1,.452.475C52.083,10.363,52.078,10.721,52.078,11.079Zm-38.989-.023a.434.434,0,0,1-.41.46c-1.273.152-2.548.292-3.821.44-.12.013-.148-.032-.147-.138,0-.225,0-.452,0-.678h.022c0-.263-.095-.588.027-.768s.472-.1.721-.128c1.05-.125,2.1-.242,3.148-.357a.377.377,0,0,1,.458.4Q13.1,10.673,13.089,11.056Z" transform="translate(-204.27 -221.029)" fill="#fff"/>
  </g>
</svg>
