<svg id="VW_Logo" data-name="VW Logo" xmlns="http://www.w3.org/2000/svg" width="110" height="110" viewBox="0 0 110 110">
  <circle id="Ellipse_1" data-name="Ellipse 1" cx="55" cy="55" r="55" fill="#f54f0e"/>
  <g id="Seat" transform="translate(66.956 65.857)">
    <path id="Path_26" data-name="Path 26" d="M19.831.158C31.1-.24,42.374.155,53.62.877a28.731,28.731,0,0,1,3.549.344,2.617,2.617,0,0,1,1.681.966,5.674,5.674,0,0,1,.431,2.039c.267,3.375.346,6.763.6,10.138a9.6,9.6,0,0,1-1.462-.031c-8.674-.449-17.355-.822-26.043-.833-4.5.013-9-.031-13.5.187a4.1,4.1,0,0,0-2.952,1.5c3.4.6,6.8,1.256,10.2,1.871,11.269,2.109,22.546,4.172,33.815,6.278-.01,2.137-.006,4.274,0,6.411-6.337-1.049-12.663-2.181-19-3.263C27.313,24.13,13.693,21.75.065,19.424c.026-2.372.128-4.743.177-7.117A31.238,31.238,0,0,1,.7,6.678,6.785,6.785,0,0,1,2.5,3.135c1.7-1.686,4.167-2.161,6.46-2.4C12.576.4,16.206.292,19.831.158ZM0,22.546q29.278,5.4,58.547,10.885a10.711,10.711,0,0,1,1.292.269l.049.112c-.107,3.2-.169,6.406-.284,9.608A12.252,12.252,0,0,1,58.3,49.2a7.473,7.473,0,0,1-5.129,3.17,69.05,69.05,0,0,1-8.984.758A339.626,339.626,0,0,1,5.477,52.5,14.837,14.837,0,0,1,2.4,52.129a2.337,2.337,0,0,1-1.346-.9A5.923,5.923,0,0,1,.643,49.2C.367,45.46.221,41.718.025,37.979c6.646.422,13.3.659,19.96.807,6.428.1,12.857.1,19.285.166a5.4,5.4,0,0,0,3.938-1.181c.154-.177.4-.34.377-.6-2.9-.435-5.778-.976-8.67-1.452Q17.464,32.732.007,29.755c-.014-2.4,0-4.806-.007-7.21Z" transform="translate(-41.923 -37.371)" fill="#fff"/>
  </g>
</svg>
