<svg id="VW_Logo" data-name="VW Logo" xmlns="http://www.w3.org/2000/svg" width="110" height="110" viewBox="0 0 110 110">
  <circle id="Ellipse_1" data-name="Ellipse 1" cx="55" cy="55" r="55" fill="#429e29"/>
  <g id="Skoda" transform="translate(121.898 121.46)">
    <g id="Group_35" data-name="Group 35" transform="translate(-101.38 -101.38)">
      <path id="Path_34" data-name="Path 34" d="M76.394,72.39c-.514.639.394,1.3-.121,1.819a1.423,1.423,0,0,1-1.543-.545,6.428,6.428,0,0,1,.121-1.395c.18-.787.846-2.724.846-2.724,2.272-8.12-.635-15.781-5.9-21.446-2-2.182-4.7-1.516-7.15-1.274-.756.124-2.12.518-1.395,1.788,0,0,1.878,1.788,2.517,2.455.666.666,1.906,2.178,1.906,2.178a1.13,1.13,0,0,1,.273.942.548.548,0,0,1-.877.242l-2.7-3s-2.272-3-4.391-2.786a9.3,9.3,0,0,0-4.06,2.33A11.772,11.772,0,0,0,51.5,53.734c-.908,1.726.908,1.364,3.756,2.876.97.518,2.455,1.243,2.513,2-.242,1.184-1.087.273-1.906-.148-.639-.335-5.424-3.88-6.939-.545a15.292,15.292,0,0,0-.908,2.151c-.483,1.605-.6,3.238.031,3.725.756.545,1.94.421,3.059.363a5.163,5.163,0,0,1,2.938.545c3.725,1.788,6.269,5.665,5.969,9.176a.359.359,0,0,1-.214.214c-1.15.3-2.272-.7-3.363-1.181-2.876-1.032-7.36-.366-7.54-.062-.394.849,1.937,2,2.451,3.121.514.908.7,2.178,1.485,2.969a5.333,5.333,0,0,0,2.544.059c.577-.152,1.574-1.757,2.12-1.788l18.75.031c.787.514-.394,1.181-.028,1.7,2.572.635,5.089-1.3,6.753-3.335C81.059,73.937,78.939,72.149,76.394,72.39Zm-6.542.273A2.862,2.862,0,1,1,72.7,69.818,2.844,2.844,0,0,1,69.852,72.663Z" transform="translate(-31.172 -30.472)" fill="#fff"/>
      <path id="Path_35" data-name="Path 35" d="M51.219,11.265c-.242-.967-1.239-1.212-2.12-1.726L46.89,13.63s2,1.485,2.969.725A3.422,3.422,0,0,0,51.219,11.265Zm0,0c-.242-.967-1.239-1.212-2.12-1.726L46.89,13.63s2,1.485,2.969.725A3.422,3.422,0,0,0,51.219,11.265Zm5.817,10.029,1.091,1.968,2.634-2.7ZM36.619,6.753A1.9,1.9,0,0,0,34.441,5.51a1.849,1.849,0,0,0-1.364,1.605c-.242,1.243-.394,2.727.6,3.7a2.31,2.31,0,0,0,2.575-.242C37.106,9.6,36.743,7.875,36.619,6.753Zm14.6,4.512c-.242-.967-1.239-1.212-2.12-1.726L46.89,13.63s2,1.485,2.969.725A3.422,3.422,0,0,0,51.219,11.265Zm5.817,10.029,1.091,1.968,2.634-2.7ZM51.219,11.265c-.242-.967-1.239-1.212-2.12-1.726L46.89,13.63s2,1.485,2.969.725A3.422,3.422,0,0,0,51.219,11.265Zm-14.6-4.512A1.9,1.9,0,0,0,34.441,5.51a1.849,1.849,0,0,0-1.364,1.605c-.242,1.243-.394,2.727.6,3.7a2.31,2.31,0,0,0,2.575-.242C37.106,9.6,36.743,7.875,36.619,6.753ZM57.036,21.294l1.091,1.968,2.634-2.7ZM36.619,6.753A1.9,1.9,0,0,0,34.441,5.51a1.849,1.849,0,0,0-1.364,1.605c-.242,1.243-.394,2.727.6,3.7a2.31,2.31,0,0,0,2.575-.242C37.106,9.6,36.743,7.875,36.619,6.753Zm14.6,4.512c-.242-.967-1.239-1.212-2.12-1.726L46.89,13.63s2,1.485,2.969.725A3.422,3.422,0,0,0,51.219,11.265Zm5.817,10.029,1.091,1.968,2.634-2.7ZM51.219,11.265c-.242-.967-1.239-1.212-2.12-1.726L46.89,13.63s2,1.485,2.969.725A3.422,3.422,0,0,0,51.219,11.265Zm-14.6-4.512A1.9,1.9,0,0,0,34.441,5.51a1.849,1.849,0,0,0-1.364,1.605c-.242,1.243-.394,2.727.6,3.7a2.31,2.31,0,0,0,2.575-.242C37.106,9.6,36.743,7.875,36.619,6.753ZM57.036,21.294l1.091,1.968,2.634-2.7ZM36.619,6.753A1.9,1.9,0,0,0,34.441,5.51a1.849,1.849,0,0,0-1.364,1.605c-.242,1.243-.394,2.727.6,3.7a2.31,2.31,0,0,0,2.575-.242C37.106,9.6,36.743,7.875,36.619,6.753Zm14.6,4.512c-.242-.967-1.239-1.212-2.12-1.726L46.89,13.63s2,1.485,2.969.725A3.422,3.422,0,0,0,51.219,11.265Zm5.817,10.029,1.091,1.968,2.634-2.7ZM36.619,6.753A1.9,1.9,0,0,0,34.441,5.51a1.849,1.849,0,0,0-1.364,1.605c-.242,1.243-.394,2.727.6,3.7a2.31,2.31,0,0,0,2.575-.242C37.106,9.6,36.743,7.875,36.619,6.753Zm14.6,4.512c-.242-.967-1.239-1.212-2.12-1.726L46.89,13.63s2,1.485,2.969.725A3.422,3.422,0,0,0,51.219,11.265Zm5.817,10.029,1.091,1.968,2.634-2.7ZM20.355,57.609l1.15.818.487-2.182ZM36.619,6.753A1.9,1.9,0,0,0,34.441,5.51a1.849,1.849,0,0,0-1.364,1.605c-.242,1.243-.394,2.727.6,3.7a2.31,2.31,0,0,0,2.575-.242C37.106,9.6,36.743,7.875,36.619,6.753Zm14.6,4.512c-.242-.967-1.239-1.212-2.12-1.726L46.89,13.63s2,1.485,2.969.725A3.422,3.422,0,0,0,51.219,11.265Zm5.817,10.029,1.091,1.968,2.634-2.7ZM20.355,57.609l1.15.818.487-2.182ZM36.619,6.753A1.9,1.9,0,0,0,34.441,5.51a1.849,1.849,0,0,0-1.364,1.605c-.242,1.243-.394,2.727.6,3.7a2.31,2.31,0,0,0,2.575-.242C37.106,9.6,36.743,7.875,36.619,6.753Zm14.6,4.512c-.242-.967-1.239-1.212-2.12-1.726L46.89,13.63s2,1.485,2.969.725A3.422,3.422,0,0,0,51.219,11.265Zm5.817,10.029,1.091,1.968,2.634-2.7ZM20.355,57.609l1.15.818.487-2.182ZM36.619,6.753A1.9,1.9,0,0,0,34.441,5.51a1.849,1.849,0,0,0-1.364,1.605c-.242,1.243-.394,2.727.6,3.7a2.31,2.31,0,0,0,2.575-.242C37.106,9.6,36.743,7.875,36.619,6.753Zm13.3,51.223c-.483-.728-.877-2.123-2.12-1.882a1.329,1.329,0,0,0-.97,1.85c.425.725.849,2.12,2.12,1.878A1.241,1.241,0,0,0,49.918,57.975Zm1.3-46.71c-.242-.967-1.239-1.212-2.12-1.726L46.89,13.63s2,1.485,2.969.725A3.422,3.422,0,0,0,51.219,11.265Zm5.817,10.029,1.091,1.968,2.634-2.7ZM49.918,57.975c-.483-.728-.877-2.123-2.12-1.882a1.329,1.329,0,0,0-.97,1.85c.425.725.849,2.12,2.12,1.878A1.241,1.241,0,0,0,49.918,57.975Zm-29.563-.366,1.15.818.487-2.182ZM36.619,6.753A1.9,1.9,0,0,0,34.441,5.51a1.849,1.849,0,0,0-1.364,1.605c-.242,1.243-.394,2.727.6,3.7a2.31,2.31,0,0,0,2.575-.242C37.106,9.6,36.743,7.875,36.619,6.753Zm14.6,4.512c-.242-.967-1.239-1.212-2.12-1.726L46.89,13.63s2,1.485,2.969.725A3.422,3.422,0,0,0,51.219,11.265Zm6.908,12,2.634-2.7-3.725.728ZM35.014,1.906A33.093,33.093,0,1,0,68.122,35.014,33.114,33.114,0,0,0,35.014,1.906ZM47.86,6.967c2,1.087,4.45,1.726,5.693,3.936a4.7,4.7,0,0,1-.728,4.06,3.9,3.9,0,0,1-3.211,1.878c-2-.362-3.694-1.605-5.662-2.817ZM30.35,6.359c.487-1.847,2.607-2.33,4.333-2.455a5.652,5.652,0,0,1,4.15,1.333,6.147,6.147,0,0,1,.756,4.454,3.554,3.554,0,0,1-2.6,2.607c-1.94.242-4.3.725-6.028-1.122A6,6,0,0,1,30.35,6.359ZM20.293,7.906l2.244-1.184c.242,1.243-.152,3-.183,4.364,1.453.908,3.273,1.512,4.726,2.544l-2.486,1.181-4.36-2.272Zm-2.33,1.453,4.543,6.663L20.6,17.445l-4.512-6.753Zm-11.148,9.9.97-.152-.456-.787c.214-.3.362-.639.577-.939l.545,1L7.543,20.02c-.273.031-.76.09-1.06.121C6.542,19.93,6.815,19.264,6.815,19.264Zm6.908,6.663-1.364-.849c1-.877,2.451-2.21,1.847-3.573-1.909-.939-2.213,2.575-4.181,2.575a2.579,2.579,0,0,1-2.361-1.605,6.592,6.592,0,0,1-.121-1,4.379,4.379,0,0,1,.6-2.089,9.99,9.99,0,0,1,.76-1.091l1.119-1.243,1.091.88c-.728.846-1.605,1.605-1.726,2.693,0,.366.331.818.756.76,1.212-1,2.455-3.09,4.181-2.607A2.412,2.412,0,0,1,16.3,20.383C16.81,22.6,15.2,24.474,13.723,25.927Zm8.721,36.167L20.6,60.91l.394-1.3-1.664-1.239-1.212.818c-.487-.425-.939-.849-1.395-1.274l4.816-3.573,2.486,1.485Zm9.149,1.788c-.849.635-2.21.269-3.09,0a2.114,2.114,0,0,1-1.636-2.334l.911-3.818,1.878.394-.728,4c-.031.635,1.15,1.06,1.574.39.152-.452.545-2.693.787-4.057.635.152,1.364.3,1.847.425C32.987,59.912,32.835,62.788,31.593,63.882Zm9.511.028-1.94.394-.877-4.422-1.516.363-.3-1.333L41.5,57.792l.362,1.333-1.633.394Zm10.026-4.119a4.2,4.2,0,0,1-3.452,1.485A3.581,3.581,0,0,1,45.1,58.942a2.71,2.71,0,0,1,.483-2.724,5.744,5.744,0,0,1,3.335-1.605c1.239,0,2.361,1.364,2.845,2.451A2.284,2.284,0,0,1,51.129,59.791ZM35.014,55.673A20.673,20.673,0,1,1,55.673,35.014,20.691,20.691,0,0,1,35.014,55.673Zm21.84-27.322L55.7,25.9,57.157,24.5l-1.636-2.814-1.847.421-1.395-1.968,8.876-1.485,1.757,2.938ZM51.219,11.265c-.242-.967-1.239-1.212-2.12-1.726L46.89,13.63s2,1.485,2.969.725A3.422,3.422,0,0,0,51.219,11.265ZM47.8,56.094a1.329,1.329,0,0,0-.97,1.85c.425.725.849,2.12,2.12,1.878a1.241,1.241,0,0,0,.97-1.847C49.434,57.247,49.041,55.852,47.8,56.094ZM36.257,10.571c.849-.97.487-2.7.362-3.818A1.9,1.9,0,0,0,34.441,5.51a1.849,1.849,0,0,0-1.364,1.605c-.242,1.243-.394,2.727.6,3.7A2.31,2.31,0,0,0,36.257,10.571ZM21.5,58.428l.487-2.182-1.636,1.364ZM57.036,21.294l1.091,1.968,2.634-2.7ZM51.219,11.265c-.242-.967-1.239-1.212-2.12-1.726L46.89,13.63s2,1.485,2.969.725A3.422,3.422,0,0,0,51.219,11.265Zm-14.6-4.512A1.9,1.9,0,0,0,34.441,5.51a1.849,1.849,0,0,0-1.364,1.605c-.242,1.243-.394,2.727.6,3.7a2.31,2.31,0,0,0,2.575-.242C37.106,9.6,36.743,7.875,36.619,6.753ZM20.355,57.609l1.15.818.487-2.182ZM57.036,21.294l1.091,1.968,2.634-2.7ZM51.219,11.265c-.242-.967-1.239-1.212-2.12-1.726L46.89,13.63s2,1.485,2.969.725A3.422,3.422,0,0,0,51.219,11.265Zm-14.6-4.512A1.9,1.9,0,0,0,34.441,5.51a1.849,1.849,0,0,0-1.364,1.605c-.242,1.243-.394,2.727.6,3.7a2.31,2.31,0,0,0,2.575-.242C37.106,9.6,36.743,7.875,36.619,6.753ZM20.355,57.609l1.15.818.487-2.182ZM57.036,21.294l1.091,1.968,2.634-2.7ZM51.219,11.265c-.242-.967-1.239-1.212-2.12-1.726L46.89,13.63s2,1.485,2.969.725A3.422,3.422,0,0,0,51.219,11.265Zm-14.6-4.512A1.9,1.9,0,0,0,34.441,5.51a1.849,1.849,0,0,0-1.364,1.605c-.242,1.243-.394,2.727.6,3.7a2.31,2.31,0,0,0,2.575-.242C37.106,9.6,36.743,7.875,36.619,6.753ZM20.355,57.609l1.15.818.487-2.182ZM57.036,21.294l1.091,1.968,2.634-2.7ZM51.219,11.265c-.242-.967-1.239-1.212-2.12-1.726L46.89,13.63s2,1.485,2.969.725A3.422,3.422,0,0,0,51.219,11.265Zm-14.6-4.512A1.9,1.9,0,0,0,34.441,5.51a1.849,1.849,0,0,0-1.364,1.605c-.242,1.243-.394,2.727.6,3.7a2.31,2.31,0,0,0,2.575-.242C37.106,9.6,36.743,7.875,36.619,6.753ZM20.355,57.609l1.15.818.487-2.182ZM57.036,21.294l1.091,1.968,2.634-2.7ZM20.355,57.609l1.15.818.487-2.182ZM36.619,6.753A1.9,1.9,0,0,0,34.441,5.51a1.849,1.849,0,0,0-1.364,1.605c-.242,1.243-.394,2.727.6,3.7a2.31,2.31,0,0,0,2.575-.242C37.106,9.6,36.743,7.875,36.619,6.753Zm14.6,4.512c-.242-.967-1.239-1.212-2.12-1.726L46.89,13.63s2,1.485,2.969.725A3.422,3.422,0,0,0,51.219,11.265Zm5.817,10.029,1.091,1.968,2.634-2.7ZM20.355,57.609l1.15.818.487-2.182ZM36.619,6.753A1.9,1.9,0,0,0,34.441,5.51a1.849,1.849,0,0,0-1.364,1.605c-.242,1.243-.394,2.727.6,3.7a2.31,2.31,0,0,0,2.575-.242C37.106,9.6,36.743,7.875,36.619,6.753Zm14.6,4.512c-.242-.967-1.239-1.212-2.12-1.726L46.89,13.63s2,1.485,2.969.725A3.422,3.422,0,0,0,51.219,11.265Zm5.817,10.029,1.091,1.968,2.634-2.7ZM20.355,57.609l1.15.818.487-2.182ZM36.619,6.753A1.9,1.9,0,0,0,34.441,5.51a1.849,1.849,0,0,0-1.364,1.605c-.242,1.243-.394,2.727.6,3.7a2.31,2.31,0,0,0,2.575-.242C37.106,9.6,36.743,7.875,36.619,6.753Zm13.3,51.223c-.483-.728-.877-2.123-2.12-1.882a1.329,1.329,0,0,0-.97,1.85c.425.725.849,2.12,2.12,1.878A1.241,1.241,0,0,0,49.918,57.975Zm1.3-46.71c-.242-.967-1.239-1.212-2.12-1.726L46.89,13.63s2,1.485,2.969.725A3.422,3.422,0,0,0,51.219,11.265Zm5.817,10.029,1.091,1.968,2.634-2.7ZM49.918,57.975c-.483-.728-.877-2.123-2.12-1.882a1.329,1.329,0,0,0-.97,1.85c.425.725.849,2.12,2.12,1.878A1.241,1.241,0,0,0,49.918,57.975Zm-29.563-.366,1.15.818.487-2.182ZM36.619,6.753A1.9,1.9,0,0,0,34.441,5.51a1.849,1.849,0,0,0-1.364,1.605c-.242,1.243-.394,2.727.6,3.7a2.31,2.31,0,0,0,2.575-.242C37.106,9.6,36.743,7.875,36.619,6.753Zm14.6,4.512c-.242-.967-1.239-1.212-2.12-1.726L46.89,13.63s2,1.485,2.969.725A3.422,3.422,0,0,0,51.219,11.265Zm6.908,12,2.634-2.7-3.725.728ZM35.014,1.906A33.093,33.093,0,1,0,68.122,35.014,33.114,33.114,0,0,0,35.014,1.906ZM47.86,6.967c2,1.087,4.45,1.726,5.693,3.936a4.7,4.7,0,0,1-.728,4.06,3.9,3.9,0,0,1-3.211,1.878c-2-.362-3.694-1.605-5.662-2.817ZM30.35,6.359c.487-1.847,2.607-2.33,4.333-2.455a5.652,5.652,0,0,1,4.15,1.333,6.147,6.147,0,0,1,.756,4.454,3.554,3.554,0,0,1-2.6,2.607c-1.94.242-4.3.725-6.028-1.122A6,6,0,0,1,30.35,6.359ZM20.293,7.906l2.244-1.184c.242,1.243-.152,3-.183,4.364,1.453.908,3.273,1.512,4.726,2.544l-2.486,1.181-4.36-2.272Zm-2.33,1.453,4.543,6.663L20.6,17.445l-4.512-6.753Zm-11.148,9.9.97-.152-.456-.787c.214-.3.362-.639.577-.939l.545,1L7.543,20.02c-.273.031-.76.09-1.06.121C6.542,19.93,6.815,19.264,6.815,19.264Zm6.908,6.663-1.364-.849c1-.877,2.451-2.21,1.847-3.573-1.909-.939-2.213,2.575-4.181,2.575a2.579,2.579,0,0,1-2.361-1.605,6.592,6.592,0,0,1-.121-1,4.379,4.379,0,0,1,.6-2.089,9.99,9.99,0,0,1,.76-1.091l1.119-1.243,1.091.88c-.728.846-1.605,1.605-1.726,2.693,0,.366.331.818.756.76,1.212-1,2.455-3.09,4.181-2.607A2.412,2.412,0,0,1,16.3,20.383C16.81,22.6,15.2,24.474,13.723,25.927Zm8.721,36.167L20.6,60.91l.394-1.3-1.664-1.239-1.212.818c-.487-.425-.939-.849-1.395-1.274l4.816-3.573,2.486,1.485Zm9.149,1.788c-.849.635-2.21.269-3.09,0a2.114,2.114,0,0,1-1.636-2.334l.911-3.818,1.878.394-.728,4c-.031.635,1.15,1.06,1.574.39.152-.452.545-2.693.787-4.057.635.152,1.364.3,1.847.425C32.987,59.912,32.835,62.788,31.593,63.882Zm9.511.028-1.94.394-.877-4.422-1.516.363-.3-1.333L41.5,57.792l.362,1.333-1.633.394Zm10.026-4.119a4.2,4.2,0,0,1-3.452,1.485A3.581,3.581,0,0,1,45.1,58.942a2.71,2.71,0,0,1,.483-2.724,5.744,5.744,0,0,1,3.335-1.605c1.239,0,2.361,1.364,2.845,2.451A2.284,2.284,0,0,1,51.129,59.791ZM35.014,55.673A20.673,20.673,0,1,1,55.673,35.014,20.691,20.691,0,0,1,35.014,55.673Zm21.84-27.322L55.7,25.9,57.157,24.5l-1.636-2.814-1.847.421-1.395-1.968,8.876-1.485,1.757,2.938ZM51.219,11.265c-.242-.967-1.239-1.212-2.12-1.726L46.89,13.63s2,1.485,2.969.725A3.422,3.422,0,0,0,51.219,11.265ZM47.8,56.094a1.329,1.329,0,0,0-.97,1.85c.425.725.849,2.12,2.12,1.878a1.241,1.241,0,0,0,.97-1.847C49.434,57.247,49.041,55.852,47.8,56.094ZM36.257,10.571c.849-.97.487-2.7.362-3.818A1.9,1.9,0,0,0,34.441,5.51a1.849,1.849,0,0,0-1.364,1.605c-.242,1.243-.394,2.727.6,3.7A2.31,2.31,0,0,0,36.257,10.571ZM21.5,58.428l.487-2.182-1.636,1.364ZM57.036,21.294l1.091,1.968,2.634-2.7ZM51.219,11.265c-.242-.967-1.239-1.212-2.12-1.726L46.89,13.63s2,1.485,2.969.725A3.422,3.422,0,0,0,51.219,11.265Zm-14.6-4.512A1.9,1.9,0,0,0,34.441,5.51a1.849,1.849,0,0,0-1.364,1.605c-.242,1.243-.394,2.727.6,3.7a2.31,2.31,0,0,0,2.575-.242C37.106,9.6,36.743,7.875,36.619,6.753ZM20.355,57.609l1.15.818.487-2.182ZM57.036,21.294l1.091,1.968,2.634-2.7ZM51.219,11.265c-.242-.967-1.239-1.212-2.12-1.726L46.89,13.63s2,1.485,2.969.725A3.422,3.422,0,0,0,51.219,11.265Zm-14.6-4.512A1.9,1.9,0,0,0,34.441,5.51a1.849,1.849,0,0,0-1.364,1.605c-.242,1.243-.394,2.727.6,3.7a2.31,2.31,0,0,0,2.575-.242C37.106,9.6,36.743,7.875,36.619,6.753ZM20.355,57.609l1.15.818.487-2.182ZM57.036,21.294l1.091,1.968,2.634-2.7ZM51.219,11.265c-.242-.967-1.239-1.212-2.12-1.726L46.89,13.63s2,1.485,2.969.725A3.422,3.422,0,0,0,51.219,11.265Zm-14.6-4.512A1.9,1.9,0,0,0,34.441,5.51a1.849,1.849,0,0,0-1.364,1.605c-.242,1.243-.394,2.727.6,3.7a2.31,2.31,0,0,0,2.575-.242C37.106,9.6,36.743,7.875,36.619,6.753ZM20.355,57.609l1.15.818.487-2.182ZM57.036,21.294l1.091,1.968,2.634-2.7ZM51.219,11.265c-.242-.967-1.239-1.212-2.12-1.726L46.89,13.63s2,1.485,2.969.725A3.422,3.422,0,0,0,51.219,11.265Zm-14.6-4.512A1.9,1.9,0,0,0,34.441,5.51a1.849,1.849,0,0,0-1.364,1.605c-.242,1.243-.394,2.727.6,3.7a2.31,2.31,0,0,0,2.575-.242C37.106,9.6,36.743,7.875,36.619,6.753ZM20.355,57.609l1.15.818.487-2.182ZM57.036,21.294l1.091,1.968,2.634-2.7ZM20.355,57.609l1.15.818.487-2.182ZM36.619,6.753A1.9,1.9,0,0,0,34.441,5.51a1.849,1.849,0,0,0-1.364,1.605c-.242,1.243-.394,2.727.6,3.7a2.31,2.31,0,0,0,2.575-.242C37.106,9.6,36.743,7.875,36.619,6.753Zm14.6,4.512c-.242-.967-1.239-1.212-2.12-1.726L46.89,13.63s2,1.485,2.969.725A3.422,3.422,0,0,0,51.219,11.265Zm5.817,10.029,1.091,1.968,2.634-2.7ZM20.355,57.609l1.15.818.487-2.182ZM36.619,6.753A1.9,1.9,0,0,0,34.441,5.51a1.849,1.849,0,0,0-1.364,1.605c-.242,1.243-.394,2.727.6,3.7a2.31,2.31,0,0,0,2.575-.242C37.106,9.6,36.743,7.875,36.619,6.753Zm14.6,4.512c-.242-.967-1.239-1.212-2.12-1.726L46.89,13.63s2,1.485,2.969.725A3.422,3.422,0,0,0,51.219,11.265Zm5.817,10.029,1.091,1.968,2.634-2.7ZM20.355,57.609l1.15.818.487-2.182ZM36.619,6.753A1.9,1.9,0,0,0,34.441,5.51a1.849,1.849,0,0,0-1.364,1.605c-.242,1.243-.394,2.727.6,3.7a2.31,2.31,0,0,0,2.575-.242C37.106,9.6,36.743,7.875,36.619,6.753Zm13.3,51.223c-.483-.728-.877-2.123-2.12-1.882a1.329,1.329,0,0,0-.97,1.85c.425.725.849,2.12,2.12,1.878A1.241,1.241,0,0,0,49.918,57.975Zm1.3-46.71c-.242-.967-1.239-1.212-2.12-1.726L46.89,13.63s2,1.485,2.969.725A3.422,3.422,0,0,0,51.219,11.265Zm5.817,10.029,1.091,1.968,2.634-2.7ZM49.918,57.975c-.483-.728-.877-2.123-2.12-1.882a1.329,1.329,0,0,0-.97,1.85c.425.725.849,2.12,2.12,1.878A1.241,1.241,0,0,0,49.918,57.975Zm-29.563-.366,1.15.818.487-2.182ZM36.619,6.753A1.9,1.9,0,0,0,34.441,5.51a1.849,1.849,0,0,0-1.364,1.605c-.242,1.243-.394,2.727.6,3.7a2.31,2.31,0,0,0,2.575-.242C37.106,9.6,36.743,7.875,36.619,6.753Zm14.6,4.512c-.242-.967-1.239-1.212-2.12-1.726L46.89,13.63s2,1.485,2.969.725A3.422,3.422,0,0,0,51.219,11.265Zm6.908,12,2.634-2.7-3.725.728ZM35.014,1.906A33.093,33.093,0,1,0,68.122,35.014,33.114,33.114,0,0,0,35.014,1.906ZM47.86,6.967c2,1.087,4.45,1.726,5.693,3.936a4.7,4.7,0,0,1-.728,4.06,3.9,3.9,0,0,1-3.211,1.878c-2-.362-3.694-1.605-5.662-2.817ZM30.35,6.359c.487-1.847,2.607-2.33,4.333-2.455a5.652,5.652,0,0,1,4.15,1.333,6.147,6.147,0,0,1,.756,4.454,3.554,3.554,0,0,1-2.6,2.607c-1.94.242-4.3.725-6.028-1.122A6,6,0,0,1,30.35,6.359ZM20.293,7.906l2.244-1.184c.242,1.243-.152,3-.183,4.364,1.453.908,3.273,1.512,4.726,2.544l-2.486,1.181-4.36-2.272Zm-2.33,1.453,4.543,6.663L20.6,17.445l-4.512-6.753Zm-11.148,9.9.97-.152-.456-.787c.214-.3.362-.639.577-.939l.545,1L7.543,20.02c-.273.031-.76.09-1.06.121C6.542,19.93,6.815,19.264,6.815,19.264Zm6.908,6.663-1.364-.849c1-.877,2.451-2.21,1.847-3.573-1.909-.939-2.213,2.575-4.181,2.575a2.579,2.579,0,0,1-2.361-1.605,6.592,6.592,0,0,1-.121-1,4.379,4.379,0,0,1,.6-2.089,9.99,9.99,0,0,1,.76-1.091l1.119-1.243,1.091.88c-.728.846-1.605,1.605-1.726,2.693,0,.366.331.818.756.76,1.212-1,2.455-3.09,4.181-2.607A2.412,2.412,0,0,1,16.3,20.383C16.81,22.6,15.2,24.474,13.723,25.927Zm8.721,36.167L20.6,60.91l.394-1.3-1.664-1.239-1.212.818c-.487-.425-.939-.849-1.395-1.274l4.816-3.573,2.486,1.485Zm9.149,1.788c-.849.635-2.21.269-3.09,0a2.114,2.114,0,0,1-1.636-2.334l.911-3.818,1.878.394-.728,4c-.031.635,1.15,1.06,1.574.39.152-.452.545-2.693.787-4.057.635.152,1.364.3,1.847.425C32.987,59.912,32.835,62.788,31.593,63.882Zm9.511.028-1.94.394-.877-4.422-1.516.363-.3-1.333L41.5,57.792l.362,1.333-1.633.394Zm10.026-4.119a4.2,4.2,0,0,1-3.452,1.485A3.581,3.581,0,0,1,45.1,58.942a2.71,2.71,0,0,1,.483-2.724,5.744,5.744,0,0,1,3.335-1.605c1.239,0,2.361,1.364,2.845,2.451A2.284,2.284,0,0,1,51.129,59.791ZM35.014,55.673A20.673,20.673,0,1,1,55.673,35.014,20.691,20.691,0,0,1,35.014,55.673Zm21.84-27.322L55.7,25.9,57.157,24.5l-1.636-2.814-1.847.421-1.395-1.968,8.876-1.485,1.757,2.938ZM51.219,11.265c-.242-.967-1.239-1.212-2.12-1.726L46.89,13.63s2,1.485,2.969.725A3.422,3.422,0,0,0,51.219,11.265ZM47.8,56.094a1.329,1.329,0,0,0-.97,1.85c.425.725.849,2.12,2.12,1.878a1.241,1.241,0,0,0,.97-1.847C49.434,57.247,49.041,55.852,47.8,56.094ZM36.257,10.571c.849-.97.487-2.7.362-3.818A1.9,1.9,0,0,0,34.441,5.51a1.849,1.849,0,0,0-1.364,1.605c-.242,1.243-.394,2.727.6,3.7A2.31,2.31,0,0,0,36.257,10.571ZM21.5,58.428l.487-2.182-1.636,1.364ZM57.036,21.294l1.091,1.968,2.634-2.7ZM51.219,11.265c-.242-.967-1.239-1.212-2.12-1.726L46.89,13.63s2,1.485,2.969.725A3.422,3.422,0,0,0,51.219,11.265Zm-14.6-4.512A1.9,1.9,0,0,0,34.441,5.51a1.849,1.849,0,0,0-1.364,1.605c-.242,1.243-.394,2.727.6,3.7a2.31,2.31,0,0,0,2.575-.242C37.106,9.6,36.743,7.875,36.619,6.753ZM20.355,57.609l1.15.818.487-2.182ZM57.036,21.294l1.091,1.968,2.634-2.7ZM51.219,11.265c-.242-.967-1.239-1.212-2.12-1.726L46.89,13.63s2,1.485,2.969.725A3.422,3.422,0,0,0,51.219,11.265Zm-14.6-4.512A1.9,1.9,0,0,0,34.441,5.51a1.849,1.849,0,0,0-1.364,1.605c-.242,1.243-.394,2.727.6,3.7a2.31,2.31,0,0,0,2.575-.242C37.106,9.6,36.743,7.875,36.619,6.753ZM20.355,57.609l1.15.818.487-2.182ZM57.036,21.294l1.091,1.968,2.634-2.7ZM20.355,57.609l1.15.818.487-2.182ZM36.619,6.753A1.9,1.9,0,0,0,34.441,5.51a1.849,1.849,0,0,0-1.364,1.605c-.242,1.243-.394,2.727.6,3.7a2.31,2.31,0,0,0,2.575-.242C37.106,9.6,36.743,7.875,36.619,6.753Zm13.3,51.223c-.483-.728-.877-2.123-2.12-1.882a1.329,1.329,0,0,0-.97,1.85c.425.725.849,2.12,2.12,1.878A1.241,1.241,0,0,0,49.918,57.975Zm1.3-46.71c-.242-.967-1.239-1.212-2.12-1.726L46.89,13.63s2,1.485,2.969.725A3.422,3.422,0,0,0,51.219,11.265Zm5.817,10.029,1.091,1.968,2.634-2.7ZM49.918,57.975c-.483-.728-.877-2.123-2.12-1.882a1.329,1.329,0,0,0-.97,1.85c.425.725.849,2.12,2.12,1.878A1.241,1.241,0,0,0,49.918,57.975Zm-29.563-.366,1.15.818.487-2.182ZM36.619,6.753A1.9,1.9,0,0,0,34.441,5.51a1.849,1.849,0,0,0-1.364,1.605c-.242,1.243-.394,2.727.6,3.7a2.31,2.31,0,0,0,2.575-.242C37.106,9.6,36.743,7.875,36.619,6.753Zm14.6,4.512c-.242-.967-1.239-1.212-2.12-1.726L46.89,13.63s2,1.485,2.969.725A3.422,3.422,0,0,0,51.219,11.265Zm6.908,12,2.634-2.7-3.725.728ZM35.014,1.906A33.093,33.093,0,1,0,68.122,35.014,33.114,33.114,0,0,0,35.014,1.906ZM47.86,6.967c2,1.087,4.45,1.726,5.693,3.936a4.7,4.7,0,0,1-.728,4.06,3.9,3.9,0,0,1-3.211,1.878c-2-.362-3.694-1.605-5.662-2.817ZM30.35,6.359c.487-1.847,2.607-2.33,4.333-2.455a5.652,5.652,0,0,1,4.15,1.333,6.147,6.147,0,0,1,.756,4.454,3.554,3.554,0,0,1-2.6,2.607c-1.94.242-4.3.725-6.028-1.122A6,6,0,0,1,30.35,6.359ZM20.293,7.906l2.244-1.184c.242,1.243-.152,3-.183,4.364,1.453.908,3.273,1.512,4.726,2.544l-2.486,1.181-4.36-2.272Zm-2.33,1.453,4.543,6.663L20.6,17.445l-4.512-6.753Zm-11.148,9.9.97-.152-.456-.787c.214-.3.362-.639.577-.939l.545,1L7.543,20.02c-.273.031-.76.09-1.06.121C6.542,19.93,6.815,19.264,6.815,19.264Zm6.908,6.663-1.364-.849c1-.877,2.451-2.21,1.847-3.573-1.909-.939-2.213,2.575-4.181,2.575a2.579,2.579,0,0,1-2.361-1.605,6.592,6.592,0,0,1-.121-1,4.379,4.379,0,0,1,.6-2.089,9.99,9.99,0,0,1,.76-1.091l1.119-1.243,1.091.88c-.728.846-1.605,1.605-1.726,2.693,0,.366.331.818.756.76,1.212-1,2.455-3.09,4.181-2.607A2.412,2.412,0,0,1,16.3,20.383C16.81,22.6,15.2,24.474,13.723,25.927Zm8.721,36.167L20.6,60.91l.394-1.3-1.664-1.239-1.212.818c-.487-.425-.939-.849-1.395-1.274l4.816-3.573,2.486,1.485Zm9.149,1.788c-.849.635-2.21.269-3.09,0a2.114,2.114,0,0,1-1.636-2.334l.911-3.818,1.878.394-.728,4c-.031.635,1.15,1.06,1.574.39.152-.452.545-2.693.787-4.057.635.152,1.364.3,1.847.425C32.987,59.912,32.835,62.788,31.593,63.882Zm9.511.028-1.94.394-.877-4.422-1.516.363-.3-1.333L41.5,57.792l.362,1.333-1.633.394Zm10.026-4.119a4.2,4.2,0,0,1-3.452,1.485A3.581,3.581,0,0,1,45.1,58.942a2.71,2.71,0,0,1,.483-2.724,5.744,5.744,0,0,1,3.335-1.605c1.239,0,2.361,1.364,2.845,2.451A2.284,2.284,0,0,1,51.129,59.791ZM35.014,55.673A20.673,20.673,0,1,1,55.673,35.014,20.691,20.691,0,0,1,35.014,55.673Zm21.84-27.322L55.7,25.9,57.157,24.5l-1.636-2.814-1.847.421-1.395-1.968,8.876-1.485,1.757,2.938ZM51.219,11.265c-.242-.967-1.239-1.212-2.12-1.726L46.89,13.63s2,1.485,2.969.725A3.422,3.422,0,0,0,51.219,11.265ZM47.8,56.094a1.329,1.329,0,0,0-.97,1.85c.425.725.849,2.12,2.12,1.878a1.241,1.241,0,0,0,.97-1.847C49.434,57.247,49.041,55.852,47.8,56.094ZM36.257,10.571c.849-.97.487-2.7.362-3.818A1.9,1.9,0,0,0,34.441,5.51a1.849,1.849,0,0,0-1.364,1.605c-.242,1.243-.394,2.727.6,3.7A2.31,2.31,0,0,0,36.257,10.571ZM21.5,58.428l.487-2.182-1.636,1.364ZM57.036,21.294l1.091,1.968,2.634-2.7ZM51.219,11.265c-.242-.967-1.239-1.212-2.12-1.726L46.89,13.63s2,1.485,2.969.725A3.422,3.422,0,0,0,51.219,11.265Zm-14.6-4.512A1.9,1.9,0,0,0,34.441,5.51a1.849,1.849,0,0,0-1.364,1.605c-.242,1.243-.394,2.727.6,3.7a2.31,2.31,0,0,0,2.575-.242C37.106,9.6,36.743,7.875,36.619,6.753ZM20.355,57.609l1.15.818.487-2.182ZM57.036,21.294l1.091,1.968,2.634-2.7ZM51.219,11.265c-.242-.967-1.239-1.212-2.12-1.726L46.89,13.63s2,1.485,2.969.725A3.422,3.422,0,0,0,51.219,11.265Zm-14.6-4.512A1.9,1.9,0,0,0,34.441,5.51a1.849,1.849,0,0,0-1.364,1.605c-.242,1.243-.394,2.727.6,3.7a2.31,2.31,0,0,0,2.575-.242C37.106,9.6,36.743,7.875,36.619,6.753ZM20.355,57.609l1.15.818.487-2.182ZM57.036,21.294l1.091,1.968,2.634-2.7ZM20.355,57.609l1.15.818.487-2.182ZM36.619,6.753A1.9,1.9,0,0,0,34.441,5.51a1.849,1.849,0,0,0-1.364,1.605c-.242,1.243-.394,2.727.6,3.7a2.31,2.31,0,0,0,2.575-.242C37.106,9.6,36.743,7.875,36.619,6.753Zm13.3,51.223c-.483-.728-.877-2.123-2.12-1.882a1.329,1.329,0,0,0-.97,1.85c.425.725.849,2.12,2.12,1.878A1.241,1.241,0,0,0,49.918,57.975Zm1.3-46.71c-.242-.967-1.239-1.212-2.12-1.726L46.89,13.63s2,1.485,2.969.725A3.422,3.422,0,0,0,51.219,11.265Zm5.817,10.029,1.091,1.968,2.634-2.7ZM49.918,57.975c-.483-.728-.877-2.123-2.12-1.882a1.329,1.329,0,0,0-.97,1.85c.425.725.849,2.12,2.12,1.878A1.241,1.241,0,0,0,49.918,57.975Zm-29.563-.366,1.15.818.487-2.182ZM36.619,6.753A1.9,1.9,0,0,0,34.441,5.51a1.849,1.849,0,0,0-1.364,1.605c-.242,1.243-.394,2.727.6,3.7a2.31,2.31,0,0,0,2.575-.242C37.106,9.6,36.743,7.875,36.619,6.753Zm14.6,4.512c-.242-.967-1.239-1.212-2.12-1.726L46.89,13.63s2,1.485,2.969.725A3.422,3.422,0,0,0,51.219,11.265Zm6.908,12,2.634-2.7-3.725.728ZM35.014,1.906A33.093,33.093,0,1,0,68.122,35.014,33.114,33.114,0,0,0,35.014,1.906ZM47.86,6.967c2,1.087,4.45,1.726,5.693,3.936a4.7,4.7,0,0,1-.728,4.06,3.9,3.9,0,0,1-3.211,1.878c-2-.362-3.694-1.605-5.662-2.817ZM30.35,6.359c.487-1.847,2.607-2.33,4.333-2.455a5.652,5.652,0,0,1,4.15,1.333,6.147,6.147,0,0,1,.756,4.454,3.554,3.554,0,0,1-2.6,2.607c-1.94.242-4.3.725-6.028-1.122A6,6,0,0,1,30.35,6.359ZM20.293,7.906l2.244-1.184c.242,1.243-.152,3-.183,4.364,1.453.908,3.273,1.512,4.726,2.544l-2.486,1.181-4.36-2.272Zm-2.33,1.453,4.543,6.663L20.6,17.445l-4.512-6.753Zm-11.148,9.9.97-.152-.456-.787c.214-.3.362-.639.577-.939l.545,1L7.543,20.02c-.273.031-.76.09-1.06.121C6.542,19.93,6.815,19.264,6.815,19.264Zm6.908,6.663-1.364-.849c1-.877,2.451-2.21,1.847-3.573-1.909-.939-2.213,2.575-4.181,2.575a2.579,2.579,0,0,1-2.361-1.605,6.592,6.592,0,0,1-.121-1,4.379,4.379,0,0,1,.6-2.089,9.99,9.99,0,0,1,.76-1.091l1.119-1.243,1.091.88c-.728.846-1.605,1.605-1.726,2.693,0,.366.331.818.756.76,1.212-1,2.455-3.09,4.181-2.607A2.412,2.412,0,0,1,16.3,20.383C16.81,22.6,15.2,24.474,13.723,25.927Zm8.721,36.167L20.6,60.91l.394-1.3-1.664-1.239-1.212.818c-.487-.425-.939-.849-1.395-1.274l4.816-3.573,2.486,1.485Zm9.149,1.788c-.849.635-2.21.269-3.09,0a2.114,2.114,0,0,1-1.636-2.334l.911-3.818,1.878.394-.728,4c-.031.635,1.15,1.06,1.574.39.152-.452.545-2.693.787-4.057.635.152,1.364.3,1.847.425C32.987,59.912,32.835,62.788,31.593,63.882Zm9.511.028-1.94.394-.877-4.422-1.516.363-.3-1.333L41.5,57.792l.362,1.333-1.633.394Zm10.026-4.119a4.2,4.2,0,0,1-3.452,1.485A3.581,3.581,0,0,1,45.1,58.942a2.71,2.71,0,0,1,.483-2.724,5.744,5.744,0,0,1,3.335-1.605c1.239,0,2.361,1.364,2.845,2.451A2.284,2.284,0,0,1,51.129,59.791ZM35.014,55.673A20.673,20.673,0,1,1,55.673,35.014,20.691,20.691,0,0,1,35.014,55.673Zm21.84-27.322L55.7,25.9,57.157,24.5l-1.636-2.814-1.847.421-1.395-1.968,8.876-1.485,1.757,2.938ZM51.219,11.265c-.242-.967-1.239-1.212-2.12-1.726L46.89,13.63s2,1.485,2.969.725A3.422,3.422,0,0,0,51.219,11.265ZM47.8,56.094a1.329,1.329,0,0,0-.97,1.85c.425.725.849,2.12,2.12,1.878a1.241,1.241,0,0,0,.97-1.847C49.434,57.247,49.041,55.852,47.8,56.094ZM36.257,10.571c.849-.97.487-2.7.362-3.818A1.9,1.9,0,0,0,34.441,5.51a1.849,1.849,0,0,0-1.364,1.605c-.242,1.243-.394,2.727.6,3.7A2.31,2.31,0,0,0,36.257,10.571ZM21.5,58.428l.487-2.182-1.636,1.364ZM58.127,23.262l2.634-2.7-3.725.728ZM35.014,1.906A33.093,33.093,0,1,0,68.122,35.014,33.114,33.114,0,0,0,35.014,1.906ZM47.86,6.967c2,1.087,4.45,1.726,5.693,3.936a4.7,4.7,0,0,1-.728,4.06,3.9,3.9,0,0,1-3.211,1.878c-2-.362-3.694-1.605-5.662-2.817ZM30.35,6.359c.487-1.847,2.607-2.33,4.333-2.455a5.652,5.652,0,0,1,4.15,1.333,6.147,6.147,0,0,1,.756,4.454,3.554,3.554,0,0,1-2.6,2.607c-1.94.242-4.3.725-6.028-1.122A6,6,0,0,1,30.35,6.359ZM20.293,7.906l2.244-1.184c.242,1.243-.152,3-.183,4.364,1.453.908,3.273,1.512,4.726,2.544l-2.486,1.181-4.36-2.272Zm-2.33,1.453,4.543,6.663L20.6,17.445l-4.512-6.753Zm-11.148,9.9.97-.152-.456-.787c.214-.3.362-.639.577-.939l.545,1L7.543,20.02c-.273.031-.76.09-1.06.121C6.542,19.93,6.815,19.264,6.815,19.264Zm6.908,6.663-1.364-.849c1-.877,2.451-2.21,1.847-3.573-1.909-.939-2.213,2.575-4.181,2.575a2.579,2.579,0,0,1-2.361-1.605,6.592,6.592,0,0,1-.121-1,4.379,4.379,0,0,1,.6-2.089,9.99,9.99,0,0,1,.76-1.091l1.119-1.243,1.091.88c-.728.846-1.605,1.605-1.726,2.693,0,.366.331.818.756.76,1.212-1,2.455-3.09,4.181-2.607A2.412,2.412,0,0,1,16.3,20.383C16.81,22.6,15.2,24.474,13.723,25.927Zm8.721,36.167L20.6,60.91l.394-1.3-1.664-1.239-1.212.818c-.487-.425-.939-.849-1.395-1.274l4.816-3.573,2.486,1.485Zm9.149,1.788c-.849.635-2.21.269-3.09,0a2.114,2.114,0,0,1-1.636-2.334l.911-3.818,1.878.394-.728,4c-.031.635,1.15,1.06,1.574.39.152-.452.545-2.693.787-4.057.635.152,1.364.3,1.847.425C32.987,59.912,32.835,62.788,31.593,63.882Zm9.511.028-1.94.394-.877-4.422-1.516.363-.3-1.333L41.5,57.792l.362,1.333-1.633.394Zm10.026-4.119a4.2,4.2,0,0,1-3.452,1.485A3.581,3.581,0,0,1,45.1,58.942a2.71,2.71,0,0,1,.483-2.724,5.744,5.744,0,0,1,3.335-1.605c1.239,0,2.361,1.364,2.845,2.451A2.284,2.284,0,0,1,51.129,59.791ZM35.014,55.673A20.673,20.673,0,1,1,55.673,35.014,20.691,20.691,0,0,1,35.014,55.673Zm21.84-27.322L55.7,25.9,57.157,24.5l-1.636-2.814-1.847.421-1.395-1.968,8.876-1.485,1.757,2.938ZM51.219,11.265c-.242-.967-1.239-1.212-2.12-1.726L46.89,13.63s2,1.485,2.969.725A3.422,3.422,0,0,0,51.219,11.265ZM47.8,56.094a1.329,1.329,0,0,0-.97,1.85c.425.725.849,2.12,2.12,1.878a1.241,1.241,0,0,0,.97-1.847C49.434,57.247,49.041,55.852,47.8,56.094ZM36.257,10.571c.849-.97.487-2.7.362-3.818A1.9,1.9,0,0,0,34.441,5.51a1.849,1.849,0,0,0-1.364,1.605c-.242,1.243-.394,2.727.6,3.7A2.31,2.31,0,0,0,36.257,10.571ZM21.5,58.428l.487-2.182-1.636,1.364ZM58.127,23.262l2.634-2.7-3.725.728ZM35.014,0A35,35,0,1,0,70,35.014,35.03,35.03,0,0,0,35.014,0Zm0,69.12A34.121,34.121,0,1,1,69.123,35.014,34.1,34.1,0,0,1,35.014,69.12Zm0-67.214A33.093,33.093,0,1,0,68.122,35.014,33.114,33.114,0,0,0,35.014,1.906ZM47.86,6.967c2,1.087,4.45,1.726,5.693,3.936a4.7,4.7,0,0,1-.728,4.06,3.9,3.9,0,0,1-3.211,1.878c-2-.362-3.694-1.605-5.662-2.817ZM30.35,6.359c.487-1.847,2.607-2.33,4.333-2.455a5.652,5.652,0,0,1,4.15,1.333,6.147,6.147,0,0,1,.756,4.454,3.554,3.554,0,0,1-2.6,2.607c-1.94.242-4.3.725-6.028-1.122A6,6,0,0,1,30.35,6.359ZM20.293,7.906l2.244-1.184c.242,1.243-.152,3-.183,4.364,1.453.908,3.273,1.512,4.726,2.544l-2.486,1.181-4.36-2.272Zm-2.33,1.453,4.543,6.663L20.6,17.445l-4.512-6.753Zm-11.148,9.9.97-.152-.456-.787c.214-.3.362-.639.577-.939l.545,1L7.543,20.02c-.273.031-.76.09-1.06.121C6.542,19.93,6.815,19.264,6.815,19.264Zm6.908,6.663-1.364-.849c1-.877,2.451-2.21,1.847-3.573-1.909-.939-2.213,2.575-4.181,2.575a2.579,2.579,0,0,1-2.361-1.605,6.592,6.592,0,0,1-.121-1,4.379,4.379,0,0,1,.6-2.089,9.99,9.99,0,0,1,.76-1.091l1.119-1.243,1.091.88c-.728.846-1.605,1.605-1.726,2.693,0,.366.331.818.756.76,1.212-1,2.455-3.09,4.181-2.607A2.412,2.412,0,0,1,16.3,20.383C16.81,22.6,15.2,24.474,13.723,25.927Zm8.721,36.167L20.6,60.91l.394-1.3-1.664-1.239-1.212.818c-.487-.425-.939-.849-1.395-1.274l4.816-3.573,2.486,1.485Zm9.149,1.788c-.849.635-2.21.269-3.09,0a2.114,2.114,0,0,1-1.636-2.334l.911-3.818,1.878.394-.728,4c-.031.635,1.15,1.06,1.574.39.152-.452.545-2.693.787-4.057.635.152,1.364.3,1.847.425C32.987,59.912,32.835,62.788,31.593,63.882Zm9.511.028-1.94.394-.877-4.422-1.516.363-.3-1.333L41.5,57.792l.362,1.333-1.633.394Zm10.026-4.119a4.2,4.2,0,0,1-3.452,1.485A3.581,3.581,0,0,1,45.1,58.942a2.71,2.71,0,0,1,.483-2.724,5.744,5.744,0,0,1,3.335-1.605c1.239,0,2.361,1.364,2.845,2.451A2.284,2.284,0,0,1,51.129,59.791ZM35.014,55.673A20.673,20.673,0,1,1,55.673,35.014,20.691,20.691,0,0,1,35.014,55.673Zm21.84-27.322L55.7,25.9,57.157,24.5l-1.636-2.814-1.847.421-1.395-1.968,8.876-1.485,1.757,2.938ZM51.219,11.265c-.242-.967-1.239-1.212-2.12-1.726L46.89,13.63s2,1.485,2.969.725A3.422,3.422,0,0,0,51.219,11.265ZM47.8,56.094a1.329,1.329,0,0,0-.97,1.85c.425.725.849,2.12,2.12,1.878a1.241,1.241,0,0,0,.97-1.847C49.434,57.247,49.041,55.852,47.8,56.094ZM36.257,10.571c.849-.97.487-2.7.362-3.818A1.9,1.9,0,0,0,34.441,5.51a1.849,1.849,0,0,0-1.364,1.605c-.242,1.243-.394,2.727.6,3.7A2.31,2.31,0,0,0,36.257,10.571ZM21.5,58.428l.487-2.182-1.636,1.364ZM57.036,21.294l1.091,1.968,2.634-2.7ZM20.355,57.609l1.15.818.487-2.182ZM36.619,6.753A1.9,1.9,0,0,0,34.441,5.51a1.849,1.849,0,0,0-1.364,1.605c-.242,1.243-.394,2.727.6,3.7a2.31,2.31,0,0,0,2.575-.242C37.106,9.6,36.743,7.875,36.619,6.753Zm13.3,51.223c-.483-.728-.877-2.123-2.12-1.882a1.329,1.329,0,0,0-.97,1.85c.425.725.849,2.12,2.12,1.878A1.241,1.241,0,0,0,49.918,57.975Zm1.3-46.71c-.242-.967-1.239-1.212-2.12-1.726L46.89,13.63s2,1.485,2.969.725A3.422,3.422,0,0,0,51.219,11.265Zm5.817,10.029,1.091,1.968,2.634-2.7ZM49.918,57.975c-.483-.728-.877-2.123-2.12-1.882a1.329,1.329,0,0,0-.97,1.85c.425.725.849,2.12,2.12,1.878A1.241,1.241,0,0,0,49.918,57.975Zm-29.563-.366,1.15.818.487-2.182ZM36.619,6.753A1.9,1.9,0,0,0,34.441,5.51a1.849,1.849,0,0,0-1.364,1.605c-.242,1.243-.394,2.727.6,3.7a2.31,2.31,0,0,0,2.575-.242C37.106,9.6,36.743,7.875,36.619,6.753Zm14.6,4.512c-.242-.967-1.239-1.212-2.12-1.726L46.89,13.63s2,1.485,2.969.725A3.422,3.422,0,0,0,51.219,11.265Zm6.908,12,2.634-2.7-3.725.728ZM35.014,1.906A33.093,33.093,0,1,0,68.122,35.014,33.114,33.114,0,0,0,35.014,1.906ZM47.86,6.967c2,1.087,4.45,1.726,5.693,3.936a4.7,4.7,0,0,1-.728,4.06,3.9,3.9,0,0,1-3.211,1.878c-2-.362-3.694-1.605-5.662-2.817ZM30.35,6.359c.487-1.847,2.607-2.33,4.333-2.455a5.652,5.652,0,0,1,4.15,1.333,6.147,6.147,0,0,1,.756,4.454,3.554,3.554,0,0,1-2.6,2.607c-1.94.242-4.3.725-6.028-1.122A6,6,0,0,1,30.35,6.359ZM20.293,7.906l2.244-1.184c.242,1.243-.152,3-.183,4.364,1.453.908,3.273,1.512,4.726,2.544l-2.486,1.181-4.36-2.272Zm-2.33,1.453,4.543,6.663L20.6,17.445l-4.512-6.753Zm-11.148,9.9.97-.152-.456-.787c.214-.3.362-.639.577-.939l.545,1L7.543,20.02c-.273.031-.76.09-1.06.121C6.542,19.93,6.815,19.264,6.815,19.264Zm6.908,6.663-1.364-.849c1-.877,2.451-2.21,1.847-3.573-1.909-.939-2.213,2.575-4.181,2.575a2.579,2.579,0,0,1-2.361-1.605,6.592,6.592,0,0,1-.121-1,4.379,4.379,0,0,1,.6-2.089,9.99,9.99,0,0,1,.76-1.091l1.119-1.243,1.091.88c-.728.846-1.605,1.605-1.726,2.693,0,.366.331.818.756.76,1.212-1,2.455-3.09,4.181-2.607A2.412,2.412,0,0,1,16.3,20.383C16.81,22.6,15.2,24.474,13.723,25.927Zm8.721,36.167L20.6,60.91l.394-1.3-1.664-1.239-1.212.818c-.487-.425-.939-.849-1.395-1.274l4.816-3.573,2.486,1.485Zm9.149,1.788c-.849.635-2.21.269-3.09,0a2.114,2.114,0,0,1-1.636-2.334l.911-3.818,1.878.394-.728,4c-.031.635,1.15,1.06,1.574.39.152-.452.545-2.693.787-4.057.635.152,1.364.3,1.847.425C32.987,59.912,32.835,62.788,31.593,63.882Zm9.511.028-1.94.394-.877-4.422-1.516.363-.3-1.333L41.5,57.792l.362,1.333-1.633.394Zm10.026-4.119a4.2,4.2,0,0,1-3.452,1.485A3.581,3.581,0,0,1,45.1,58.942a2.71,2.71,0,0,1,.483-2.724,5.744,5.744,0,0,1,3.335-1.605c1.239,0,2.361,1.364,2.845,2.451A2.284,2.284,0,0,1,51.129,59.791ZM35.014,55.673A20.673,20.673,0,1,1,55.673,35.014,20.691,20.691,0,0,1,35.014,55.673Zm21.84-27.322L55.7,25.9,57.157,24.5l-1.636-2.814-1.847.421-1.395-1.968,8.876-1.485,1.757,2.938ZM51.219,11.265c-.242-.967-1.239-1.212-2.12-1.726L46.89,13.63s2,1.485,2.969.725A3.422,3.422,0,0,0,51.219,11.265ZM47.8,56.094a1.329,1.329,0,0,0-.97,1.85c.425.725.849,2.12,2.12,1.878a1.241,1.241,0,0,0,.97-1.847C49.434,57.247,49.041,55.852,47.8,56.094ZM36.257,10.571c.849-.97.487-2.7.362-3.818A1.9,1.9,0,0,0,34.441,5.51a1.849,1.849,0,0,0-1.364,1.605c-.242,1.243-.394,2.727.6,3.7A2.31,2.31,0,0,0,36.257,10.571ZM21.5,58.428l.487-2.182-1.636,1.364ZM57.036,21.294l1.091,1.968,2.634-2.7ZM20.355,57.609l1.15.818.487-2.182ZM36.619,6.753A1.9,1.9,0,0,0,34.441,5.51a1.849,1.849,0,0,0-1.364,1.605c-.242,1.243-.394,2.727.6,3.7a2.31,2.31,0,0,0,2.575-.242C37.106,9.6,36.743,7.875,36.619,6.753Zm13.3,51.223c-.483-.728-.877-2.123-2.12-1.882a1.329,1.329,0,0,0-.97,1.85c.425.725.849,2.12,2.12,1.878A1.241,1.241,0,0,0,49.918,57.975Zm1.3-46.71c-.242-.967-1.239-1.212-2.12-1.726L46.89,13.63s2,1.485,2.969.725A3.422,3.422,0,0,0,51.219,11.265Zm5.817,10.029,1.091,1.968,2.634-2.7ZM49.918,57.975c-.483-.728-.877-2.123-2.12-1.882a1.329,1.329,0,0,0-.97,1.85c.425.725.849,2.12,2.12,1.878A1.241,1.241,0,0,0,49.918,57.975Zm-29.563-.366,1.15.818.487-2.182ZM36.619,6.753A1.9,1.9,0,0,0,34.441,5.51a1.849,1.849,0,0,0-1.364,1.605c-.242,1.243-.394,2.727.6,3.7a2.31,2.31,0,0,0,2.575-.242C37.106,9.6,36.743,7.875,36.619,6.753Zm14.6,4.512c-.242-.967-1.239-1.212-2.12-1.726L46.89,13.63s2,1.485,2.969.725A3.422,3.422,0,0,0,51.219,11.265Zm6.908,12,2.634-2.7-3.725.728ZM35.014,1.906A33.093,33.093,0,1,0,68.122,35.014,33.114,33.114,0,0,0,35.014,1.906ZM47.86,6.967c2,1.087,4.45,1.726,5.693,3.936a4.7,4.7,0,0,1-.728,4.06,3.9,3.9,0,0,1-3.211,1.878c-2-.362-3.694-1.605-5.662-2.817ZM30.35,6.359c.487-1.847,2.607-2.33,4.333-2.455a5.652,5.652,0,0,1,4.15,1.333,6.147,6.147,0,0,1,.756,4.454,3.554,3.554,0,0,1-2.6,2.607c-1.94.242-4.3.725-6.028-1.122A6,6,0,0,1,30.35,6.359ZM20.293,7.906l2.244-1.184c.242,1.243-.152,3-.183,4.364,1.453.908,3.273,1.512,4.726,2.544l-2.486,1.181-4.36-2.272Zm-2.33,1.453,4.543,6.663L20.6,17.445l-4.512-6.753Zm-11.148,9.9.97-.152-.456-.787c.214-.3.362-.639.577-.939l.545,1L7.543,20.02c-.273.031-.76.09-1.06.121C6.542,19.93,6.815,19.264,6.815,19.264Zm6.908,6.663-1.364-.849c1-.877,2.451-2.21,1.847-3.573-1.909-.939-2.213,2.575-4.181,2.575a2.579,2.579,0,0,1-2.361-1.605,6.592,6.592,0,0,1-.121-1,4.379,4.379,0,0,1,.6-2.089,9.99,9.99,0,0,1,.76-1.091l1.119-1.243,1.091.88c-.728.846-1.605,1.605-1.726,2.693,0,.366.331.818.756.76,1.212-1,2.455-3.09,4.181-2.607A2.412,2.412,0,0,1,16.3,20.383C16.81,22.6,15.2,24.474,13.723,25.927Zm8.721,36.167L20.6,60.91l.394-1.3-1.664-1.239-1.212.818c-.487-.425-.939-.849-1.395-1.274l4.816-3.573,2.486,1.485Zm9.149,1.788c-.849.635-2.21.269-3.09,0a2.114,2.114,0,0,1-1.636-2.334l.911-3.818,1.878.394-.728,4c-.031.635,1.15,1.06,1.574.39.152-.452.545-2.693.787-4.057.635.152,1.364.3,1.847.425C32.987,59.912,32.835,62.788,31.593,63.882Zm9.511.028-1.94.394-.877-4.422-1.516.363-.3-1.333L41.5,57.792l.362,1.333-1.633.394Zm10.026-4.119a4.2,4.2,0,0,1-3.452,1.485A3.581,3.581,0,0,1,45.1,58.942a2.71,2.71,0,0,1,.483-2.724,5.744,5.744,0,0,1,3.335-1.605c1.239,0,2.361,1.364,2.845,2.451A2.284,2.284,0,0,1,51.129,59.791ZM35.014,55.673A20.673,20.673,0,1,1,55.673,35.014,20.691,20.691,0,0,1,35.014,55.673Zm21.84-27.322L55.7,25.9,57.157,24.5l-1.636-2.814-1.847.421-1.395-1.968,8.876-1.485,1.757,2.938ZM51.219,11.265c-.242-.967-1.239-1.212-2.12-1.726L46.89,13.63s2,1.485,2.969.725A3.422,3.422,0,0,0,51.219,11.265ZM47.8,56.094a1.329,1.329,0,0,0-.97,1.85c.425.725.849,2.12,2.12,1.878a1.241,1.241,0,0,0,.97-1.847C49.434,57.247,49.041,55.852,47.8,56.094ZM36.257,10.571c.849-.97.487-2.7.362-3.818A1.9,1.9,0,0,0,34.441,5.51a1.849,1.849,0,0,0-1.364,1.605c-.242,1.243-.394,2.727.6,3.7A2.31,2.31,0,0,0,36.257,10.571ZM21.5,58.428l.487-2.182-1.636,1.364ZM57.036,21.294l1.091,1.968,2.634-2.7ZM51.219,11.265c-.242-.967-1.239-1.212-2.12-1.726L46.89,13.63s2,1.485,2.969.725A3.422,3.422,0,0,0,51.219,11.265Zm-14.6-4.512A1.9,1.9,0,0,0,34.441,5.51a1.849,1.849,0,0,0-1.364,1.605c-.242,1.243-.394,2.727.6,3.7a2.31,2.31,0,0,0,2.575-.242C37.106,9.6,36.743,7.875,36.619,6.753ZM20.355,57.609l1.15.818.487-2.182ZM57.036,21.294l1.091,1.968,2.634-2.7ZM51.219,11.265c-.242-.967-1.239-1.212-2.12-1.726L46.89,13.63s2,1.485,2.969.725A3.422,3.422,0,0,0,51.219,11.265Zm-14.6-4.512A1.9,1.9,0,0,0,34.441,5.51a1.849,1.849,0,0,0-1.364,1.605c-.242,1.243-.394,2.727.6,3.7a2.31,2.31,0,0,0,2.575-.242C37.106,9.6,36.743,7.875,36.619,6.753ZM20.355,57.609l1.15.818.487-2.182ZM57.036,21.294l1.091,1.968,2.634-2.7ZM20.355,57.609l1.15.818.487-2.182ZM36.619,6.753A1.9,1.9,0,0,0,34.441,5.51a1.849,1.849,0,0,0-1.364,1.605c-.242,1.243-.394,2.727.6,3.7a2.31,2.31,0,0,0,2.575-.242C37.106,9.6,36.743,7.875,36.619,6.753Zm14.6,4.512c-.242-.967-1.239-1.212-2.12-1.726L46.89,13.63s2,1.485,2.969.725A3.422,3.422,0,0,0,51.219,11.265Zm5.817,10.029,1.091,1.968,2.634-2.7ZM20.355,57.609l1.15.818.487-2.182ZM36.619,6.753A1.9,1.9,0,0,0,34.441,5.51a1.849,1.849,0,0,0-1.364,1.605c-.242,1.243-.394,2.727.6,3.7a2.31,2.31,0,0,0,2.575-.242C37.106,9.6,36.743,7.875,36.619,6.753Zm14.6,4.512c-.242-.967-1.239-1.212-2.12-1.726L46.89,13.63s2,1.485,2.969.725A3.422,3.422,0,0,0,51.219,11.265Zm5.817,10.029,1.091,1.968,2.634-2.7ZM20.355,57.609l1.15.818.487-2.182ZM36.619,6.753A1.9,1.9,0,0,0,34.441,5.51a1.849,1.849,0,0,0-1.364,1.605c-.242,1.243-.394,2.727.6,3.7a2.31,2.31,0,0,0,2.575-.242C37.106,9.6,36.743,7.875,36.619,6.753Zm13.3,51.223c-.483-.728-.877-2.123-2.12-1.882a1.329,1.329,0,0,0-.97,1.85c.425.725.849,2.12,2.12,1.878A1.241,1.241,0,0,0,49.918,57.975Zm1.3-46.71c-.242-.967-1.239-1.212-2.12-1.726L46.89,13.63s2,1.485,2.969.725A3.422,3.422,0,0,0,51.219,11.265Zm5.817,10.029,1.091,1.968,2.634-2.7ZM49.918,57.975c-.483-.728-.877-2.123-2.12-1.882a1.329,1.329,0,0,0-.97,1.85c.425.725.849,2.12,2.12,1.878A1.241,1.241,0,0,0,49.918,57.975Zm-29.563-.366,1.15.818.487-2.182ZM36.619,6.753A1.9,1.9,0,0,0,34.441,5.51a1.849,1.849,0,0,0-1.364,1.605c-.242,1.243-.394,2.727.6,3.7a2.31,2.31,0,0,0,2.575-.242C37.106,9.6,36.743,7.875,36.619,6.753Zm14.6,4.512c-.242-.967-1.239-1.212-2.12-1.726L46.89,13.63s2,1.485,2.969.725A3.422,3.422,0,0,0,51.219,11.265Zm6.908,12,2.634-2.7-3.725.728ZM35.014,1.906A33.093,33.093,0,1,0,68.122,35.014,33.114,33.114,0,0,0,35.014,1.906ZM47.86,6.967c2,1.087,4.45,1.726,5.693,3.936a4.7,4.7,0,0,1-.728,4.06,3.9,3.9,0,0,1-3.211,1.878c-2-.362-3.694-1.605-5.662-2.817ZM30.35,6.359c.487-1.847,2.607-2.33,4.333-2.455a5.652,5.652,0,0,1,4.15,1.333,6.147,6.147,0,0,1,.756,4.454,3.554,3.554,0,0,1-2.6,2.607c-1.94.242-4.3.725-6.028-1.122A6,6,0,0,1,30.35,6.359ZM20.293,7.906l2.244-1.184c.242,1.243-.152,3-.183,4.364,1.453.908,3.273,1.512,4.726,2.544l-2.486,1.181-4.36-2.272Zm-2.33,1.453,4.543,6.663L20.6,17.445l-4.512-6.753Zm-11.148,9.9.97-.152-.456-.787c.214-.3.362-.639.577-.939l.545,1L7.543,20.02c-.273.031-.76.09-1.06.121C6.542,19.93,6.815,19.264,6.815,19.264Zm6.908,6.663-1.364-.849c1-.877,2.451-2.21,1.847-3.573-1.909-.939-2.213,2.575-4.181,2.575a2.579,2.579,0,0,1-2.361-1.605,6.592,6.592,0,0,1-.121-1,4.379,4.379,0,0,1,.6-2.089,9.99,9.99,0,0,1,.76-1.091l1.119-1.243,1.091.88c-.728.846-1.605,1.605-1.726,2.693,0,.366.331.818.756.76,1.212-1,2.455-3.09,4.181-2.607A2.412,2.412,0,0,1,16.3,20.383C16.81,22.6,15.2,24.474,13.723,25.927Zm8.721,36.167L20.6,60.91l.394-1.3-1.664-1.239-1.212.818c-.487-.425-.939-.849-1.395-1.274l4.816-3.573,2.486,1.485Zm9.149,1.788c-.849.635-2.21.269-3.09,0a2.114,2.114,0,0,1-1.636-2.334l.911-3.818,1.878.394-.728,4c-.031.635,1.15,1.06,1.574.39.152-.452.545-2.693.787-4.057.635.152,1.364.3,1.847.425C32.987,59.912,32.835,62.788,31.593,63.882Zm9.511.028-1.94.394-.877-4.422-1.516.363-.3-1.333L41.5,57.792l.362,1.333-1.633.394Zm10.026-4.119a4.2,4.2,0,0,1-3.452,1.485A3.581,3.581,0,0,1,45.1,58.942a2.71,2.71,0,0,1,.483-2.724,5.744,5.744,0,0,1,3.335-1.605c1.239,0,2.361,1.364,2.845,2.451A2.284,2.284,0,0,1,51.129,59.791ZM35.014,55.673A20.673,20.673,0,1,1,55.673,35.014,20.691,20.691,0,0,1,35.014,55.673Zm21.84-27.322L55.7,25.9,57.157,24.5l-1.636-2.814-1.847.421-1.395-1.968,8.876-1.485,1.757,2.938ZM51.219,11.265c-.242-.967-1.239-1.212-2.12-1.726L46.89,13.63s2,1.485,2.969.725A3.422,3.422,0,0,0,51.219,11.265ZM47.8,56.094a1.329,1.329,0,0,0-.97,1.85c.425.725.849,2.12,2.12,1.878a1.241,1.241,0,0,0,.97-1.847C49.434,57.247,49.041,55.852,47.8,56.094ZM36.257,10.571c.849-.97.487-2.7.362-3.818A1.9,1.9,0,0,0,34.441,5.51a1.849,1.849,0,0,0-1.364,1.605c-.242,1.243-.394,2.727.6,3.7A2.31,2.31,0,0,0,36.257,10.571ZM21.5,58.428l.487-2.182-1.636,1.364ZM57.036,21.294l1.091,1.968,2.634-2.7ZM51.219,11.265c-.242-.967-1.239-1.212-2.12-1.726L46.89,13.63s2,1.485,2.969.725A3.422,3.422,0,0,0,51.219,11.265Zm-14.6-4.512A1.9,1.9,0,0,0,34.441,5.51a1.849,1.849,0,0,0-1.364,1.605c-.242,1.243-.394,2.727.6,3.7a2.31,2.31,0,0,0,2.575-.242C37.106,9.6,36.743,7.875,36.619,6.753ZM20.355,57.609l1.15.818.487-2.182ZM57.036,21.294l1.091,1.968,2.634-2.7ZM51.219,11.265c-.242-.967-1.239-1.212-2.12-1.726L46.89,13.63s2,1.485,2.969.725A3.422,3.422,0,0,0,51.219,11.265Zm-14.6-4.512A1.9,1.9,0,0,0,34.441,5.51a1.849,1.849,0,0,0-1.364,1.605c-.242,1.243-.394,2.727.6,3.7a2.31,2.31,0,0,0,2.575-.242C37.106,9.6,36.743,7.875,36.619,6.753ZM20.355,57.609l1.15.818.487-2.182ZM57.036,21.294l1.091,1.968,2.634-2.7ZM20.355,57.609l1.15.818.487-2.182ZM36.619,6.753A1.9,1.9,0,0,0,34.441,5.51a1.849,1.849,0,0,0-1.364,1.605c-.242,1.243-.394,2.727.6,3.7a2.31,2.31,0,0,0,2.575-.242C37.106,9.6,36.743,7.875,36.619,6.753Zm14.6,4.512c-.242-.967-1.239-1.212-2.12-1.726L46.89,13.63s2,1.485,2.969.725A3.422,3.422,0,0,0,51.219,11.265Zm5.817,10.029,1.091,1.968,2.634-2.7ZM20.355,57.609l1.15.818.487-2.182ZM36.619,6.753A1.9,1.9,0,0,0,34.441,5.51a1.849,1.849,0,0,0-1.364,1.605c-.242,1.243-.394,2.727.6,3.7a2.31,2.31,0,0,0,2.575-.242C37.106,9.6,36.743,7.875,36.619,6.753Zm14.6,4.512c-.242-.967-1.239-1.212-2.12-1.726L46.89,13.63s2,1.485,2.969.725A3.422,3.422,0,0,0,51.219,11.265Zm5.817,10.029,1.091,1.968,2.634-2.7ZM20.355,57.609l1.15.818.487-2.182ZM36.619,6.753A1.9,1.9,0,0,0,34.441,5.51a1.849,1.849,0,0,0-1.364,1.605c-.242,1.243-.394,2.727.6,3.7a2.31,2.31,0,0,0,2.575-.242C37.106,9.6,36.743,7.875,36.619,6.753Zm13.3,51.223c-.483-.728-.877-2.123-2.12-1.882a1.329,1.329,0,0,0-.97,1.85c.425.725.849,2.12,2.12,1.878A1.241,1.241,0,0,0,49.918,57.975Zm1.3-46.71c-.242-.967-1.239-1.212-2.12-1.726L46.89,13.63s2,1.485,2.969.725A3.422,3.422,0,0,0,51.219,11.265Zm5.817,10.029,1.091,1.968,2.634-2.7ZM49.918,57.975c-.483-.728-.877-2.123-2.12-1.882a1.329,1.329,0,0,0-.97,1.85c.425.725.849,2.12,2.12,1.878A1.241,1.241,0,0,0,49.918,57.975Zm-29.563-.366,1.15.818.487-2.182ZM36.619,6.753A1.9,1.9,0,0,0,34.441,5.51a1.849,1.849,0,0,0-1.364,1.605c-.242,1.243-.394,2.727.6,3.7a2.31,2.31,0,0,0,2.575-.242C37.106,9.6,36.743,7.875,36.619,6.753Zm14.6,4.512c-.242-.967-1.239-1.212-2.12-1.726L46.89,13.63s2,1.485,2.969.725A3.422,3.422,0,0,0,51.219,11.265Zm6.908,12,2.634-2.7-3.725.728ZM35.014,1.906A33.093,33.093,0,1,0,68.122,35.014,33.114,33.114,0,0,0,35.014,1.906ZM47.86,6.967c2,1.087,4.45,1.726,5.693,3.936a4.7,4.7,0,0,1-.728,4.06,3.9,3.9,0,0,1-3.211,1.878c-2-.362-3.694-1.605-5.662-2.817ZM30.35,6.359c.487-1.847,2.607-2.33,4.333-2.455a5.652,5.652,0,0,1,4.15,1.333,6.147,6.147,0,0,1,.756,4.454,3.554,3.554,0,0,1-2.6,2.607c-1.94.242-4.3.725-6.028-1.122A6,6,0,0,1,30.35,6.359ZM20.293,7.906l2.244-1.184c.242,1.243-.152,3-.183,4.364,1.453.908,3.273,1.512,4.726,2.544l-2.486,1.181-4.36-2.272Zm-2.33,1.453,4.543,6.663L20.6,17.445l-4.512-6.753Zm-11.148,9.9.97-.152-.456-.787c.214-.3.362-.639.577-.939l.545,1L7.543,20.02c-.273.031-.76.09-1.06.121C6.542,19.93,6.815,19.264,6.815,19.264Zm6.908,6.663-1.364-.849c1-.877,2.451-2.21,1.847-3.573-1.909-.939-2.213,2.575-4.181,2.575a2.579,2.579,0,0,1-2.361-1.605,6.592,6.592,0,0,1-.121-1,4.379,4.379,0,0,1,.6-2.089,9.99,9.99,0,0,1,.76-1.091l1.119-1.243,1.091.88c-.728.846-1.605,1.605-1.726,2.693,0,.366.331.818.756.76,1.212-1,2.455-3.09,4.181-2.607A2.412,2.412,0,0,1,16.3,20.383C16.81,22.6,15.2,24.474,13.723,25.927Zm8.721,36.167L20.6,60.91l.394-1.3-1.664-1.239-1.212.818c-.487-.425-.939-.849-1.395-1.274l4.816-3.573,2.486,1.485Zm9.149,1.788c-.849.635-2.21.269-3.09,0a2.114,2.114,0,0,1-1.636-2.334l.911-3.818,1.878.394-.728,4c-.031.635,1.15,1.06,1.574.39.152-.452.545-2.693.787-4.057.635.152,1.364.3,1.847.425C32.987,59.912,32.835,62.788,31.593,63.882Zm9.511.028-1.94.394-.877-4.422-1.516.363-.3-1.333L41.5,57.792l.362,1.333-1.633.394Zm10.026-4.119a4.2,4.2,0,0,1-3.452,1.485A3.581,3.581,0,0,1,45.1,58.942a2.71,2.71,0,0,1,.483-2.724,5.744,5.744,0,0,1,3.335-1.605c1.239,0,2.361,1.364,2.845,2.451A2.284,2.284,0,0,1,51.129,59.791ZM35.014,55.673A20.673,20.673,0,1,1,55.673,35.014,20.691,20.691,0,0,1,35.014,55.673Zm21.84-27.322L55.7,25.9,57.157,24.5l-1.636-2.814-1.847.421-1.395-1.968,8.876-1.485,1.757,2.938ZM51.219,11.265c-.242-.967-1.239-1.212-2.12-1.726L46.89,13.63s2,1.485,2.969.725A3.422,3.422,0,0,0,51.219,11.265ZM47.8,56.094a1.329,1.329,0,0,0-.97,1.85c.425.725.849,2.12,2.12,1.878a1.241,1.241,0,0,0,.97-1.847C49.434,57.247,49.041,55.852,47.8,56.094ZM36.257,10.571c.849-.97.487-2.7.362-3.818A1.9,1.9,0,0,0,34.441,5.51a1.849,1.849,0,0,0-1.364,1.605c-.242,1.243-.394,2.727.6,3.7A2.31,2.31,0,0,0,36.257,10.571ZM21.5,58.428l.487-2.182-1.636,1.364ZM57.036,21.294l1.091,1.968,2.634-2.7ZM51.219,11.265c-.242-.967-1.239-1.212-2.12-1.726L46.89,13.63s2,1.485,2.969.725A3.422,3.422,0,0,0,51.219,11.265Zm-14.6-4.512A1.9,1.9,0,0,0,34.441,5.51a1.849,1.849,0,0,0-1.364,1.605c-.242,1.243-.394,2.727.6,3.7a2.31,2.31,0,0,0,2.575-.242C37.106,9.6,36.743,7.875,36.619,6.753ZM20.355,57.609l1.15.818.487-2.182ZM57.036,21.294l1.091,1.968,2.634-2.7ZM51.219,11.265c-.242-.967-1.239-1.212-2.12-1.726L46.89,13.63s2,1.485,2.969.725A3.422,3.422,0,0,0,51.219,11.265Zm-14.6-4.512A1.9,1.9,0,0,0,34.441,5.51a1.849,1.849,0,0,0-1.364,1.605c-.242,1.243-.394,2.727.6,3.7a2.31,2.31,0,0,0,2.575-.242C37.106,9.6,36.743,7.875,36.619,6.753ZM20.355,57.609l1.15.818.487-2.182ZM57.036,21.294l1.091,1.968,2.634-2.7ZM51.219,11.265c-.242-.967-1.239-1.212-2.12-1.726L46.89,13.63s2,1.485,2.969.725A3.422,3.422,0,0,0,51.219,11.265Zm-14.6-4.512A1.9,1.9,0,0,0,34.441,5.51a1.849,1.849,0,0,0-1.364,1.605c-.242,1.243-.394,2.727.6,3.7a2.31,2.31,0,0,0,2.575-.242C37.106,9.6,36.743,7.875,36.619,6.753ZM20.355,57.609l1.15.818.487-2.182ZM57.036,21.294l1.091,1.968,2.634-2.7ZM51.219,11.265c-.242-.967-1.239-1.212-2.12-1.726L46.89,13.63s2,1.485,2.969.725A3.422,3.422,0,0,0,51.219,11.265Zm-14.6-4.512A1.9,1.9,0,0,0,34.441,5.51a1.849,1.849,0,0,0-1.364,1.605c-.242,1.243-.394,2.727.6,3.7a2.31,2.31,0,0,0,2.575-.242C37.106,9.6,36.743,7.875,36.619,6.753ZM20.355,57.609l1.15.818.487-2.182ZM57.036,21.294l1.091,1.968,2.634-2.7ZM36.619,6.753A1.9,1.9,0,0,0,34.441,5.51a1.849,1.849,0,0,0-1.364,1.605c-.242,1.243-.394,2.727.6,3.7a2.31,2.31,0,0,0,2.575-.242C37.106,9.6,36.743,7.875,36.619,6.753Zm14.6,4.512c-.242-.967-1.239-1.212-2.12-1.726L46.89,13.63s2,1.485,2.969.725A3.422,3.422,0,0,0,51.219,11.265Zm5.817,10.029,1.091,1.968,2.634-2.7ZM51.219,11.265c-.242-.967-1.239-1.212-2.12-1.726L46.89,13.63s2,1.485,2.969.725A3.422,3.422,0,0,0,51.219,11.265Zm-14.6-4.512A1.9,1.9,0,0,0,34.441,5.51a1.849,1.849,0,0,0-1.364,1.605c-.242,1.243-.394,2.727.6,3.7a2.31,2.31,0,0,0,2.575-.242C37.106,9.6,36.743,7.875,36.619,6.753ZM57.036,21.294l1.091,1.968,2.634-2.7ZM36.619,6.753A1.9,1.9,0,0,0,34.441,5.51a1.849,1.849,0,0,0-1.364,1.605c-.242,1.243-.394,2.727.6,3.7a2.31,2.31,0,0,0,2.575-.242C37.106,9.6,36.743,7.875,36.619,6.753Zm14.6,4.512c-.242-.967-1.239-1.212-2.12-1.726L46.89,13.63s2,1.485,2.969.725A3.422,3.422,0,0,0,51.219,11.265Zm5.817,10.029,1.091,1.968,2.634-2.7ZM51.219,11.265c-.242-.967-1.239-1.212-2.12-1.726L46.89,13.63s2,1.485,2.969.725A3.422,3.422,0,0,0,51.219,11.265Zm-14.6-4.512A1.9,1.9,0,0,0,34.441,5.51a1.849,1.849,0,0,0-1.364,1.605c-.242,1.243-.394,2.727.6,3.7a2.31,2.31,0,0,0,2.575-.242C37.106,9.6,36.743,7.875,36.619,6.753ZM57.036,21.294l1.091,1.968,2.634-2.7ZM51.219,11.265c-.242-.967-1.239-1.212-2.12-1.726L46.89,13.63s2,1.485,2.969.725A3.422,3.422,0,0,0,51.219,11.265Zm5.817,10.029,1.091,1.968,2.634-2.7ZM51.219,11.265c-.242-.967-1.239-1.212-2.12-1.726L46.89,13.63s2,1.485,2.969.725A3.422,3.422,0,0,0,51.219,11.265Z" transform="translate(0 0)" fill="#fff"/>
      <path id="Path_36" data-name="Path 36" d="M76.394,72.39c-.514.639.394,1.3-.121,1.819a1.423,1.423,0,0,1-1.543-.545,6.428,6.428,0,0,1,.121-1.395c.18-.787.846-2.724.846-2.724,2.272-8.12-.635-15.781-5.9-21.446-2-2.182-4.7-1.516-7.15-1.274-.756.124-2.12.518-1.395,1.788,0,0,1.878,1.788,2.517,2.455.666.666,1.906,2.178,1.906,2.178a1.13,1.13,0,0,1,.273.942.548.548,0,0,1-.877.242l-2.7-3s-2.272-3-4.391-2.786a9.3,9.3,0,0,0-4.06,2.33A11.772,11.772,0,0,0,51.5,53.734c-.908,1.726.908,1.364,3.756,2.876.97.518,2.455,1.243,2.513,2-.242,1.184-1.087.273-1.906-.148-.639-.335-5.424-3.88-6.939-.545a15.292,15.292,0,0,0-.908,2.151c-.483,1.605-.6,3.238.031,3.725.756.545,1.94.421,3.059.363a5.163,5.163,0,0,1,2.938.545c3.725,1.788,6.269,5.665,5.969,9.176a.359.359,0,0,1-.214.214c-1.15.3-2.272-.7-3.363-1.181-2.876-1.032-7.36-.366-7.54-.062-.394.849,1.937,2,2.451,3.121.514.908.7,2.178,1.485,2.969a5.333,5.333,0,0,0,2.544.059c.577-.152,1.574-1.757,2.12-1.788l18.75.031c.787.514-.394,1.181-.028,1.7,2.572.635,5.089-1.3,6.753-3.335C81.059,73.937,78.939,72.149,76.394,72.39Zm-6.542.273A2.862,2.862,0,1,1,72.7,69.818,2.844,2.844,0,0,1,69.852,72.663Z" transform="translate(-31.172 -30.472)" fill="#fff"/>
      <path id="Path_37" data-name="Path 37" d="M54.84,14.879c-.242-.967-1.239-1.212-2.12-1.726l-2.21,4.091s2,1.485,2.969.725A3.422,3.422,0,0,0,54.84,14.879Zm0,0c-.242-.967-1.239-1.212-2.12-1.726l-2.21,4.091s2,1.485,2.969.725A3.422,3.422,0,0,0,54.84,14.879Zm5.817,10.029,1.091,1.968,2.634-2.7ZM40.24,10.367a1.9,1.9,0,0,0-2.178-1.243A1.849,1.849,0,0,0,36.7,10.73c-.242,1.243-.394,2.727.6,3.7a2.31,2.31,0,0,0,2.575-.242C40.727,13.215,40.364,11.489,40.24,10.367Zm14.6,4.512c-.242-.967-1.239-1.212-2.12-1.726l-2.21,4.091s2,1.485,2.969.725A3.422,3.422,0,0,0,54.84,14.879Zm5.817,10.029,1.091,1.968,2.634-2.7ZM40.24,10.367a1.9,1.9,0,0,0-2.178-1.243A1.849,1.849,0,0,0,36.7,10.73c-.242,1.243-.394,2.727.6,3.7a2.31,2.31,0,0,0,2.575-.242C40.727,13.215,40.364,11.489,40.24,10.367Zm14.6,4.512c-.242-.967-1.239-1.212-2.12-1.726l-2.21,4.091s2,1.485,2.969.725A3.422,3.422,0,0,0,54.84,14.879Zm5.817,10.029,1.091,1.968,2.634-2.7ZM40.24,10.367a1.9,1.9,0,0,0-2.178-1.243A1.849,1.849,0,0,0,36.7,10.73c-.242,1.243-.394,2.727.6,3.7a2.31,2.31,0,0,0,2.575-.242C40.727,13.215,40.364,11.489,40.24,10.367Zm14.6,4.512c-.242-.967-1.239-1.212-2.12-1.726l-2.21,4.091s2,1.485,2.969.725A3.422,3.422,0,0,0,54.84,14.879Zm5.817,10.029,1.091,1.968,2.634-2.7ZM40.24,10.367a1.9,1.9,0,0,0-2.178-1.243A1.849,1.849,0,0,0,36.7,10.73c-.242,1.243-.394,2.727.6,3.7a2.31,2.31,0,0,0,2.575-.242C40.727,13.215,40.364,11.489,40.24,10.367Zm14.6,4.512c-.242-.967-1.239-1.212-2.12-1.726l-2.21,4.091s2,1.485,2.969.725A3.422,3.422,0,0,0,54.84,14.879Zm5.817,10.029,1.091,1.968,2.634-2.7ZM40.24,10.367a1.9,1.9,0,0,0-2.178-1.243A1.849,1.849,0,0,0,36.7,10.73c-.242,1.243-.394,2.727.6,3.7a2.31,2.31,0,0,0,2.575-.242C40.727,13.215,40.364,11.489,40.24,10.367Zm14.6,4.512c-.242-.967-1.239-1.212-2.12-1.726l-2.21,4.091s2,1.485,2.969.725A3.422,3.422,0,0,0,54.84,14.879Zm5.817,10.029,1.091,1.968,2.634-2.7ZM40.24,10.367a1.9,1.9,0,0,0-2.178-1.243A1.849,1.849,0,0,0,36.7,10.73c-.242,1.243-.394,2.727.6,3.7a2.31,2.31,0,0,0,2.575-.242C40.727,13.215,40.364,11.489,40.24,10.367Zm14.6,4.512c-.242-.967-1.239-1.212-2.12-1.726l-2.21,4.091s2,1.485,2.969.725A3.422,3.422,0,0,0,54.84,14.879Zm5.817,10.029,1.091,1.968,2.634-2.7ZM23.976,61.224l1.15.818.487-2.182ZM40.24,10.367a1.9,1.9,0,0,0-2.178-1.243A1.849,1.849,0,0,0,36.7,10.73c-.242,1.243-.394,2.727.6,3.7a2.31,2.31,0,0,0,2.575-.242C40.727,13.215,40.364,11.489,40.24,10.367Zm14.6,4.512c-.242-.967-1.239-1.212-2.12-1.726l-2.21,4.091s2,1.485,2.969.725A3.422,3.422,0,0,0,54.84,14.879Zm5.817,10.029,1.091,1.968,2.634-2.7ZM23.976,61.224l1.15.818.487-2.182ZM40.24,10.367a1.9,1.9,0,0,0-2.178-1.243A1.849,1.849,0,0,0,36.7,10.73c-.242,1.243-.394,2.727.6,3.7a2.31,2.31,0,0,0,2.575-.242C40.727,13.215,40.364,11.489,40.24,10.367Zm14.6,4.512c-.242-.967-1.239-1.212-2.12-1.726l-2.21,4.091s2,1.485,2.969.725A3.422,3.422,0,0,0,54.84,14.879Zm5.817,10.029,1.091,1.968,2.634-2.7ZM23.976,61.224l1.15.818.487-2.182ZM40.24,10.367a1.9,1.9,0,0,0-2.178-1.243A1.849,1.849,0,0,0,36.7,10.73c-.242,1.243-.394,2.727.6,3.7a2.31,2.31,0,0,0,2.575-.242C40.727,13.215,40.364,11.489,40.24,10.367Zm13.3,51.223c-.483-.728-.877-2.123-2.12-1.882a1.329,1.329,0,0,0-.97,1.85c.425.725.849,2.12,2.12,1.878A1.241,1.241,0,0,0,53.538,61.59Zm1.3-46.71c-.242-.967-1.239-1.212-2.12-1.726l-2.21,4.091s2,1.485,2.969.725A3.422,3.422,0,0,0,54.84,14.879Zm5.817,10.029,1.091,1.968,2.634-2.7ZM53.538,61.59c-.483-.728-.877-2.123-2.12-1.882a1.329,1.329,0,0,0-.97,1.85c.425.725.849,2.12,2.12,1.878A1.241,1.241,0,0,0,53.538,61.59Zm-29.563-.366,1.15.818.487-2.182ZM40.24,10.367a1.9,1.9,0,0,0-2.178-1.243A1.849,1.849,0,0,0,36.7,10.73c-.242,1.243-.394,2.727.6,3.7a2.31,2.31,0,0,0,2.575-.242C40.727,13.215,40.364,11.489,40.24,10.367Zm14.6,4.512c-.242-.967-1.239-1.212-2.12-1.726l-2.21,4.091s2,1.485,2.969.725A3.422,3.422,0,0,0,54.84,14.879Zm6.908,12,2.634-2.7-3.725.728ZM38.635,5.52A33.093,33.093,0,1,0,71.743,38.628,33.114,33.114,0,0,0,38.635,5.52Zm12.846,5.061c2,1.087,4.45,1.726,5.693,3.936a4.7,4.7,0,0,1-.728,4.06,3.9,3.9,0,0,1-3.211,1.878c-2-.362-3.694-1.605-5.662-2.817Zm-17.51-.608c.487-1.847,2.607-2.33,4.333-2.455a5.652,5.652,0,0,1,4.15,1.333,6.147,6.147,0,0,1,.756,4.454,3.554,3.554,0,0,1-2.6,2.607c-1.94.242-4.3.725-6.028-1.122A6,6,0,0,1,33.971,9.974ZM23.914,11.52l2.244-1.184c.242,1.243-.152,3-.183,4.364,1.453.908,3.273,1.512,4.726,2.544l-2.486,1.181-4.36-2.272Zm-2.33,1.453,4.543,6.663-1.909,1.422-4.512-6.753Zm-11.148,9.9.97-.152-.456-.787c.214-.3.362-.639.577-.939l.545,1-.908,1.636c-.273.031-.76.09-1.06.121C10.163,23.545,10.436,22.878,10.436,22.878Zm6.908,6.663-1.364-.849c1-.877,2.451-2.21,1.847-3.573-1.909-.939-2.213,2.575-4.181,2.575a2.579,2.579,0,0,1-2.361-1.605,6.592,6.592,0,0,1-.121-1,4.379,4.379,0,0,1,.6-2.089,9.99,9.99,0,0,1,.76-1.091l1.119-1.243,1.091.88c-.728.846-1.605,1.605-1.726,2.693,0,.366.331.818.756.76,1.212-1,2.455-3.09,4.181-2.607A2.412,2.412,0,0,1,19.916,24C20.43,26.21,18.825,28.088,17.344,29.541Zm8.721,36.167-1.847-1.184.394-1.3-1.664-1.239-1.212.818c-.487-.425-.939-.849-1.395-1.274l4.816-3.573,2.486,1.485ZM35.213,67.5c-.849.635-2.21.269-3.09,0a2.114,2.114,0,0,1-1.636-2.334l.911-3.818,1.878.394-.728,4c-.031.635,1.15,1.06,1.574.39.152-.452.545-2.693.787-4.057.635.152,1.364.3,1.847.425C36.608,63.526,36.456,66.4,35.213,67.5Zm9.511.028-1.94.394L41.907,63.5l-1.516.363-.3-1.333,5.027-1.119.362,1.333-1.633.394ZM54.75,63.406A4.2,4.2,0,0,1,51.3,64.89a3.581,3.581,0,0,1-2.575-2.334,2.71,2.71,0,0,1,.483-2.724,5.744,5.744,0,0,1,3.335-1.605c1.239,0,2.361,1.364,2.845,2.451A2.284,2.284,0,0,1,54.75,63.406ZM38.635,59.287A20.673,20.673,0,1,1,59.294,38.628,20.691,20.691,0,0,1,38.635,59.287Zm21.84-27.322-1.15-2.455,1.453-1.395L59.142,25.3l-1.847.421L55.9,23.755l8.876-1.485,1.757,2.938ZM54.84,14.879c-.242-.967-1.239-1.212-2.12-1.726l-2.21,4.091s2,1.485,2.969.725A3.422,3.422,0,0,0,54.84,14.879ZM51.419,59.708a1.329,1.329,0,0,0-.97,1.85c.425.725.849,2.12,2.12,1.878a1.241,1.241,0,0,0,.97-1.847C53.055,60.861,52.662,59.467,51.419,59.708ZM39.878,14.185c.849-.97.487-2.7.362-3.818a1.9,1.9,0,0,0-2.178-1.243A1.849,1.849,0,0,0,36.7,10.73c-.242,1.243-.394,2.727.6,3.7A2.31,2.31,0,0,0,39.878,14.185ZM25.126,62.042l.487-2.182-1.636,1.364ZM60.657,24.908l1.091,1.968,2.634-2.7ZM54.84,14.879c-.242-.967-1.239-1.212-2.12-1.726l-2.21,4.091s2,1.485,2.969.725A3.422,3.422,0,0,0,54.84,14.879Zm-14.6-4.512a1.9,1.9,0,0,0-2.178-1.243A1.849,1.849,0,0,0,36.7,10.73c-.242,1.243-.394,2.727.6,3.7a2.31,2.31,0,0,0,2.575-.242C40.727,13.215,40.364,11.489,40.24,10.367ZM23.976,61.224l1.15.818.487-2.182ZM60.657,24.908l1.091,1.968,2.634-2.7ZM54.84,14.879c-.242-.967-1.239-1.212-2.12-1.726l-2.21,4.091s2,1.485,2.969.725A3.422,3.422,0,0,0,54.84,14.879Zm-14.6-4.512a1.9,1.9,0,0,0-2.178-1.243A1.849,1.849,0,0,0,36.7,10.73c-.242,1.243-.394,2.727.6,3.7a2.31,2.31,0,0,0,2.575-.242C40.727,13.215,40.364,11.489,40.24,10.367ZM23.976,61.224l1.15.818.487-2.182ZM60.657,24.908l1.091,1.968,2.634-2.7ZM54.84,14.879c-.242-.967-1.239-1.212-2.12-1.726l-2.21,4.091s2,1.485,2.969.725A3.422,3.422,0,0,0,54.84,14.879Zm-14.6-4.512a1.9,1.9,0,0,0-2.178-1.243A1.849,1.849,0,0,0,36.7,10.73c-.242,1.243-.394,2.727.6,3.7a2.31,2.31,0,0,0,2.575-.242C40.727,13.215,40.364,11.489,40.24,10.367ZM23.976,61.224l1.15.818.487-2.182ZM60.657,24.908l1.091,1.968,2.634-2.7ZM54.84,14.879c-.242-.967-1.239-1.212-2.12-1.726l-2.21,4.091s2,1.485,2.969.725A3.422,3.422,0,0,0,54.84,14.879Zm-14.6-4.512a1.9,1.9,0,0,0-2.178-1.243A1.849,1.849,0,0,0,36.7,10.73c-.242,1.243-.394,2.727.6,3.7a2.31,2.31,0,0,0,2.575-.242C40.727,13.215,40.364,11.489,40.24,10.367ZM23.976,61.224l1.15.818.487-2.182ZM60.657,24.908l1.091,1.968,2.634-2.7ZM54.84,14.879c-.242-.967-1.239-1.212-2.12-1.726l-2.21,4.091s2,1.485,2.969.725A3.422,3.422,0,0,0,54.84,14.879Zm-14.6-4.512a1.9,1.9,0,0,0-2.178-1.243A1.849,1.849,0,0,0,36.7,10.73c-.242,1.243-.394,2.727.6,3.7a2.31,2.31,0,0,0,2.575-.242C40.727,13.215,40.364,11.489,40.24,10.367ZM60.657,24.908l1.091,1.968,2.634-2.7ZM54.84,14.879c-.242-.967-1.239-1.212-2.12-1.726l-2.21,4.091s2,1.485,2.969.725A3.422,3.422,0,0,0,54.84,14.879Zm-14.6-4.512a1.9,1.9,0,0,0-2.178-1.243A1.849,1.849,0,0,0,36.7,10.73c-.242,1.243-.394,2.727.6,3.7a2.31,2.31,0,0,0,2.575-.242C40.727,13.215,40.364,11.489,40.24,10.367ZM60.657,24.908l1.091,1.968,2.634-2.7ZM54.84,14.879c-.242-.967-1.239-1.212-2.12-1.726l-2.21,4.091s2,1.485,2.969.725A3.422,3.422,0,0,0,54.84,14.879Zm-14.6-4.512a1.9,1.9,0,0,0-2.178-1.243A1.849,1.849,0,0,0,36.7,10.73c-.242,1.243-.394,2.727.6,3.7a2.31,2.31,0,0,0,2.575-.242C40.727,13.215,40.364,11.489,40.24,10.367ZM60.657,24.908l1.091,1.968,2.634-2.7ZM54.84,14.879c-.242-.967-1.239-1.212-2.12-1.726l-2.21,4.091s2,1.485,2.969.725A3.422,3.422,0,0,0,54.84,14.879Zm-14.6-4.512a1.9,1.9,0,0,0-2.178-1.243A1.849,1.849,0,0,0,36.7,10.73c-.242,1.243-.394,2.727.6,3.7a2.31,2.31,0,0,0,2.575-.242C40.727,13.215,40.364,11.489,40.24,10.367ZM60.657,24.908l1.091,1.968,2.634-2.7ZM54.84,14.879c-.242-.967-1.239-1.212-2.12-1.726l-2.21,4.091s2,1.485,2.969.725A3.422,3.422,0,0,0,54.84,14.879Zm5.817,10.029,1.091,1.968,2.634-2.7ZM54.84,14.879c-.242-.967-1.239-1.212-2.12-1.726l-2.21,4.091s2,1.485,2.969.725A3.422,3.422,0,0,0,54.84,14.879Z" transform="translate(-3.621 -3.614)" fill="#fff"/>
      <path id="Path_38" data-name="Path 38" d="M76.394,72.39c-.514.639.394,1.3-.121,1.819a1.423,1.423,0,0,1-1.543-.545,6.428,6.428,0,0,1,.121-1.395c.18-.787.846-2.724.846-2.724,2.272-8.12-.635-15.781-5.9-21.446-2-2.182-4.7-1.516-7.15-1.274-.756.124-2.12.518-1.395,1.788,0,0,1.878,1.788,2.517,2.455.666.666,1.906,2.178,1.906,2.178a1.13,1.13,0,0,1,.273.942.548.548,0,0,1-.877.242l-2.7-3s-2.272-3-4.391-2.786a9.3,9.3,0,0,0-4.06,2.33A11.772,11.772,0,0,0,51.5,53.734c-.908,1.726.908,1.364,3.756,2.876.97.518,2.455,1.243,2.513,2-.242,1.184-1.087.273-1.906-.148-.639-.335-5.424-3.88-6.939-.545a15.292,15.292,0,0,0-.908,2.151c-.483,1.605-.6,3.238.031,3.725.756.545,1.94.421,3.059.363a5.163,5.163,0,0,1,2.938.545c3.725,1.788,6.269,5.665,5.969,9.176a.359.359,0,0,1-.214.214c-1.15.3-2.272-.7-3.363-1.181-2.876-1.032-7.36-.366-7.54-.062-.394.849,1.937,2,2.451,3.121.514.908.7,2.178,1.485,2.969a5.333,5.333,0,0,0,2.544.059c.577-.152,1.574-1.757,2.12-1.788l18.75.031c.787.514-.394,1.181-.028,1.7,2.572.635,5.089-1.3,6.753-3.335C81.059,73.937,78.939,72.149,76.394,72.39Zm-6.542.273A2.862,2.862,0,1,1,72.7,69.818,2.844,2.844,0,0,1,69.852,72.663Z" transform="translate(-31.172 -30.472)" fill="#fff"/>
      <path id="Path_39" data-name="Path 39" d="M54.84,14.879c-.242-.967-1.239-1.212-2.12-1.726l-2.21,4.091s2,1.485,2.969.725A3.422,3.422,0,0,0,54.84,14.879Zm0,0c-.242-.967-1.239-1.212-2.12-1.726l-2.21,4.091s2,1.485,2.969.725A3.422,3.422,0,0,0,54.84,14.879Zm5.817,10.029,1.091,1.968,2.634-2.7ZM40.24,10.367a1.9,1.9,0,0,0-2.178-1.243A1.849,1.849,0,0,0,36.7,10.73c-.242,1.243-.394,2.727.6,3.7a2.31,2.31,0,0,0,2.575-.242C40.727,13.215,40.364,11.489,40.24,10.367Zm14.6,4.512c-.242-.967-1.239-1.212-2.12-1.726l-2.21,4.091s2,1.485,2.969.725A3.422,3.422,0,0,0,54.84,14.879Zm5.817,10.029,1.091,1.968,2.634-2.7ZM40.24,10.367a1.9,1.9,0,0,0-2.178-1.243A1.849,1.849,0,0,0,36.7,10.73c-.242,1.243-.394,2.727.6,3.7a2.31,2.31,0,0,0,2.575-.242C40.727,13.215,40.364,11.489,40.24,10.367Zm14.6,4.512c-.242-.967-1.239-1.212-2.12-1.726l-2.21,4.091s2,1.485,2.969.725A3.422,3.422,0,0,0,54.84,14.879Zm5.817,10.029,1.091,1.968,2.634-2.7ZM40.24,10.367a1.9,1.9,0,0,0-2.178-1.243A1.849,1.849,0,0,0,36.7,10.73c-.242,1.243-.394,2.727.6,3.7a2.31,2.31,0,0,0,2.575-.242C40.727,13.215,40.364,11.489,40.24,10.367Zm14.6,4.512c-.242-.967-1.239-1.212-2.12-1.726l-2.21,4.091s2,1.485,2.969.725A3.422,3.422,0,0,0,54.84,14.879Zm5.817,10.029,1.091,1.968,2.634-2.7ZM40.24,10.367a1.9,1.9,0,0,0-2.178-1.243A1.849,1.849,0,0,0,36.7,10.73c-.242,1.243-.394,2.727.6,3.7a2.31,2.31,0,0,0,2.575-.242C40.727,13.215,40.364,11.489,40.24,10.367Zm14.6,4.512c-.242-.967-1.239-1.212-2.12-1.726l-2.21,4.091s2,1.485,2.969.725A3.422,3.422,0,0,0,54.84,14.879Zm5.817,10.029,1.091,1.968,2.634-2.7ZM40.24,10.367a1.9,1.9,0,0,0-2.178-1.243A1.849,1.849,0,0,0,36.7,10.73c-.242,1.243-.394,2.727.6,3.7a2.31,2.31,0,0,0,2.575-.242C40.727,13.215,40.364,11.489,40.24,10.367Zm14.6,4.512c-.242-.967-1.239-1.212-2.12-1.726l-2.21,4.091s2,1.485,2.969.725A3.422,3.422,0,0,0,54.84,14.879Zm5.817,10.029,1.091,1.968,2.634-2.7ZM40.24,10.367a1.9,1.9,0,0,0-2.178-1.243A1.849,1.849,0,0,0,36.7,10.73c-.242,1.243-.394,2.727.6,3.7a2.31,2.31,0,0,0,2.575-.242C40.727,13.215,40.364,11.489,40.24,10.367Zm14.6,4.512c-.242-.967-1.239-1.212-2.12-1.726l-2.21,4.091s2,1.485,2.969.725A3.422,3.422,0,0,0,54.84,14.879Zm5.817,10.029,1.091,1.968,2.634-2.7ZM23.976,61.224l1.15.818.487-2.182ZM40.24,10.367a1.9,1.9,0,0,0-2.178-1.243A1.849,1.849,0,0,0,36.7,10.73c-.242,1.243-.394,2.727.6,3.7a2.31,2.31,0,0,0,2.575-.242C40.727,13.215,40.364,11.489,40.24,10.367Zm14.6,4.512c-.242-.967-1.239-1.212-2.12-1.726l-2.21,4.091s2,1.485,2.969.725A3.422,3.422,0,0,0,54.84,14.879Zm5.817,10.029,1.091,1.968,2.634-2.7ZM23.976,61.224l1.15.818.487-2.182ZM40.24,10.367a1.9,1.9,0,0,0-2.178-1.243A1.849,1.849,0,0,0,36.7,10.73c-.242,1.243-.394,2.727.6,3.7a2.31,2.31,0,0,0,2.575-.242C40.727,13.215,40.364,11.489,40.24,10.367Zm14.6,4.512c-.242-.967-1.239-1.212-2.12-1.726l-2.21,4.091s2,1.485,2.969.725A3.422,3.422,0,0,0,54.84,14.879Zm5.817,10.029,1.091,1.968,2.634-2.7ZM23.976,61.224l1.15.818.487-2.182ZM40.24,10.367a1.9,1.9,0,0,0-2.178-1.243A1.849,1.849,0,0,0,36.7,10.73c-.242,1.243-.394,2.727.6,3.7a2.31,2.31,0,0,0,2.575-.242C40.727,13.215,40.364,11.489,40.24,10.367Zm13.3,51.223c-.483-.728-.877-2.123-2.12-1.882a1.329,1.329,0,0,0-.97,1.85c.425.725.849,2.12,2.12,1.878A1.241,1.241,0,0,0,53.538,61.59Zm1.3-46.71c-.242-.967-1.239-1.212-2.12-1.726l-2.21,4.091s2,1.485,2.969.725A3.422,3.422,0,0,0,54.84,14.879Zm5.817,10.029,1.091,1.968,2.634-2.7ZM53.538,61.59c-.483-.728-.877-2.123-2.12-1.882a1.329,1.329,0,0,0-.97,1.85c.425.725.849,2.12,2.12,1.878A1.241,1.241,0,0,0,53.538,61.59Zm-29.563-.366,1.15.818.487-2.182ZM40.24,10.367a1.9,1.9,0,0,0-2.178-1.243A1.849,1.849,0,0,0,36.7,10.73c-.242,1.243-.394,2.727.6,3.7a2.31,2.31,0,0,0,2.575-.242C40.727,13.215,40.364,11.489,40.24,10.367Zm14.6,4.512c-.242-.967-1.239-1.212-2.12-1.726l-2.21,4.091s2,1.485,2.969.725A3.422,3.422,0,0,0,54.84,14.879Zm6.908,12,2.634-2.7-3.725.728ZM38.635,5.52A33.093,33.093,0,1,0,71.743,38.628,33.114,33.114,0,0,0,38.635,5.52Zm12.846,5.061c2,1.087,4.45,1.726,5.693,3.936a4.7,4.7,0,0,1-.728,4.06,3.9,3.9,0,0,1-3.211,1.878c-2-.362-3.694-1.605-5.662-2.817Zm-17.51-.608c.487-1.847,2.607-2.33,4.333-2.455a5.652,5.652,0,0,1,4.15,1.333,6.147,6.147,0,0,1,.756,4.454,3.554,3.554,0,0,1-2.6,2.607c-1.94.242-4.3.725-6.028-1.122A6,6,0,0,1,33.971,9.974ZM23.914,11.52l2.244-1.184c.242,1.243-.152,3-.183,4.364,1.453.908,3.273,1.512,4.726,2.544l-2.486,1.181-4.36-2.272Zm-2.33,1.453,4.543,6.663-1.909,1.422-4.512-6.753Zm-11.148,9.9.97-.152-.456-.787c.214-.3.362-.639.577-.939l.545,1-.908,1.636c-.273.031-.76.09-1.06.121C10.163,23.545,10.436,22.878,10.436,22.878Zm6.908,6.663-1.364-.849c1-.877,2.451-2.21,1.847-3.573-1.909-.939-2.213,2.575-4.181,2.575a2.579,2.579,0,0,1-2.361-1.605,6.592,6.592,0,0,1-.121-1,4.379,4.379,0,0,1,.6-2.089,9.99,9.99,0,0,1,.76-1.091l1.119-1.243,1.091.88c-.728.846-1.605,1.605-1.726,2.693,0,.366.331.818.756.76,1.212-1,2.455-3.09,4.181-2.607A2.412,2.412,0,0,1,19.916,24C20.43,26.21,18.825,28.088,17.344,29.541Zm8.721,36.167-1.847-1.184.394-1.3-1.664-1.239-1.212.818c-.487-.425-.939-.849-1.395-1.274l4.816-3.573,2.486,1.485ZM35.213,67.5c-.849.635-2.21.269-3.09,0a2.114,2.114,0,0,1-1.636-2.334l.911-3.818,1.878.394-.728,4c-.031.635,1.15,1.06,1.574.39.152-.452.545-2.693.787-4.057.635.152,1.364.3,1.847.425C36.608,63.526,36.456,66.4,35.213,67.5Zm9.511.028-1.94.394L41.907,63.5l-1.516.363-.3-1.333,5.027-1.119.362,1.333-1.633.394ZM54.75,63.406A4.2,4.2,0,0,1,51.3,64.89a3.581,3.581,0,0,1-2.575-2.334,2.71,2.71,0,0,1,.483-2.724,5.744,5.744,0,0,1,3.335-1.605c1.239,0,2.361,1.364,2.845,2.451A2.284,2.284,0,0,1,54.75,63.406ZM38.635,59.287A20.673,20.673,0,1,1,59.294,38.628,20.691,20.691,0,0,1,38.635,59.287Zm21.84-27.322-1.15-2.455,1.453-1.395L59.142,25.3l-1.847.421L55.9,23.755l8.876-1.485,1.757,2.938ZM54.84,14.879c-.242-.967-1.239-1.212-2.12-1.726l-2.21,4.091s2,1.485,2.969.725A3.422,3.422,0,0,0,54.84,14.879ZM51.419,59.708a1.329,1.329,0,0,0-.97,1.85c.425.725.849,2.12,2.12,1.878a1.241,1.241,0,0,0,.97-1.847C53.055,60.861,52.662,59.467,51.419,59.708ZM39.878,14.185c.849-.97.487-2.7.362-3.818a1.9,1.9,0,0,0-2.178-1.243A1.849,1.849,0,0,0,36.7,10.73c-.242,1.243-.394,2.727.6,3.7A2.31,2.31,0,0,0,39.878,14.185ZM25.126,62.042l.487-2.182-1.636,1.364ZM60.657,24.908l1.091,1.968,2.634-2.7ZM54.84,14.879c-.242-.967-1.239-1.212-2.12-1.726l-2.21,4.091s2,1.485,2.969.725A3.422,3.422,0,0,0,54.84,14.879Zm-14.6-4.512a1.9,1.9,0,0,0-2.178-1.243A1.849,1.849,0,0,0,36.7,10.73c-.242,1.243-.394,2.727.6,3.7a2.31,2.31,0,0,0,2.575-.242C40.727,13.215,40.364,11.489,40.24,10.367ZM23.976,61.224l1.15.818.487-2.182ZM60.657,24.908l1.091,1.968,2.634-2.7ZM54.84,14.879c-.242-.967-1.239-1.212-2.12-1.726l-2.21,4.091s2,1.485,2.969.725A3.422,3.422,0,0,0,54.84,14.879Zm-14.6-4.512a1.9,1.9,0,0,0-2.178-1.243A1.849,1.849,0,0,0,36.7,10.73c-.242,1.243-.394,2.727.6,3.7a2.31,2.31,0,0,0,2.575-.242C40.727,13.215,40.364,11.489,40.24,10.367ZM23.976,61.224l1.15.818.487-2.182ZM60.657,24.908l1.091,1.968,2.634-2.7ZM54.84,14.879c-.242-.967-1.239-1.212-2.12-1.726l-2.21,4.091s2,1.485,2.969.725A3.422,3.422,0,0,0,54.84,14.879Zm-14.6-4.512a1.9,1.9,0,0,0-2.178-1.243A1.849,1.849,0,0,0,36.7,10.73c-.242,1.243-.394,2.727.6,3.7a2.31,2.31,0,0,0,2.575-.242C40.727,13.215,40.364,11.489,40.24,10.367ZM23.976,61.224l1.15.818.487-2.182ZM60.657,24.908l1.091,1.968,2.634-2.7ZM54.84,14.879c-.242-.967-1.239-1.212-2.12-1.726l-2.21,4.091s2,1.485,2.969.725A3.422,3.422,0,0,0,54.84,14.879Zm-14.6-4.512a1.9,1.9,0,0,0-2.178-1.243A1.849,1.849,0,0,0,36.7,10.73c-.242,1.243-.394,2.727.6,3.7a2.31,2.31,0,0,0,2.575-.242C40.727,13.215,40.364,11.489,40.24,10.367ZM23.976,61.224l1.15.818.487-2.182ZM60.657,24.908l1.091,1.968,2.634-2.7ZM54.84,14.879c-.242-.967-1.239-1.212-2.12-1.726l-2.21,4.091s2,1.485,2.969.725A3.422,3.422,0,0,0,54.84,14.879Zm-14.6-4.512a1.9,1.9,0,0,0-2.178-1.243A1.849,1.849,0,0,0,36.7,10.73c-.242,1.243-.394,2.727.6,3.7a2.31,2.31,0,0,0,2.575-.242C40.727,13.215,40.364,11.489,40.24,10.367ZM60.657,24.908l1.091,1.968,2.634-2.7ZM54.84,14.879c-.242-.967-1.239-1.212-2.12-1.726l-2.21,4.091s2,1.485,2.969.725A3.422,3.422,0,0,0,54.84,14.879Zm-14.6-4.512a1.9,1.9,0,0,0-2.178-1.243A1.849,1.849,0,0,0,36.7,10.73c-.242,1.243-.394,2.727.6,3.7a2.31,2.31,0,0,0,2.575-.242C40.727,13.215,40.364,11.489,40.24,10.367ZM60.657,24.908l1.091,1.968,2.634-2.7ZM54.84,14.879c-.242-.967-1.239-1.212-2.12-1.726l-2.21,4.091s2,1.485,2.969.725A3.422,3.422,0,0,0,54.84,14.879Zm-14.6-4.512a1.9,1.9,0,0,0-2.178-1.243A1.849,1.849,0,0,0,36.7,10.73c-.242,1.243-.394,2.727.6,3.7a2.31,2.31,0,0,0,2.575-.242C40.727,13.215,40.364,11.489,40.24,10.367ZM60.657,24.908l1.091,1.968,2.634-2.7ZM54.84,14.879c-.242-.967-1.239-1.212-2.12-1.726l-2.21,4.091s2,1.485,2.969.725A3.422,3.422,0,0,0,54.84,14.879Zm-14.6-4.512a1.9,1.9,0,0,0-2.178-1.243A1.849,1.849,0,0,0,36.7,10.73c-.242,1.243-.394,2.727.6,3.7a2.31,2.31,0,0,0,2.575-.242C40.727,13.215,40.364,11.489,40.24,10.367ZM60.657,24.908l1.091,1.968,2.634-2.7ZM54.84,14.879c-.242-.967-1.239-1.212-2.12-1.726l-2.21,4.091s2,1.485,2.969.725A3.422,3.422,0,0,0,54.84,14.879Zm5.817,10.029,1.091,1.968,2.634-2.7ZM54.84,14.879c-.242-.967-1.239-1.212-2.12-1.726l-2.21,4.091s2,1.485,2.969.725A3.422,3.422,0,0,0,54.84,14.879Z" transform="translate(-3.621 -3.614)" fill="#fff"/>
      <path id="Path_40" data-name="Path 40" d="M76.394,52.326c-.514.639.394,1.3-.121,1.819A1.423,1.423,0,0,1,74.73,53.6a6.428,6.428,0,0,1,.121-1.395c.18-.787.846-2.724.846-2.724,2.272-8.12-.635-15.781-5.9-21.446-2-2.182-4.7-1.516-7.15-1.274-.756.124-2.12.518-1.395,1.788,0,0,1.878,1.788,2.517,2.455.666.666,1.906,2.178,1.906,2.178a1.13,1.13,0,0,1,.273.942.548.548,0,0,1-.877.242l-2.7-3s-2.272-3-4.391-2.786a9.3,9.3,0,0,0-4.06,2.33A11.772,11.772,0,0,0,51.5,33.67c-.908,1.726.908,1.364,3.756,2.876.97.518,2.455,1.243,2.513,2-.242,1.184-1.087.273-1.906-.148-.639-.335-5.424-3.88-6.939-.545A15.292,15.292,0,0,0,48.013,40c-.483,1.605-.6,3.238.031,3.725.756.545,1.94.421,3.059.362a5.163,5.163,0,0,1,2.938.545c3.725,1.788,6.269,5.665,5.969,9.176a.359.359,0,0,1-.214.214c-1.15.3-2.272-.7-3.363-1.181-2.876-1.032-7.36-.366-7.54-.062-.394.849,1.937,2,2.451,3.121.514.908.7,2.178,1.485,2.969a5.333,5.333,0,0,0,2.544.059c.577-.152,1.574-1.757,2.12-1.788l18.75.031c.787.514-.394,1.181-.028,1.7,2.572.635,5.089-1.3,6.753-3.335C81.059,53.873,78.939,52.085,76.394,52.326Zm-6.542.273A2.862,2.862,0,1,1,72.7,49.754,2.844,2.844,0,0,1,69.852,52.6ZM67.791,17.161a1.9,1.9,0,0,0-2.178-1.243,1.849,1.849,0,0,0-1.364,1.605c-.242,1.243-.394,2.727.6,3.7a2.31,2.31,0,0,0,2.575-.242C68.278,20.009,67.915,18.283,67.791,17.161Z" transform="translate(-31.172 -10.408)" fill="#fff"/>
      <path id="Path_41" data-name="Path 41" d="M98.65,20.979a2.31,2.31,0,0,1-2.575.242c-1-.97-.846-2.455-.6-3.7a1.849,1.849,0,0,1,1.364-1.605,1.9,1.9,0,0,1,2.178,1.243C99.137,18.283,99.5,20.009,98.65,20.979Z" transform="translate(-62.393 -10.408)" fill="#fff"/>
      <path id="Path_42" data-name="Path 42" d="M138.789,32.446c-.97.76-2.969-.725-2.969-.725l2.21-4.091c.88.514,1.878.76,2.12,1.726A3.422,3.422,0,0,1,138.789,32.446Z" transform="translate(-88.93 -18.091)" fill="#fff"/>
      <path id="Path_43" data-name="Path 43" d="M138.789,32.446c-.97.76-2.969-.725-2.969-.725l2.21-4.091c.88.514,1.878.76,2.12,1.726A3.422,3.422,0,0,1,138.789,32.446Z" transform="translate(-88.93 -18.091)" fill="#fff"/>
      <path id="Path_44" data-name="Path 44" d="M165.21,60.3l1.091,1.968,2.634-2.7Z" transform="translate(-108.174 -39.004)" fill="#fff"/>
      <path id="Path_45" data-name="Path 45" d="M168.935,59.57l-2.634,2.7L165.21,60.3Z" transform="translate(-108.174 -39.004)" fill="#fff"/>
      <path id="Path_46" data-name="Path 46" d="M58.96,163.943l1.15.818.487-2.182Zm29.563.366c-.483-.728-.877-2.123-2.12-1.882a1.329,1.329,0,0,0-.97,1.85c.425.725.849,2.12,2.12,1.878A1.241,1.241,0,0,0,88.523,164.309Z" transform="translate(-38.605 -106.333)" fill="#fff"/>
      <path id="Path_47" data-name="Path 47" d="M58.96,163.943l1.15.818.487-2.182Zm29.563.366c-.483-.728-.877-2.123-2.12-1.882a1.329,1.329,0,0,0-.97,1.85c.425.725.849,2.12,2.12,1.878A1.241,1.241,0,0,0,88.523,164.309Z" transform="translate(-38.605 -106.333)" fill="#fff"/>
      <path id="Path_48" data-name="Path 48" d="M76.394,72.39c-.514.639.394,1.3-.121,1.819a1.423,1.423,0,0,1-1.543-.545,6.428,6.428,0,0,1,.121-1.395c.18-.787.846-2.724.846-2.724,2.272-8.12-.635-15.781-5.9-21.446-2-2.182-4.7-1.516-7.15-1.274-.756.124-2.12.518-1.395,1.788,0,0,1.878,1.788,2.517,2.455.666.666,1.906,2.178,1.906,2.178a1.13,1.13,0,0,1,.273.942.548.548,0,0,1-.877.242l-2.7-3s-2.272-3-4.391-2.786a9.3,9.3,0,0,0-4.06,2.33A11.772,11.772,0,0,0,51.5,53.734c-.908,1.726.908,1.364,3.756,2.876.97.518,2.455,1.243,2.513,2-.242,1.184-1.087.273-1.906-.148-.639-.335-5.424-3.88-6.939-.545a15.292,15.292,0,0,0-.908,2.151c-.483,1.605-.6,3.238.031,3.725.756.545,1.94.421,3.059.363a5.163,5.163,0,0,1,2.938.545c3.725,1.788,6.269,5.665,5.969,9.176a.359.359,0,0,1-.214.214c-1.15.3-2.272-.7-3.363-1.181-2.876-1.032-7.36-.366-7.54-.062-.394.849,1.937,2,2.451,3.121.514.908.7,2.178,1.485,2.969a5.333,5.333,0,0,0,2.544.059c.577-.152,1.574-1.757,2.12-1.788l18.75.031c.787.514-.394,1.181-.028,1.7,2.572.635,5.089-1.3,6.753-3.335C81.059,73.937,78.939,72.149,76.394,72.39Zm-6.542.273A2.862,2.862,0,1,1,72.7,69.818,2.844,2.844,0,0,1,69.852,72.663Z" transform="translate(-31.172 -30.472)" fill="#fff"/>
    </g>
  </g>
</svg>
