<?xml version="1.0" encoding="utf-8"?>
<!-- Generator: Adobe Illustrator 26.3.1, SVG Export Plug-In . SVG Version: 6.00 Build 0)  -->
<svg version="1.1" id="Layer_1" xmlns="http://www.w3.org/2000/svg" xmlns:xlink="http://www.w3.org/1999/xlink" x="0px" y="0px"
	 viewBox="0 0 110 110" style="enable-background:new 0 0 110 110;" xml:space="preserve">
<style type="text/css">
	.st0{fill:#429E29;}
	.st1{fill:#FFFFFF;}
</style>
<circle class="st0" cx="55" cy="55" r="55"/>
<g id="simple_1C">
	<g id="standard_simple_1C">
		<g>
			<path class="st1" d="M55.5,18.4c-20.2,0-36.7,16.4-36.7,36.7s16.4,36.7,36.7,36.7s36.7-16.4,36.7-36.7S75.8,18.4,55.5,18.4z
				 M55.5,90.8c-19.7,0-35.7-16-35.7-35.7s16-35.7,35.7-35.7s35.7,16,35.7,35.7S75.3,90.8,55.5,90.8z"/>
			<path class="st1" d="M55.5,21.9c-18.3,0-33.2,14.9-33.2,33.2s14.9,33.2,33.2,33.2s33.2-14.9,33.2-33.2S73.9,21.9,55.5,21.9z
				 M55.5,85.4c-16.7,0-30.3-13.5-30.3-30.3s13.5-30.3,30.3-30.3s30.3,13.5,30.3,30.3S72.2,85.4,55.5,85.4z"/>
			<path class="st1" d="M78.5,69.6c-2.3-2.1-5.1-3.5-8.2-4.1c-0.4-0.1-0.8,0.3-0.8,0.7v1.1c0,0.3-0.3,0.7-0.6,0.7h-0.7
				c-0.9,0-1-1.1-0.8-1.7c1.8-6.6,2.3-10.6,2.3-13.6c0-3.1-0.1-6.2-1.5-10.3c-1.4-3.9-2.6-7.8-9.1-13.7c-0.4-0.4-0.9-0.6-1.5-0.6
				c-0.6,0-1.2-0.1-1.8-0.1c-2.7,0-5.3,0.4-7.8,1.1c-0.9,0.3-0.8,0.9-0.3,1.4c2.5,2.1,5.8,5.3,8.1,9.2c-1.5,0.1-2.6-0.7-3.5-1.6
				c-3.1-2.9-6.3-5-8.8-6.5c-0.4-0.2-0.9-0.3-1.3-0.1c-2.8,1.6-4.7,3.2-6.9,5.7c-0.4,0.4-0.1,0.8,0.2,1c2.4,1.3,6.3,3.8,9.7,6.9
				c-0.7,0.6-1.8,0.4-3.5-0.5c-3.1-1.7-6.2-2.6-8.5-3.2c-0.5-0.1-1,0-1.3,0.4c-1.5,2.6-2.5,5.6-3,8.8c-0.1,0.6,0.3,1.1,0.9,1.2
				c5.4,0.9,15,3.5,16.6,14.5c0.1,1-0.7,1.8-1.9,1.3c-1.6-0.8-3.2-1.5-4.9-2.3c-0.2-0.1-0.4-0.1-0.5-0.1h-7.6c-1.1,0-1.5,1-0.8,1.8
				c1.8,2.1,3.5,4.4,4.9,6.8c0.1,0.2,0.3,0.3,0.5,0.3h3.3c0.2,0,0.4-0.1,0.6-0.2c1-0.6,2.1-1.2,3.1-1.8c0.2-0.1,0.4-0.1,0.6-0.1
				h25.1c0.3,0,0.6,0.2,0.6,0.6v1.2c0,0.4,0.4,0.8,0.8,0.7c3.1-0.5,5.9-1.9,8.2-4C78.9,70.5,78.9,69.9,78.5,69.6z M63.8,61.6
				c0,1.9-1.5,3.4-3.4,3.4c-1.9,0-3.4-1.5-3.4-3.4c0-1.9,1.5-3.4,3.4-3.4C62.3,58.2,63.8,59.7,63.8,61.6z"/>
		</g>
	</g>
</g>
</svg>
