<svg xmlns="http://www.w3.org/2000/svg" width="56" height="56" viewBox="0 0 56 56"><g transform="translate(-278 -416)"><circle cx="28" cy="28" r="28" transform="translate(278 416)" fill="transparent"/><path d="M25.869,9.217c.018.256.018.512.018.768C25.888,17.8,19.942,26.8,9.074,26.8A16.7,16.7,0,0,1,0,24.146a12.225,12.225,0,0,0,1.427.073,11.835,11.835,0,0,0,7.336-2.525,5.92,5.92,0,0,1-5.525-4.1,7.452,7.452,0,0,0,1.116.091,6.25,6.25,0,0,0,1.555-.2,5.91,5.91,0,0,1-4.739-5.8v-.073a5.951,5.951,0,0,0,2.671.75,5.918,5.918,0,0,1-1.83-7.9A16.8,16.8,0,0,0,14.2,10.644a6.671,6.671,0,0,1-.146-1.354A5.915,5.915,0,0,1,24.278,5.247,11.634,11.634,0,0,0,28.028,3.82a5.893,5.893,0,0,1-2.6,3.257,11.847,11.847,0,0,0,3.4-.915,12.7,12.7,0,0,1-2.964,3.055Z" transform="translate(291.583 428.91)" fill="#fff"/></g></svg>