<svg id="VW_Logo" data-name="VW Logo" xmlns="http://www.w3.org/2000/svg" width="110" height="110" viewBox="0 0 110 110">
  <circle id="Ellipse_1" data-name="Ellipse 1" cx="55" cy="55" r="55" fill="#c00000"/>
  <g id="Tesla" transform="translate(151.469 207.823)">
    <g id="Group_27" data-name="Group 27" transform="translate(-132.155 -187.842)">
      <path id="Path_3" data-name="Path 3" d="M57.232,88.828l9.985-55.342c9.517,0,12.519,1.029,12.953,5.227,0,0,6.384-2.346,9.6-7.111a71.441,71.441,0,0,0-25.191-6l-7.367,8.843h.017L49.865,25.6a71.435,71.435,0,0,0-25.19,6c3.217,4.765,9.6,7.111,9.6,7.111.436-4.2,3.434-5.227,12.888-5.234Z" transform="translate(-21.543 -18.79)" fill="#fff"/>
      <path id="Path_4" data-name="Path 4" d="M48.761,4.261a83.315,83.315,0,0,1,33.686,6.661,26.774,26.774,0,0,0,2-4.069A98.952,98.952,0,0,0,48.759,0,98.941,98.941,0,0,0,13.075,6.853a33.81,33.81,0,0,0,2,4.069A83.305,83.305,0,0,1,48.759,4.261Z" transform="translate(-13.075)" fill="#fff"/>
    </g>
  </g>
</svg>
