<svg xmlns="http://www.w3.org/2000/svg" xmlns:xlink="http://www.w3.org/1999/xlink" width="18" height="18" viewBox="0 0 18 18"><defs><clipPath id="a"><rect width="4.032" height="10.91" fill="#fff"/></clipPath><clipPath id="b"><rect width="1" height="1" transform="translate(4967 -29)" fill="#fff"/></clipPath></defs><g transform="translate(-4861.481 365.519)"><circle cx="9" cy="9" r="9" transform="translate(4861.481 -365.519)" fill="#0b01f5"/><g transform="translate(4868.473 -362.143)"><g clip-path="url(#a)"><path d="M3.18,307.011h.853V308.6H0v-1.589H.853a.2.2,0,0,0,.2-.2v-3.693a.2.2,0,0,0-.2-.2H.027v-1.589h2.95v5.484a.2.2,0,0,0,.2.2" transform="translate(0 -297.69)" fill="#fff" fill-rule="evenodd"/><path d="M38.844,0a1.331,1.331,0,1,1-1.331,1.331A1.331,1.331,0,0,1,38.844,0" transform="translate(-37.061)" fill="#fff" fill-rule="evenodd"/></g></g></g><g transform="translate(-4959 40)" clip-path="url(#b)"><g transform="translate(-1 1)"><rect width="107" height="17" transform="translate(4968 -46)" fill="#fff"/><text transform="translate(4973 -34)" fill="#0b01f5" font-size="12" font-family="Paralucent-Medium, Paralucent" font-weight="500"><tspan x="0" y="0">Name, gender, etc.</tspan></text></g></g></svg>