<svg id="VW_Logo" data-name="VW Logo" xmlns="http://www.w3.org/2000/svg" width="110" height="110" viewBox="0 0 110 110">
  <circle id="Ellipse_1" data-name="Ellipse 1" cx="55" cy="55" r="55" fill="#ce0706"/>
  <g id="Toyota" transform="translate(63.422 60.127)">
    <g id="Group_41" data-name="Group 41" transform="translate(-50.423 -32.126)">
      <path id="Path_93" data-name="Path 93" d="M42.5,0C19.028,0,0,12.124,0,27.079S19.028,54.157,42.5,54.157,85,42.034,85,27.079,65.972,0,42.5,0ZM11.01,16.362c1.17,4.892,9.677,8.955,21.19,10.5,0,.229,0,.46,0,.691,0,11.6,3.339,21.337,7.84,23.984C21.36,50.643,6.628,40.34,6.628,27.762a17.83,17.83,0,0,1,4.382-11.4ZM36.425,27.3c1.966.149,4,.228,6.075.228s4.109-.078,6.075-.228C48.3,35.908,45.683,42.654,42.5,42.654S36.7,35.908,36.425,27.3ZM52.8,26.862c11.775-1.58,20.405-5.793,21.259-10.834a17.965,17.965,0,0,1,4.662,11.734c0,12.663-14.931,23.02-33.785,23.791,4.515-2.621,7.868-12.373,7.868-24,0-.231,0-.462,0-.691ZM46.183,4.483c11.771.6,20.794,4.026,20.794,8.162,0,3.379-6.018,6.284-14.637,7.561-.938-7.23-3.227-13.035-6.157-15.724Zm2.132,16.184c-1.864.153-3.811.234-5.815.234s-3.951-.081-5.814-.234C37.468,13.844,39.775,8.9,42.5,8.9s5.033,4.945,5.815,11.768Zm-15.655-.46c-8.618-1.278-14.637-4.182-14.637-7.561,0-1.4,1.027-2.711,2.841-3.864a42.694,42.694,0,0,1,6.9-2.729,57.3,57.3,0,0,1,11.05-1.569C35.886,7.172,33.6,12.977,32.66,20.207Z" fill="#fff" fill-rule="evenodd"/>
      <path id="Path_94" data-name="Path 94" d="M42.5,0C19.028,0,0,12.124,0,27.079S19.028,54.157,42.5,54.157,85,42.034,85,27.079,65.972,0,42.5,0ZM11.01,16.362c1.17,4.892,9.677,8.955,21.19,10.5,0,.229,0,.46,0,.691,0,11.6,3.339,21.337,7.84,23.984C21.36,50.643,6.628,40.34,6.628,27.762a17.83,17.83,0,0,1,4.382-11.4ZM36.425,27.3c1.966.149,4,.228,6.075.228s4.109-.078,6.075-.228C48.3,35.908,45.683,42.654,42.5,42.654S36.7,35.908,36.425,27.3ZM52.8,26.862c11.775-1.58,20.405-5.793,21.259-10.834a17.965,17.965,0,0,1,4.662,11.734c0,12.663-14.931,23.02-33.785,23.791,4.515-2.621,7.868-12.373,7.868-24,0-.231,0-.462,0-.691ZM46.183,4.483c11.771.6,20.794,4.026,20.794,8.162,0,3.379-6.018,6.284-14.637,7.561-.938-7.23-3.227-13.035-6.157-15.724Zm2.132,16.184c-1.864.153-3.811.234-5.815.234s-3.951-.081-5.814-.234C37.468,13.844,39.775,8.9,42.5,8.9s5.033,4.945,5.815,11.768Zm-15.655-.46c-8.618-1.278-14.637-4.182-14.637-7.561,0-1.4,1.027-2.711,2.841-3.864a42.694,42.694,0,0,1,6.9-2.729,57.3,57.3,0,0,1,11.05-1.569C35.886,7.172,33.6,12.977,32.66,20.207Z" fill="#fff"/>
    </g>
  </g>
</svg>
