<svg id="Twitter" xmlns="http://www.w3.org/2000/svg" width="38.947" height="37" viewBox="0 0 38.947 37">
  <rect id="Rectangle_30" data-name="Rectangle 30" width="38.947" height="37" fill="#00b2ff" opacity="0"/>
  <path id="Icon_awesome-twitter" data-name="Icon awesome-twitter" d="M18.024,7.447c.013.178.013.357.013.535A11.634,11.634,0,0,1,6.322,19.7,11.635,11.635,0,0,1,0,17.849a8.518,8.518,0,0,0,.994.051A8.246,8.246,0,0,0,6.106,16.14a4.125,4.125,0,0,1-3.85-2.855,5.192,5.192,0,0,0,.778.064,4.355,4.355,0,0,0,1.083-.14,4.118,4.118,0,0,1-3.3-4.041V9.117a4.146,4.146,0,0,0,1.861.523A4.123,4.123,0,0,1,1.4,4.133,11.7,11.7,0,0,0,9.892,8.441a4.648,4.648,0,0,1-.1-.943,4.121,4.121,0,0,1,7.126-2.817,8.106,8.106,0,0,0,2.613-.994,4.106,4.106,0,0,1-1.81,2.269,8.254,8.254,0,0,0,2.371-.637A8.85,8.85,0,0,1,18.024,7.447Z" transform="translate(9.429 6.546)" fill="#fff"/>
</svg>
