<svg id="VW_Logo" data-name="VW Logo" xmlns="http://www.w3.org/2000/svg" width="110" height="110" viewBox="0 0 110 110">
  <circle id="Ellipse_1" data-name="Ellipse 1" cx="55" cy="55" r="55" fill="#eb001e"/>
  <g id="Vauxhall_-_New" data-name="Vauxhall - New" transform="translate(96.585 97.355)">
    <path id="Path_95" data-name="Path 95" d="M61.662,50.684a2.306,2.306,0,0,1-.15.282.207.207,0,0,1-.263.094l-1.033-.376a90.278,90.278,0,0,1-8.353-4.073,7.339,7.339,0,0,1-4.036-5.631,41.391,41.391,0,0,1-.488-8.485A1.558,1.558,0,0,1,48.6,30.88a20.624,20.624,0,0,1,2.084-.319c1.22,0,2.459-.113,3.754-.169.732,0,.826-.3.507-.92a2.214,2.214,0,0,0-1.689-1.239,22.423,22.423,0,0,1-3.4-.751.205.205,0,0,1,0-.206c.113-.188.375-.206.544-.244a27.4,27.4,0,0,1,5.951-.113,2.084,2.084,0,0,1,1.877,1.239c.15.281.281.563.413.845a1.056,1.056,0,0,0,.207.338.15.15,0,0,0,.209.034.155.155,0,0,0,.034-.034,1.874,1.874,0,0,0,.338-.714,9.78,9.78,0,0,0,.619-4.411A3.266,3.266,0,0,0,57.7,21.25s-3.51-1.07-3.754-1.126,0-.488,0-.732a2.478,2.478,0,0,0-1.183-2.253,9.48,9.48,0,0,0-3.341-1.108,28.309,28.309,0,0,0-4.13-.357c.263-1.708.882-5.632.882-5.632s0-.206-.15,0l-6.533,6.12c-.113,0-1.051.281-1.689.432a10.193,10.193,0,0,0-6.063,4.149l-.807,1.183-.676,1.014a.375.375,0,0,0,.119.518.4.4,0,0,0,.106.046l1.6.225c.169,0,.131.131.094.225a1.557,1.557,0,0,1-.957.563l-1.389.432a3.174,3.174,0,0,0-1.577,1.22,45.949,45.949,0,0,0-3.022,4.956,5.107,5.107,0,0,0-.376.714.3.3,0,0,0,0,.281c.15.281.526.244.863.263h1.652a.149.149,0,0,1,0,.15.468.468,0,0,1-.319.45c-.188.094-.544.225-.826.338l-2.084.9s-.863.3-1.67,1.989-2.309,4.919-2.872,6.589c-.188.469,0,.657.469.695l1.877.113h.732c.188,0,.188,0,.113.413,0,0-.206.845-.413,1.389,0,.131,0,.244-.469.244H9.608a8.169,8.169,0,0,1-2.684-.525A12.982,12.982,0,0,1,5.384,44.4a5.463,5.463,0,0,1-1.52-1.089,1.973,1.973,0,0,1-.207-.582v-.113a31.052,31.052,0,0,1-.92-7.321v-.357c0-.281.094-.413.413-.413h14.21a1.258,1.258,0,0,0,1.2-.714l9.649-16.895a.394.394,0,0,0-.338-.6H9.383a.263.263,0,0,1-.244-.132.281.281,0,0,1,0-.3Q9.87,14.9,10.7,14a31.424,31.424,0,0,1,44.355-2.742q.19.168.378.339a30.169,30.169,0,0,1,9.987,18.265A30.769,30.769,0,0,1,61.662,50.7M46.908,20.649a5.188,5.188,0,0,1,1.108-.713,1.161,1.161,0,0,1,.619,0l3.21.413c.169,0,.206.169,0,.281l-.882,1.014a1.553,1.553,0,0,1-.563.263,1.737,1.737,0,0,1-.619,0l-2.666-.77a.3.3,0,0,1-.225-.357M25.32,59.882l-4.43,3.566a.263.263,0,0,1-.3,0A31.5,31.5,0,0,1,8.5,53.274l14.117,3.341a.263.263,0,0,1,.206.169,15.568,15.568,0,0,0,2.384,2.966.113.113,0,0,1,.01.159l-.01.01M10.4,19.26c.413,0,.45,0,.563.6.357,1.464,1.877,8.353,2.009,8.6.15-.3,3.435-5.932,4.937-8.654a.883.883,0,0,1,.9-.544h3.548L15.427,31.518H9.514L6.7,19.241h3.754M34.2,0a35.009,35.009,0,0,0,0,70,35.009,35.009,0,0,0,0-70" transform="translate(-75.585 -77.355)" fill="#fff"/>
  </g>
</svg>
