<svg xmlns="http://www.w3.org/2000/svg" width="56" height="56" viewBox="0 0 56 56"><g transform="translate(-278 -416)"><circle cx="28" cy="28" r="28" transform="translate(278 416)" fill="transparent"/><path d="M30.909,11.424h-3.7L26.18,8.852A6.889,6.889,0,0,0,19.752,4.5H11.9A6.891,6.891,0,0,0,5.472,8.852L4.443,11.424H.742a.742.742,0,0,0-.72.922l.371,1.484a.741.741,0,0,0,.72.562H2.354A3.929,3.929,0,0,0,.989,17.359v2.967a3.924,3.924,0,0,0,.989,2.592v3.343a1.978,1.978,0,0,0,1.978,1.978H5.935a1.978,1.978,0,0,0,1.978-1.978V24.282H23.739v1.978a1.978,1.978,0,0,0,1.978,1.978H27.7a1.978,1.978,0,0,0,1.978-1.978V22.918a3.922,3.922,0,0,0,.989-2.592V17.359A3.93,3.93,0,0,0,29.3,14.391h1.241a.741.741,0,0,0,.72-.562l.371-1.484a.742.742,0,0,0-.72-.922Zm-21.764-1.1A2.968,2.968,0,0,1,11.9,8.456h7.851a2.968,2.968,0,0,1,2.755,1.865l1.232,3.08H7.913l1.232-3.08Zm-3.21,9.992a1.866,1.866,0,0,1-1.978-1.972,1.866,1.866,0,0,1,1.978-1.972A3.806,3.806,0,0,1,8.9,19.328C8.9,20.511,7.122,20.314,5.935,20.314Zm19.782,0c-1.187,0-2.967.2-2.967-.986a3.806,3.806,0,0,1,2.967-2.958A1.866,1.866,0,0,1,27.7,18.342a1.866,1.866,0,0,1-1.978,1.972Z" transform="translate(290.174 427.13)" fill="#fff"/></g></svg>