<svg xmlns="http://www.w3.org/2000/svg" xmlns:xlink="http://www.w3.org/1999/xlink" width="56" height="56" viewBox="0 0 56 56"><defs><clipPath id="a"><rect width="31.27" height="21.395" fill="#fff"/></clipPath></defs><g transform="translate(-278 -416)"><circle cx="28" cy="28" r="28" transform="translate(278 416)" fill="transparent"/><g transform="translate(290.365 433.302)"><g clip-path="url(#a)"><path d="M31.27,5.11v14.4A1.271,1.271,0,0,1,30,20.785H28.491a1.271,1.271,0,0,1-1.272-1.271V17.948H25.541V20.1a1.152,1.152,0,0,1-.969,1.272H9.566l-.021.023-.024-.023H9.5v-.021L6.336,18.291H3.683c-.69,0-1.25-.761-1.25-1.7v-2.8H1.467v4.141H0V4.564H1.467V8.705h.966V7.043c0-.939.559-1.7,1.25-1.7h2.4v-1.5A1.164,1.164,0,0,1,7.095,2.567h5.291v-1.1H8.244V0H21.613V1.467H17.471v1.1h5.28l.022-.024.026.024h.023v.021l3.67,3.4h.728V5.11a1.271,1.271,0,0,1,1.272-1.271H30A1.271,1.271,0,0,1,31.27,5.11" fill="#fff"/></g></g></g></svg>