<svg xmlns="http://www.w3.org/2000/svg" width="56" height="56" viewBox="0 0 56 56"><g transform="translate(-278 -416)"><circle cx="28" cy="28" r="28" transform="translate(278 416)" fill="none"/><path d="M11.156,22.313a6.085,6.085,0,0,0,6.085-6.085V6.085a6.085,6.085,0,1,0-12.17,0V16.227A6.085,6.085,0,0,0,11.156,22.313ZM21.3,12.17H20.284a1.014,1.014,0,0,0-1.014,1.014v3.043A8.123,8.123,0,0,1,10.346,24.3a8.36,8.36,0,0,1-7.3-8.436V13.185A1.014,1.014,0,0,0,2.028,12.17H1.014A1.014,1.014,0,0,0,0,13.185V15.73A11.505,11.505,0,0,0,9.635,27.247v2.165H6.085a1.014,1.014,0,0,0-1.014,1.014V31.44a1.014,1.014,0,0,0,1.014,1.014H16.227a1.014,1.014,0,0,0,1.014-1.014V30.426a1.014,1.014,0,0,0-1.014-1.014h-3.55V27.271a11.167,11.167,0,0,0,9.635-11.044V13.185A1.014,1.014,0,0,0,21.3,12.17Z" transform="translate(294.844 427.773)" fill="#fff"/></g></svg>