<svg id="VW_Logo" data-name="VW Logo" xmlns="http://www.w3.org/2000/svg" width="110" height="110" viewBox="0 0 110 110">
  <circle id="Ellipse_1" data-name="Ellipse 1" cx="55" cy="55" r="55" fill="#0b3569"/>
  <g id="Volkswagen" transform="translate(60.754 60.754)">
    <path id="Path_1" data-name="Path 1" d="M33.956,0H36.5A35.654,35.654,0,0,1,51.541,4.1,35.114,35.114,0,0,1,68.457,24.479a33.709,33.709,0,0,1,1.421,7.112,55.981,55.981,0,0,1,.1,5.7,34.517,34.517,0,0,1-4.6,15.233A34.994,34.994,0,0,1,36.474,70H33.582a42.654,42.654,0,0,1-4.4-.479A34.937,34.937,0,0,1,.078,36.425,14.941,14.941,0,0,1,.092,33.3c-.022-.96.164-1.9.2-2.86l.071-.087A34.838,34.838,0,0,1,14.583,6.562,35.2,35.2,0,0,1,33.956,0M31.883,3.386a8.474,8.474,0,0,1-1.13.145c-.563.113-1.136.173-1.7.295-.232.057-.468.1-.7.147-.191.051-.385.092-.578.135-.562.147-1.13.279-1.677.478-.078.02-.236.057-.316.075-.143.054-.284.108-.427.16l-.431.128L24.7,5.1q.188.37.351.751c.162.371.331.741.5,1.11.208.485.431.965.631,1.453.195.423.389.848.567,1.279.368.793.707,1.6,1.071,2.394,1.772,4,3.572,7.983,5.347,11.98.188.427.386.849.568,1.28s.383.85.572,1.277a3.175,3.175,0,0,0,.734,1.267,2.673,2.673,0,0,0,.67-1.15c.215-.462.418-.929.623-1.4,1.928-4.327,3.874-8.648,5.8-12.977.188-.427.381-.851.568-1.278s.381-.852.568-1.279.38-.852.568-1.28l.617-1.4c.187-.429.382-.853.565-1.282.119-.26.237-.522.371-.777-.221-.083-.434-.18-.654-.263-.146-.046-.289-.094-.434-.143l-.316-.08c-.547-.195-1.115-.32-1.675-.478-.427-.082-.852-.18-1.273-.289-.569-.093-1.141-.171-1.706-.288a8.021,8.021,0,0,1-1.138-.145c-.71-.065-1.427-.027-2.132-.148-1.4-.072-2.787.094-4.18.149M19.326,7.455A33.522,33.522,0,0,0,8.448,17.809a3.947,3.947,0,0,0,.4.966c.216.417.415.842.619,1.263.234.474.47.947.711,1.419,2.48,5.039,5.017,10.053,7.487,15.1.07.132.138.265.206.4.283.57.567,1.144.844,1.718q2.917,5.882,5.846,11.758a.512.512,0,0,0,.533.341c.219-.4.414-.822.6-1.244.156-.392.332-.777.5-1.165.162-.37.317-.743.481-1.113.167-.389.344-.774.5-1.166.167-.367.326-.739.487-1.11q1.861-4.276,3.744-8.541a.781.781,0,0,1,.793-.5q2.847,0,5.7,0a.8.8,0,0,1,.806.555c1.239,2.827,2.487,5.65,3.713,8.482.162.372.323.743.491,1.111.159.392.334.777.5,1.164.162.37.318.745.478,1.116.368.79.654,1.618,1.088,2.375l.348.012c1.575-3.026,3.057-6.1,4.589-9.155,3.408-6.912,6.851-13.806,10.276-20.71.266-.5.49-1.027.76-1.528a9.112,9.112,0,0,1,.768-1.444c-.287-.352-.529-.733-.785-1.1A33.213,33.213,0,0,0,50.769,7.46a1.459,1.459,0,0,0-.481-.2q-2.646,5.832-5.266,11.677c-.224.522-.472,1.033-.692,1.555-.166.373-.333.744-.507,1.112-.208.487-.429.968-.633,1.456q-.323.694-.63,1.393-1.8,4.032-3.624,8.053a4.545,4.545,0,0,1-.429.845,1.231,1.231,0,0,1-.9.247c-1.76-.005-3.52,0-5.278,0a.876.876,0,0,1-.915-.5q-1.954-4.316-3.891-8.636-.309-.7-.626-1.394c-.207-.487-.431-.965-.646-1.447s-.412-.934-.62-1.4C23.707,15.879,21.718,11.57,19.8,7.23c-.161.07-.323.14-.477.225M64.683,23.924c-.635,1.39-1.354,2.74-2.016,4.118-.193.379-.384.757-.568,1.14s-.374.758-.557,1.14c-.073.135-.145.271-.218.407s-.135.293-.2.438l-.147.295c-.071.134-.141.271-.21.405-.11.251-.23.5-.349.741-2.319,4.7-4.687,9.368-7,14.066-.035.07-.1.211-.141.283-.1.188-.191.38-.284.572s-.189.379-.279.572-.191.376-.28.568c-.034.071-.1.215-.139.286l-.207.4c-.228.478-.471.949-.7,1.426-1.737,3.552-3.517,7.082-5.289,10.616a1.111,1.111,0,0,1-1.591.552c-.585-.411-.726-1.167-1.025-1.773-.214-.463-.421-.929-.624-1.4-2.108-4.758-4.244-9.5-6.359-14.257-.186-.429-.386-.851-.566-1.282s-.393-.852-.55-1.3a.39.39,0,0,0-.545-.156,17.658,17.658,0,0,0-.742,1.625C31.953,48.2,29.8,52.986,27.676,57.787l-.5,1.1c-.2.486-.427.963-.633,1.45a10.9,10.9,0,0,1-.608,1.27,1.106,1.106,0,0,1-1.287.424,1.388,1.388,0,0,1-.71-.736c-1.76-3.549-3.549-7.085-5.3-10.639-.09-.191-.184-.38-.277-.568-.182-.383-.373-.762-.565-1.139-.035-.071-.1-.215-.141-.287-.089-.191-.187-.377-.283-.565s-.186-.38-.283-.568c-.07-.155-.141-.307-.213-.459-.119-.228-.233-.455-.348-.683-.141-.286-.278-.572-.427-.855-2.309-4.706-4.7-9.375-7-14.085-.034-.072-.106-.216-.141-.288-.161-.338-.33-.672-.5-1.01s-.327-.653-.5-.976c-.066-.151-.134-.3-.2-.451-.073-.133-.143-.265-.212-.4C6.845,26.883,6.134,25.437,5.408,24a6.867,6.867,0,0,0-.557,1.43A31.461,31.461,0,0,0,6.927,49.509c.015.039.043.117.058.155.368.633.708,1.282,1.1,1.9A32.256,32.256,0,0,0,22.823,64.288c.238.1.474.193.713.286.175.072.351.139.528.211.2.069.405.143.609.212l.427.155c.142.046.284.091.428.135.366.115.737.212,1.1.327.566.153,1.136.289,1.707.426.236.041.473.085.709.139s.477.091.715.149a29.806,29.806,0,0,0,3.44.356,16.688,16.688,0,0,0,3.544.009,26.558,26.558,0,0,0,3.575-.374c.238-.057.478-.1.719-.137.234-.058.472-.1.711-.141.569-.138,1.14-.274,1.706-.426.365-.115.733-.215,1.1-.33.145-.052.289-.1.435-.152.074-.021.222-.062.3-.082.421-.161.847-.312,1.266-.477.236-.1.474-.195.712-.291A32.239,32.239,0,0,0,65.141,44.811a31.182,31.182,0,0,0-.458-20.887Z" transform="translate(-40.754 -40.755)" fill="#fff"/>
  </g>
</svg>
