<svg id="VW_Logo" data-name="VW Logo" xmlns="http://www.w3.org/2000/svg" width="110" height="110" viewBox="0 0 110 110">
  <circle id="Ellipse_1" data-name="Ellipse 1" cx="55" cy="55" r="55" fill="#244575"/>
  <g id="Volvo" transform="translate(64.29 64.966)">
    <g id="Group_36" data-name="Group 36" transform="translate(-43.909 -43.982)">
      <path id="Path_49" data-name="Path 49" d="M24.546,32.112c-1.155,0-1.962,1.271-1.962,2.889s.807,2.886,1.962,2.886c1.039,0,1.966-1.271,1.966-2.886S25.585,32.112,24.546,32.112Zm0,0c-1.155,0-1.962,1.271-1.962,2.889s.807,2.886,1.962,2.886c1.039,0,1.966-1.271,1.966-2.886S25.585,32.112,24.546,32.112Zm0,0c-1.155,0-1.962,1.271-1.962,2.889s.807,2.886,1.962,2.886c1.039,0,1.966-1.271,1.966-2.886S25.585,32.112,24.546,32.112Zm0,0c-1.155,0-1.962,1.271-1.962,2.889s.807,2.886,1.962,2.886c1.039,0,1.966-1.271,1.966-2.886S25.585,32.112,24.546,32.112Zm40.6-20.142a1.368,1.368,0,0,1,2.159.156L69,14.682c.485.79.881.677.881-.249V1.8A1.687,1.687,0,0,0,68.2.117H55.449c-.926,0-1.034.388-.239.862l2.944,1.93a1.4,1.4,0,0,1,.173,2.178l-.9.9a2.1,2.1,0,0,1-2.339.354,34.806,34.806,0,1,0,9.419,9.895c-.388-.775-.876-2.7-.275-3.325Zm-30.2-1.221A24.252,24.252,0,0,1,58.056,27.67H11.827A24.256,24.256,0,0,1,34.941,10.749ZM30.669,32.227V31.188h7.277v1.038H36.1v5.429h1.963a2.42,2.42,0,0,0,2.426-2.309h1.154v3.58H30.669V37.656h1.848V32.227Zm10.858,0H39.678V31.188h7.854v1.038H45.569l2.772,4.737,2.427-4.737H49.38V31.188h5.428v1.038H52.96l-3.58,6.7H45.107ZM30.207,35c0,2.309-2.542,4.157-5.661,4.157-3,0-5.543-1.848-5.543-4.157,0-2.2,2.539-4.046,5.543-4.046C27.665,30.956,30.207,32.806,30.207,35ZM9.993,38.926l-3.581-6.7H4.565V31.188h7.854v1.038H10.455l2.772,4.737,2.54-4.737h-1.5V31.188h5.428v1.038H17.846l-3.58,6.7ZM34.941,59.248A24.256,24.256,0,0,1,11.827,42.328H58.056A24.252,24.252,0,0,1,34.941,59.248ZM65.321,35c0,2.309-2.543,4.157-5.661,4.157-3,0-5.543-1.848-5.543-4.157s2.542-4.16,5.543-4.16C62.778,30.841,65.321,32.689,65.321,35ZM57.7,35c0,1.615.809,2.886,1.962,2.886,1.039,0,1.966-1.271,1.966-2.886,0-1.736-.926-3-1.966-3C58.506,32,57.7,33.266,57.7,35ZM22.583,35c0,1.615.807,2.886,1.962,2.886,1.039,0,1.966-1.271,1.966-2.886s-.926-2.889-1.966-2.889C23.39,32.112,22.583,33.383,22.583,35Zm1.962-2.889c-1.155,0-1.962,1.271-1.962,2.889s.807,2.886,1.962,2.886c1.039,0,1.966-1.271,1.966-2.886S25.585,32.112,24.546,32.112Zm0,0c-1.155,0-1.962,1.271-1.962,2.889s.807,2.886,1.962,2.886c1.039,0,1.966-1.271,1.966-2.886S25.585,32.112,24.546,32.112Z" transform="translate(0 0)" fill="#fff" fill-rule="evenodd"/>
    </g>
  </g>
</svg>
